<svg width="248" height="163" viewBox="0 0 248 163" fill="none" xmlns="http://www.w3.org/2000/svg">
<path d="M2.45263 94.1178C2.58413 93.5632 2.24277 93.0067 1.69017 92.8747C1.13757 92.7427 0.582991 93.0853 0.451487 93.6399C0.319984 94.1945 0.66135 94.751 1.21395 94.883C1.76655 95.015 2.32112 94.6724 2.45263 94.1178Z" fill="#BBB8E8"/>
<path d="M12.4406 94.6132C12.8423 94.2101 12.8423 93.5565 12.4406 93.1534C12.039 92.7503 11.3877 92.7503 10.9861 93.1534C10.5844 93.5565 10.5844 94.2101 10.9861 94.6132C11.3877 95.0163 12.039 95.0163 12.4406 94.6132Z" fill="#BBB8E8"/>
<path d="M22.7026 94.612C23.1043 94.2089 23.1043 93.5553 22.7026 93.1522C22.3009 92.7491 21.6497 92.7491 21.248 93.1522C20.8464 93.5553 20.8464 94.2089 21.248 94.612C21.6497 95.0151 22.3009 95.0151 22.7026 94.612Z" fill="#BBB8E8"/>
<path d="M33.2354 94.1239C33.3659 93.5691 33.0236 93.0131 32.4708 92.8821C31.9179 92.7511 31.364 93.0947 31.2334 93.6495C31.1029 94.2043 31.4452 94.7603 31.9981 94.8913C32.5509 95.0223 33.1049 94.6787 33.2354 94.1239Z" fill="#BBB8E8"/>
<path d="M42.8913 94.838C43.4162 94.6198 43.6654 94.016 43.448 93.4893C43.2306 92.9626 42.6289 92.7125 42.1041 92.9306C41.5793 93.1488 41.33 93.7527 41.5474 94.2794C41.7648 94.8061 42.3665 95.0562 42.8913 94.838Z" fill="#BBB8E8"/>
<path d="M2.45409 104.416C2.58559 103.861 2.24422 103.305 1.69162 103.173C1.13903 103.041 0.584456 103.383 0.452952 103.938C0.321448 104.492 0.662809 105.049 1.21541 105.181C1.76801 105.313 2.32258 104.97 2.45409 104.416Z" fill="#BBB8E8"/>
<path d="M12.4416 104.912C12.8433 104.509 12.8433 103.855 12.4416 103.452C12.0399 103.049 11.3887 103.049 10.9871 103.452C10.5854 103.855 10.5854 104.509 10.987 104.912C11.3887 105.315 12.0399 105.315 12.4416 104.912Z" fill="#BBB8E8"/>
<path d="M22.7036 104.911C23.1052 104.508 23.1052 103.854 22.7036 103.451C22.3019 103.048 21.6507 103.048 21.249 103.451C20.8473 103.854 20.8473 104.508 21.249 104.911C21.6507 105.314 22.3019 105.314 22.7036 104.911Z" fill="#BBB8E8"/>
<path d="M33.2364 104.422C33.3669 103.868 33.0246 103.312 32.4717 103.181C31.9189 103.05 31.3649 103.393 31.2344 103.948C31.1039 104.503 31.4462 105.059 31.999 105.19C32.5518 105.321 33.1058 104.977 33.2364 104.422Z" fill="#BBB8E8"/>
<path d="M42.8923 105.137C43.4171 104.919 43.6663 104.315 43.449 103.789C43.2316 103.262 42.6299 103.012 42.1051 103.23C41.5802 103.448 41.331 104.052 41.5484 104.579C41.7658 105.105 42.3675 105.356 42.8923 105.137Z" fill="#BBB8E8"/>
<path d="M2.18478 115.208C2.58645 114.805 2.58645 114.151 2.18478 113.748C1.78312 113.345 1.13188 113.345 0.730214 113.748C0.328546 114.151 0.328547 114.805 0.730215 115.208C1.13188 115.611 1.78311 115.611 2.18478 115.208Z" fill="#BBB8E8"/>
<path d="M12.7141 114.723C12.8447 114.168 12.5024 113.612 11.9495 113.481C11.3967 113.35 10.8427 113.694 10.7122 114.249C10.5817 114.804 10.924 115.36 11.4768 115.491C12.0296 115.622 12.5836 115.278 12.7141 114.723Z" fill="#BBB8E8"/>
<path d="M22.9759 114.722C23.1064 114.167 22.7641 113.612 22.2113 113.481C21.6584 113.349 21.1044 113.693 20.9739 114.248C20.8434 114.803 21.1857 115.359 21.7385 115.49C22.2914 115.621 22.8453 115.277 22.9759 114.722Z" fill="#BBB8E8"/>
<path d="M32.9665 115.208C33.3682 114.805 33.3682 114.152 32.9665 113.749C32.5649 113.346 31.9136 113.346 31.512 113.749C31.1103 114.152 31.1103 114.805 31.512 115.208C31.9136 115.612 32.5648 115.612 32.9665 115.208Z" fill="#BBB8E8"/>
<path d="M43.5173 114.648C43.6083 114.085 43.2276 113.555 42.6668 113.464C42.1061 113.372 41.5778 113.755 41.4868 114.317C41.3958 114.88 41.7766 115.41 42.3373 115.502C42.898 115.593 43.4263 115.211 43.5173 114.648Z" fill="#BBB8E8"/>
<path d="M2.18185 125.502C2.58352 125.099 2.58352 124.446 2.18186 124.043C1.78019 123.639 1.12895 123.639 0.727285 124.043C0.325616 124.446 0.325617 125.099 0.727286 125.502C1.12895 125.905 1.78018 125.905 2.18185 125.502Z" fill="#BBB8E8"/>
<path d="M12.7095 125.021C12.84 124.466 12.4977 123.91 11.9449 123.779C11.3921 123.648 10.8381 123.991 10.7076 124.546C10.577 125.101 10.9193 125.657 11.4722 125.788C12.025 125.919 12.579 125.575 12.7095 125.021Z" fill="#BBB8E8"/>
<path d="M22.9715 125.019C23.102 124.465 22.7597 123.909 22.2069 123.778C21.654 123.647 21.1001 123.99 20.9695 124.545C20.839 125.1 21.1813 125.656 21.7341 125.787C22.287 125.918 22.8409 125.574 22.9715 125.019Z" fill="#BBB8E8"/>
<path d="M32.9636 125.503C33.3653 125.1 33.3653 124.446 32.9636 124.043C32.5619 123.64 31.9107 123.64 31.509 124.043C31.1074 124.446 31.1074 125.1 31.509 125.503C31.9107 125.906 32.5619 125.906 32.9636 125.503Z" fill="#BBB8E8"/>
<path d="M43.5134 124.945C43.6044 124.382 43.2237 123.852 42.6629 123.761C42.1022 123.669 41.5739 124.052 41.4829 124.614C41.3919 125.177 41.7727 125.707 42.3334 125.799C42.8941 125.89 43.4224 125.508 43.5134 124.945Z" fill="#BBB8E8"/>
<path d="M2.45214 135.308C2.58364 134.753 2.24227 134.197 1.68967 134.065C1.13707 133.933 0.582503 134.275 0.450999 134.83C0.319495 135.384 0.660855 135.941 1.21345 136.073C1.76605 136.205 2.32064 135.862 2.45214 135.308Z" fill="#BBB8E8"/>
<path d="M12.4409 135.804C12.8426 135.401 12.8426 134.747 12.4409 134.344C12.0392 133.941 11.388 133.941 10.9863 134.344C10.5846 134.747 10.5846 135.401 10.9863 135.804C11.388 136.207 12.0392 136.207 12.4409 135.804Z" fill="#BBB8E8"/>
<path d="M22.7029 135.803C23.1045 135.4 23.1045 134.746 22.7028 134.343C22.3012 133.94 21.6499 133.94 21.2483 134.343C20.8466 134.746 20.8466 135.4 21.2483 135.803C21.6499 136.206 22.3012 136.206 22.7029 135.803Z" fill="#BBB8E8"/>
<path d="M33.2342 135.317C33.3647 134.762 33.0224 134.206 32.4695 134.075C31.9167 133.944 31.3627 134.288 31.2322 134.842C31.1017 135.397 31.444 135.953 31.9968 136.084C32.5497 136.215 33.1036 135.872 33.2342 135.317Z" fill="#BBB8E8"/>
<path d="M42.8923 136.03C43.4171 135.812 43.6663 135.208 43.449 134.682C43.2316 134.155 42.6299 133.905 42.1051 134.123C41.5802 134.341 41.331 134.945 41.5484 135.472C41.7658 135.998 42.3675 136.249 42.8923 136.03Z" fill="#BBB8E8"/>
<path d="M49.33 157.548C49.2105 157.548 49.0985 157.518 48.9865 157.451L44.8869 154.978L40.7873 157.451C40.5782 157.578 40.3093 157.578 40.1003 157.451L35.6572 154.775C35.3435 154.588 35.239 154.176 35.4257 153.861C35.6124 153.546 36.0231 153.441 36.3442 153.629L40.4438 156.102L44.5434 153.629C44.7524 153.501 45.0213 153.501 45.2304 153.629L49.6735 156.304C49.9871 156.492 50.0916 156.904 49.9049 157.218C49.778 157.428 49.554 157.548 49.33 157.548Z" fill="#FF00A8" fill-opacity="0.3"/>
<path d="M49.33 162.899C49.2105 162.899 49.0985 162.869 48.9865 162.802L44.8869 160.329L40.7873 162.802C40.5782 162.929 40.3093 162.929 40.1003 162.802L35.6572 160.126C35.3435 159.939 35.239 159.527 35.4257 159.212C35.6124 158.897 36.0231 158.792 36.3442 158.98L40.4438 161.453L44.5434 158.98C44.7524 158.852 45.0213 158.852 45.2304 158.98L49.6735 161.655C49.9871 161.842 50.0916 162.255 49.9049 162.569C49.778 162.787 49.554 162.899 49.33 162.899Z" fill="#FF00A8" fill-opacity="0.3"/>
<path d="M246.165 21.6598H238.124C237.683 21.6598 237.323 21.2983 237.323 20.8555C237.323 20.4127 237.683 20.0513 238.124 20.0513H246.165C246.606 20.0513 246.966 20.4127 246.966 20.8555C246.976 21.2983 246.615 21.6598 246.165 21.6598Z" fill="#0062FF" fill-opacity="0.3"/>
<path d="M246.165 27.3078H238.124C237.683 27.3078 237.323 26.9463 237.323 26.5035C237.323 26.0607 237.683 25.6992 238.124 25.6992H246.165C246.606 25.6992 246.966 26.0607 246.966 26.5035C246.976 26.9463 246.615 27.3078 246.165 27.3078Z" fill="#0062FF" fill-opacity="0.3"/>
<path d="M247.291 139.363H178.96C178.569 139.363 178.25 139.044 178.25 138.653V104.073C178.25 103.682 178.569 103.363 178.96 103.363H247.291C247.681 103.363 248 103.682 248 104.073V138.653C248 139.044 247.681 139.363 247.291 139.363ZM179.669 137.943H246.574V104.783H179.669V137.943Z" fill="#DCE1E9"/>
<path d="M220.62 114.753H189.995C189.554 114.753 189.194 114.392 189.194 113.949C189.194 113.506 189.554 113.145 189.995 113.145H220.62C221.061 113.145 221.421 113.506 221.421 113.949C221.43 114.392 221.07 114.753 220.62 114.753Z" fill="#B5BBCA"/>
<path d="M227.389 125.01H189.995C189.554 125.01 189.194 124.648 189.194 124.206C189.194 123.763 189.554 123.401 189.995 123.401H227.389C227.83 123.401 228.191 123.763 228.191 124.206C228.191 124.648 227.83 125.01 227.389 125.01Z" fill="#B5BBCA"/>
<path d="M227.389 129.854H189.995C189.554 129.854 189.194 129.492 189.194 129.049C189.194 128.607 189.554 128.245 189.995 128.245H227.389C227.83 128.245 228.191 128.607 228.191 129.049C228.191 129.492 227.83 129.854 227.389 129.854Z" fill="#B5BBCA"/>
<path d="M211 0H23C19.6863 0 17 2.68629 17 6V114C17 117.314 19.6863 120 23 120H211C214.314 120 217 117.314 217 114V6C217 2.68629 214.314 0 211 0Z" fill="#E4E8F1"/>
<path d="M165.306 41.9079H42.5495C41.5762 41.9079 40.8462 41.1142 40.8462 40.1985V23.8983C40.8462 22.9216 41.5762 22.189 42.5495 22.189H165.367C166.279 22.189 167.07 22.9216 167.07 23.8983V40.2596C167.009 41.1142 166.219 41.9079 165.306 41.9079Z" fill="white"/>
<path d="M53.208 32.018C53.208 33.5442 51.9306 34.8263 50.4098 34.8263C48.889 34.8263 47.6116 33.5442 47.6116 32.018C47.6116 30.4918 48.889 29.2097 50.4098 29.2097C51.9306 29.2097 53.208 30.4918 53.208 32.018Z" fill="#FD398B"/>
<path d="M132.227 33.7274H56.4319C56.1886 33.7274 56.0061 33.5442 56.0061 33.3V30.6139C56.0061 30.3697 56.1886 30.1865 56.4319 30.1865H132.227C132.471 30.1865 132.653 30.3697 132.653 30.6139V33.3C132.653 33.5442 132.471 33.7274 132.227 33.7274Z" fill="#CBD3E8"/>
<path d="M158.067 25.3025C158.493 25.3025 158.797 25.6077 158.797 26.0351C158.797 26.4624 158.493 26.7677 158.067 26.7677C157.641 26.7677 157.337 26.4624 157.337 26.0351C157.337 25.6077 157.641 25.3025 158.067 25.3025Z" fill="#C2C9E9"/>
<path d="M160.744 25.3025C161.17 25.3025 161.474 25.6077 161.474 26.0351C161.474 26.4624 161.17 26.7677 160.744 26.7677C160.318 26.7677 160.014 26.4624 160.014 26.0351C160.014 25.6077 160.318 25.3025 160.744 25.3025Z" fill="#C2C9E9"/>
<path d="M163.42 25.3025C163.846 25.3025 164.15 25.6077 164.15 26.0351C164.15 26.4624 163.846 26.7677 163.42 26.7677C162.995 26.7677 162.69 26.4624 162.69 26.0351C162.69 25.6077 163.055 25.3025 163.42 25.3025Z" fill="#C2C9E9"/>
<path d="M165.306 66.3888H42.5495C41.637 66.3888 40.8462 65.6563 40.8462 64.6795V48.3793C40.8462 47.4636 41.5762 46.6699 42.5495 46.6699H165.367C166.279 46.6699 167.07 47.4025 167.07 48.3793V64.7405C167.009 65.6563 166.219 66.3888 165.306 66.3888Z" fill="url(#paint0_linear_713_100)"/>
<path d="M53.208 56.5597C53.208 58.086 51.9306 59.368 50.4098 59.368C48.889 59.368 47.6116 58.086 47.6116 56.5597C47.6116 55.0335 48.889 53.7515 50.4098 53.7515C51.9306 53.7515 53.208 54.9724 53.208 56.5597Z" fill="#39BCFD"/>
<path d="M132.227 58.2691H56.4319C56.1886 58.2691 56.0061 58.086 56.0061 57.8418V55.1556C56.0061 54.9114 56.1886 54.7283 56.4319 54.7283H132.227C132.471 54.7283 132.653 54.9114 132.653 55.1556V57.8418C132.653 58.086 132.471 58.2691 132.227 58.2691Z" fill="#CBD3E8"/>
<path d="M158.067 49.7834C158.493 49.7834 158.797 50.0887 158.797 50.516C158.797 50.9434 158.493 51.2486 158.067 51.2486C157.642 51.2486 157.337 50.9434 157.337 50.516C157.277 50.1497 157.642 49.7834 158.067 49.7834Z" fill="#C2C9E9"/>
<path d="M160.744 49.7834C161.17 49.7834 161.474 50.0887 161.474 50.516C161.474 50.9434 161.17 51.2486 160.744 51.2486C160.318 51.2486 160.014 50.9434 160.014 50.516C160.014 50.1497 160.318 49.7834 160.744 49.7834Z" fill="#C2C9E9"/>
<path d="M163.42 49.7834C163.846 49.7834 164.15 50.0887 164.15 50.516C164.15 50.9434 163.846 51.2486 163.42 51.2486C162.995 51.2486 162.69 50.9434 162.69 50.516C162.69 50.1497 163.055 49.7834 163.42 49.7834Z" fill="#C2C9E9"/>
<path d="M191.098 90.8693H68.3414C67.429 90.8693 66.6382 90.1367 66.6382 89.1599V72.8598C66.6382 71.944 67.3682 71.1504 68.3414 71.1504H191.098C192.011 71.1504 192.801 71.883 192.801 72.8598V89.221C192.801 90.1367 192.071 90.8693 191.098 90.8693Z" fill="url(#paint1_linear_713_100)"/>
<path d="M79.0002 81.0404C79.0002 82.5667 77.7228 83.8487 76.202 83.8487C74.6813 83.8487 73.4038 82.5667 73.4038 81.0404C73.4038 79.5142 74.6813 78.2322 76.202 78.2322C77.7228 78.2322 79.0002 79.4532 79.0002 81.0404Z" fill="#39BCFD"/>
<path d="M158.08 82.7498H82.2852C82.0419 82.7498 81.8594 82.5667 81.8594 82.3225V79.6363C81.8594 79.3921 82.0419 79.209 82.2852 79.209H158.08C158.324 79.209 158.506 79.3921 158.506 79.6363V82.3225C158.445 82.5667 158.263 82.7498 158.08 82.7498Z" fill="#CBD3E8"/>
<path d="M183.86 74.325C184.285 74.325 184.59 74.6302 184.59 75.0575C184.59 75.4849 184.285 75.7901 183.86 75.7901C183.434 75.7901 183.13 75.4849 183.13 75.0575C183.13 74.6302 183.434 74.325 183.86 74.325Z" fill="#C2C9E9"/>
<path d="M186.536 74.325C186.962 74.325 187.266 74.6302 187.266 75.0575C187.266 75.4849 186.962 75.7901 186.536 75.7901C186.11 75.7901 185.806 75.4849 185.806 75.0575C185.806 74.6302 186.171 74.325 186.536 74.325Z" fill="#C2C9E9"/>
<path d="M189.273 74.325C189.699 74.325 190.003 74.6302 190.003 75.0575C190.003 75.4849 189.699 75.7901 189.273 75.7901C188.848 75.7901 188.544 75.4849 188.544 75.0575C188.483 74.6302 188.848 74.325 189.273 74.325Z" fill="#C2C9E9"/>
<path d="M14.8345 67.0901C21.7187 67.0901 27.2994 61.4894 27.2994 54.5805C27.2994 47.6716 21.7187 42.0708 14.8345 42.0708C7.95036 42.0708 2.36963 47.6716 2.36963 54.5805C2.36963 61.4894 7.95036 67.0901 14.8345 67.0901Z" fill="#6F7386"/>
<path d="M13.8877 59.4477C13.508 59.4477 13.1282 59.3006 12.8351 59.0131L9.81044 55.9776C9.23083 55.3959 9.23083 54.4465 9.81044 53.8648C10.3901 53.2831 11.3294 53.2831 11.9157 53.8648L13.8877 55.8439L18.8777 50.8359C19.4573 50.2542 20.3967 50.2542 20.983 50.8359C21.5626 51.4176 21.5626 52.3671 20.983 52.9488L14.9404 59.0131C14.6539 59.3006 14.2741 59.4477 13.8877 59.4477Z" fill="white"/>
<path d="M227.603 58.5156H202.274C201.169 58.5156 200.274 59.4111 200.274 60.5156V74.5156C200.274 75.6202 201.169 76.5156 202.274 76.5156H227.603C228.707 76.5156 229.603 75.6202 229.603 74.5156V60.5156C229.603 59.4111 228.707 58.5156 227.603 58.5156Z" fill="#A0AFD2"/>
<path d="M215.842 65.6085H205.801C205.36 65.6085 205 65.2471 205 64.8043C205 64.3615 205.36 64 205.801 64H215.842C216.284 64 216.644 64.3615 216.644 64.8043C216.653 65.2471 216.293 65.6085 215.842 65.6085Z" fill="white"/>
<path d="M222.842 70.6085H205.801C205.36 70.6085 205 70.2471 205 69.8043C205 69.3615 205.36 69 205.801 69H222.842C223.284 69 223.644 69.3615 223.644 69.8043C223.653 70.2471 223.293 70.6085 222.842 70.6085Z" fill="white"/>
<path d="M116.137 128.599C109.299 129.485 101.821 128.402 95.2776 126.779C92.9162 126.188 90.5547 125.45 88.1441 125.254C85.7335 125.057 83.1261 125.401 81.1582 126.877C80.2235 127.566 79.4364 128.501 79.4364 129.632C79.3872 131.649 81.601 132.83 83.4705 133.568C89.5216 135.88 95.622 138.242 101.772 140.259C103.887 140.947 106.002 141.636 108.216 141.931C111.414 142.423 114.612 142.177 117.81 141.784C121.893 141.292 125.976 140.652 129.961 139.767C131.978 139.324 133.946 138.783 135.963 138.34C137.832 137.897 139.702 137.061 141.473 136.323C144.425 135.142 146.934 133.666 149.59 131.994C150.624 131.354 151.46 131.256 151.952 129.977C152.985 127.32 151.411 125.401 148.852 124.811C147.131 124.417 145.36 124.516 143.588 124.614C138.62 124.959 133.651 125.5 128.731 126.139C126.419 126.434 123.762 126.533 121.548 127.271C119.777 127.91 118.154 128.353 116.137 128.599Z" fill="#989DAE"/>
<path d="M100.689 90.3241C100.246 90.7176 99.8528 91.1604 99.4592 91.6032C93.2605 98.4907 90.899 108.035 92.6701 117.087C93.3097 120.235 94.6872 123.384 97.0978 125.549C97.6389 126.041 98.1801 126.434 98.8689 126.68C100.345 127.172 101.919 126.631 103.247 125.844C104.576 125.057 105.707 123.974 107.035 123.236C110.578 121.318 114.907 121.957 118.744 123.187C121.106 123.925 123.418 124.909 125.828 125.598C127.993 126.188 129.863 126.237 132.027 126.188C136.455 126.09 140.637 123.728 143.441 120.383C144.867 118.661 145.95 116.89 145.999 114.627C146.048 112.413 145.507 110.15 144.917 108.035C143.588 103.263 140.833 99.2778 138.078 95.2437C136.111 92.3903 134.143 88.799 130.748 87.4215C128.042 86.3391 125.238 87.0279 122.483 87.6674C121.106 88.0118 119.728 88.307 118.301 88.3562C116.776 88.4054 115.35 88.1102 113.825 87.815C112.693 87.5691 111.562 87.3231 110.43 87.0771C109.987 86.9787 109.594 86.8803 109.151 86.8311C108.462 86.7327 107.724 86.8311 107.035 86.9787C104.723 87.3231 102.46 88.6514 100.689 90.3241Z" fill="#C1C9DD"/>
<path d="M124.304 87.2248C123.664 87.1756 122.68 87.0772 122.237 86.5852C121.253 85.4537 121.155 83.4367 121.352 82.01C121.401 81.6656 121.45 81.3704 121.598 81.0752C121.795 80.6817 122.041 80.3373 122.287 79.9437C123.271 78.4186 123.271 76.5984 123.123 74.8765C123.025 73.6958 123.221 72.0231 122.237 71.1376C121.696 70.6456 121.155 70.2028 120.565 69.8584C119.827 69.4157 119.04 69.0713 118.154 68.9237C116.678 68.6777 115.399 69.0221 114.169 69.8093C112.939 70.6456 112.595 72.0723 112.349 73.4498C112.103 75.0241 112.005 76.6967 112.644 78.1726C112.89 78.8122 113.284 79.3534 113.579 79.9929C113.825 80.5833 114.218 81.0752 114.317 81.7148C114.415 82.3051 114.366 82.9447 114.317 83.5842C114.218 84.7158 114.169 87.3724 112.644 87.4216C112.3 87.4216 112.005 87.3232 111.66 87.274C111.857 87.52 111.906 88.0611 112.005 88.3563C112.152 88.7991 112.3 89.1926 112.595 89.5862C113.136 90.3242 113.923 90.8653 114.809 91.1605C116.137 91.6033 117.564 91.5049 118.941 91.3573C120.614 91.1605 122.533 90.7177 123.615 89.3402C124.008 88.8483 124.5 88.0119 124.5 87.3232C124.451 87.2248 124.402 87.2248 124.304 87.2248Z" fill="#9BACD3"/>
<path d="M129.272 99.6714C132.47 104.837 134.192 109.363 134.93 115.414" stroke="#565A6A" stroke-miterlimit="10"/>
<path d="M104.674 99.1304C103.001 101.393 101.87 112.02 103.001 115.365" stroke="#565A6A" stroke-miterlimit="10"/>
<path d="M133.208 129.977H98.5738C97.9342 129.977 97.3931 129.435 97.3931 128.796V107.937C97.3931 107.297 97.9342 106.756 98.5738 106.756H133.159C133.798 106.756 134.34 107.297 134.34 107.937V128.747C134.389 129.435 133.848 129.977 133.208 129.977Z" fill="#FBFFFA"/>
<path d="M129.666 128.353C137.291 125.45 145.704 123.187 153.477 125.696C155.002 126.188 156.527 126.926 157.363 128.255C158.642 130.272 157.855 133.076 156.232 134.798C154.608 136.52 152.247 137.405 149.984 138.143C141.571 140.849 132.814 142.325 124.057 143.751C119.974 144.44 115.891 145.08 111.758 145.227C108.954 145.326 107.872 142.325 108.364 139.816C108.807 137.7 110.824 136.962 112.545 136.028C118.105 133.125 123.811 130.567 129.666 128.353Z" fill="#6F7386"/>
<path d="M114.464 143.702C113.923 144.243 102.706 147.048 102.706 147.048L102.165 141.046L111.119 138.635L114.464 143.702Z" fill="#E5E9F4"/>
<path d="M102.608 147.687C100.689 148.081 98.7704 147.638 96.655 147.441C94.8347 147.244 92.9653 147.54 91.145 147.244C87.9964 146.654 85.143 142.226 88.2424 139.767C89.1279 139.029 90.3579 138.881 91.4894 138.979C92.6209 139.078 93.7032 139.521 94.7855 139.865C96.409 140.406 98.1801 140.701 99.7052 141.39C100.394 141.734 101.033 141.98 101.821 141.98C102.017 141.98 103.936 141.734 103.838 141.488C104.33 143.259 104.034 145.178 104.772 146.9C104.084 147.294 103.346 147.54 102.608 147.687Z" fill="#565A6A"/>
<path d="M119.531 147.589L131.289 149.261L132.962 143.112L121.745 140.308L119.531 147.589Z" fill="#E5E9F4"/>
<path d="M124.549 149.458C124.992 148.277 125.386 147.097 125.73 145.867C126.271 144.047 126.665 142.226 127.255 140.455C123.074 138.438 118.597 136.913 114.267 135.142C111.168 133.863 108.118 132.584 105.018 131.305C100.099 129.238 94.9332 126.533 89.5708 125.647C86.5698 125.155 83.372 125.401 80.7154 126.926C79.3871 127.713 78.1572 128.992 78.0096 130.567C77.8129 133.174 80.6662 134.847 83.1261 135.88C96.3599 141.292 109.938 145.768 123.811 149.311C124.156 149.409 124.353 149.458 124.549 149.458Z" fill="#6F7386"/>
<path d="M147.081 152.312C146.147 150.147 143.982 148.523 142.26 146.998C140.538 145.424 138.816 143.801 137.685 141.734C137.439 141.292 137.193 140.8 136.848 140.455C136.307 139.963 135.471 139.816 134.733 139.914C133.995 140.012 133.306 140.357 132.667 140.75C131.929 141.193 131.142 141.538 130.502 142.079C130.404 142.177 130.305 142.275 130.256 142.325C130.305 142.374 130.6 143.653 130.6 143.85C130.699 144.834 130.748 145.818 130.699 146.802C130.65 147.835 130.502 148.868 130.256 149.852C131.289 149.95 132.519 149.999 132.716 150.048C135.323 150.344 137.242 151.672 139.111 153.295C139.554 153.689 140.046 154.083 140.489 154.525C141.522 155.46 142.703 156.247 144.08 156.395C145.458 156.542 146.983 155.854 147.376 154.525C147.475 153.787 147.376 153 147.081 152.312Z" fill="#565A6A"/>
<path d="M118.056 117.628C118.056 118.809 117.072 119.793 115.891 119.793C114.71 119.793 113.726 118.809 113.726 117.628C113.726 116.448 114.71 115.464 115.891 115.464C117.072 115.464 118.056 116.448 118.056 117.628Z" fill="#565A6A"/>
<path d="M111.463 68.9729C111.463 68.8745 111.414 68.7761 111.365 68.6777C110.873 67.0051 111.463 65.6768 113.185 65.48C114.12 65.3816 114.759 64.8404 115.596 64.496C116.186 64.2501 116.826 64.1025 117.416 63.9057C118.99 63.4137 120.761 63.5121 122.237 64.2993C123.024 64.742 123.516 65.3324 123.762 66.2671C123.91 66.8575 123.91 67.5462 124.008 68.1366C124.156 68.7761 124.451 69.4157 125.041 69.6617C125.287 69.7601 125.533 69.8093 125.73 69.9568C126.124 70.3012 126.321 71.3835 126.419 71.8755C126.566 72.7118 126.222 73.6958 125.878 74.4337C125.681 74.8765 125.337 75.2209 125.041 75.6636C124.697 76.1556 124.402 76.6476 124.057 77.1395C123.91 77.3363 123.811 77.5331 123.664 77.6807C123.516 77.7791 123.369 77.8775 123.221 77.9759C123.123 78.0251 122.926 78.1234 122.828 78.0251C122.729 77.9267 122.778 77.7791 122.828 77.6315C123.024 77.1887 123.172 76.8443 123.172 76.4016C123.172 75.9096 123.221 75.4176 123.074 74.9257C122.926 74.2861 122.631 73.745 122.434 73.0562C122.09 71.8263 121.155 70.744 119.974 70.2028C119.335 69.9568 118.547 69.7601 118.006 70.3012C117.662 70.6456 117.465 71.0884 117.219 71.4819C116.973 71.8755 116.58 72.2691 116.137 72.3183C115.645 72.3675 115.251 72.0723 114.759 71.9739C111.758 71.3835 112.496 75.7128 112.496 77.2379C111.906 77.4347 111.414 76.8443 111.119 76.3032C109.938 74.3353 109.299 71.9247 111.119 70.0552C111.217 69.9568 111.365 69.8093 111.463 69.6617C111.562 69.4649 111.512 69.2189 111.463 68.9729Z" fill="#565A6A"/>
<path d="M116.383 78.2219C116.973 78.9599 118.055 79.2059 118.892 78.8123" stroke="#565A6A" stroke-miterlimit="10"/>
<path d="M123.615 73.7942C123.123 73.6958 122.68 73.9417 122.434 74.3353C122.336 74.3845 122.287 74.4829 122.237 74.5813C121.893 75.1225 121.991 75.9588 122.582 76.254H122.631C122.828 76.4016 123.172 76.4508 123.418 76.3032C123.467 76.3032 123.516 76.254 123.566 76.2048C123.91 76.0572 124.205 75.762 124.353 75.4668C124.697 74.7781 124.353 73.9417 123.615 73.7942Z" fill="#9BACD3"/>
<path d="M113.628 75.3685C113.579 74.3845 112.3 73.9418 111.513 74.4829C110.922 74.8765 110.775 75.6636 111.217 76.3032C112.005 77.3363 113.284 77.0411 113.579 75.762C113.628 75.6144 113.628 75.4669 113.628 75.3685Z" fill="#9BACD3"/>
<path d="M125.583 87.0771C125.435 88.6514 124.402 90.0781 123.074 90.9145C121.745 91.7508 120.122 92.0952 118.548 92.1936C116.777 92.292 114.956 92.1444 113.431 91.308C111.906 90.4717 110.676 88.8482 110.627 87.1263" stroke="#6F7386" stroke-miterlimit="10"/>
<path d="M114.218 134.994C118.547 136.962 122.68 138.832 127.107 140.603" stroke="#565A6A" stroke-miterlimit="10"/>
<defs>
<linearGradient id="paint0_linear_713_100" x1="103.913" y1="66.384" x2="103.913" y2="46.6823" gradientUnits="userSpaceOnUse">
<stop stop-color="white" stop-opacity="0.3"/>
<stop offset="1" stop-color="white"/>
</linearGradient>
<linearGradient id="paint1_linear_713_100" x1="129.727" y1="90.8768" x2="129.727" y2="71.1751" gradientUnits="userSpaceOnUse">
<stop stop-color="white" stop-opacity="0.3"/>
<stop offset="1" stop-color="white"/>
</linearGradient>
</defs>
</svg>
