<svg xmlns="http://www.w3.org/2000/svg" xmlns:xlink="http://www.w3.org/1999/xlink" viewBox="0 0 60.33 60.33"><defs><style>.cls-1{isolation:isolate;}.cls-2{fill:url(#linear-gradient);}.cls-3{fill:url(#linear-gradient-2);}.cls-4,.cls-8{fill:#231f20;}.cls-4{opacity:0.2;}.cls-4,.cls-7{mix-blend-mode:multiply;}.cls-5{fill:url(#linear-gradient-3);}.cls-6{fill:url(#linear-gradient-4);}.cls-7{opacity:0.3;}.cls-9{fill:#fff;}</style><linearGradient id="linear-gradient" x1="17.2" y1="16.05" x2="40.92" y2="44.3" gradientUnits="userSpaceOnUse"><stop offset="0" stop-color="#fff"/><stop offset="1" stop-color="#ffbf00"/></linearGradient><linearGradient id="linear-gradient-2" x1="44.87" y1="51.34" x2="8.33" y2="26.19" gradientUnits="userSpaceOnUse"><stop offset="0" stop-color="#f8003c"/><stop offset="1" stop-color="#ff8438"/></linearGradient><linearGradient id="linear-gradient-3" x1="17.36" y1="0.17" x2="14.69" y2="12.21" gradientUnits="userSpaceOnUse"><stop offset="0" stop-color="#00d5c9"/><stop offset="1" stop-color="#fff"/></linearGradient><linearGradient id="linear-gradient-4" x1="14.83" y1="-0.06" x2="15.26" y2="17.31" gradientUnits="userSpaceOnUse"><stop offset="0" stop-color="#0099ac"/><stop offset="1" stop-color="#00d5c9"/></linearGradient></defs><g class="cls-1"><g id="Layer_2" data-name="Layer 2"><g id="Layer_1-2" data-name="Layer 1"><path class="cls-2" d="M58.06,24.91c-5-8.13-11.22-8.81-13.82-9.17C37,14.89,31.36,19.6,30.69,20.2l-.45.4s-.78.77-2.62,2.76c-.53.63-4.54,5.46-5.88,7.3s-3.95,5.76-4.26,6.21-.54,1.05-.34,1.23.72.11,1.37-.41c.49-.4,1.95-1.94,2.28-2.19s.9-.63,1.1-.34-.13.79-.58,1.44S19,39.42,18.66,39.78s-1.21,1.68-1,2,.76.13,1.46-.4,3.52-3.39,3.76-3.66.56-.45.65-.38,0,.34-.13.49-.27.48-1.15,1.78c-.42.51-2.37,3.65-2.73,4.16s-.56,1.68-.33,1.79c.47.27,1-.4,1.74-1.16.45-.45,3.07-4.08,3.45-4.59s1-1.3,1.24-1.15-.09.81-.61,1.79c-.22.37-1.66,3.21-2,4s-.29,1.68,0,1.76c.88.14,1.62-1.21,1.95-1.85s1.66-3.05,2.24-4,1-1,1.23-.92.16.63.05,1-.92,2.68-1.19,3.56,0,1.57.27,1.7c.85.27,1.14-.2,1.46-1s2.28-4.74,3.45-7.5a88,88,0,0,1,5.28-9.61c.9-1.26,1.41-1.21,1.66-1.1s.27.7.07,1.26c0,.22-.72,1.61-.9,2.08s-.27,1.12-.15,1.17c.4.11.66-.39.89-.79s1.54-3,1.95-3.72.92-1.18,1.21-1,.13.92-.18,1.93S41.24,30.19,41,30.89s-.34,1.25-.21,1.27c.34.09.46-.27,1-1.19.35-.51,1.58-3.13,2-4s1.1-1,1.3-.87.11,1.14-.09,1.68c-.17.38-1,2.61-1.45,3.76-.31.65-.45,1.7-.29,1.75.44.08.56-.38,1-1,.25-.38,1.41-2.84,1.91-3.62s1-.88,1.2-.63.07,1-.26,2l-2.4,5.35c-.4.83-.2,1.33-.05,1.35a1.44,1.44,0,0,0,1.1-.61c.27-.35,1.17-1.57,1.86-2.55s1.08-1,1.37-.88.51.72.17,1.75c-1.18,2.94-2.55,4.91-5.62,8.9a34.21,34.21,0,0,1-11.76,9.67c-4.65,2.64-11.37,2.58-14.41,2.39-.32,0-.65-.06-1-.1,5.86,5.88,13.64,5,16.27,4.83a35,35,0,0,0,18.79-9.34c7.24-7.25,7.8-11.93,8.56-15.09C61,31,59.46,27.89,58.06,24.91Z"/><path class="cls-3" d="M14.38,54.83a10.41,10.41,0,0,0,3,.62c3,.19,9.76.25,14.41-2.39a34.21,34.21,0,0,0,11.76-9.67c3.07-4,4.44-6,5.62-8.9.34-1,.12-1.68-.17-1.75s-.76,0-1.37.88-1.59,2.2-1.86,2.55a1.44,1.44,0,0,1-1.1.61c-.15,0-.35-.52.05-1.35l2.4-5.35c.33-1,.49-1.66.26-2s-.69-.14-1.2.63S44.54,32,44.29,32.36c-.4.57-.52,1-1,1-.16-.05,0-1.1.29-1.75.47-1.15,1.28-3.38,1.45-3.76.2-.54.29-1.5.09-1.68s-.83,0-1.3.87-1.7,3.47-2,4c-.56.92-.68,1.28-1,1.19-.13,0,0-.69.21-1.27s1-2.36,1.32-3.27.47-1.71.18-1.93-.88.36-1.21,1-1.79,3.45-1.95,3.72-.49.9-.89.79c-.12-.05,0-.7.15-1.17s.85-1.86.9-2.08c.2-.56.18-1.15-.07-1.26s-.76-.16-1.66,1.1a88,88,0,0,0-5.28,9.61c-1.17,2.76-3.14,6.72-3.45,7.5s-.61,1.26-1.46,1c-.31-.13-.52-.83-.27-1.7S28.39,41,28.5,40.59s.2-.94-.05-1-.76.14-1.23.92-1.92,3.32-2.24,4-1.07,2-1.95,1.85c-.31-.08-.4-1,0-1.76s1.82-3.65,2-4c.52-1,.89-1.65.61-1.79s-.88.68-1.24,1.15S21.42,44,21,44.44c-.74.76-1.27,1.43-1.74,1.16-.23-.11,0-1.28.33-1.79s2.31-3.65,2.73-4.16c.88-1.3,1.08-1.68,1.15-1.78s.22-.42.13-.49-.42.11-.65.38S19.76,41,19.16,41.42s-1.21.76-1.46.4.63-1.68,1-2,2.27-2.65,2.65-3.18.78-1.15.58-1.44-.78.09-1.1.34S19,37.29,18.51,37.69c-.65.52-1.06.74-1.37.41s.11-.92.34-1.23,3-4.51,4.26-6.21,5.35-6.67,5.88-7.3c1.84-2,2.62-2.76,2.62-2.76a17.35,17.35,0,0,0-9.06-4.72c-3.19-.34-7.78-1.41-15,4.34A19,19,0,0,0,0,32.19c-.07,2.39-.27,8,3,13.28C5.06,48.36,7.36,52.23,14.38,54.83Z"/><circle class="cls-4" cx="15.05" cy="13.77" r="10.82"/><circle class="cls-5" cx="15.05" cy="10.6" r="10.6"/><circle class="cls-6" cx="15.05" cy="8.66" r="8.66"/><g class="cls-7"><path class="cls-8" d="M18.86,12.14a2.51,2.51,0,0,1-2.35,1.62v1.07a.36.36,0,0,1-.36.36h-.71a.36.36,0,0,1-.36-.36V13.76a3.14,3.14,0,0,1-1.93-.67.35.35,0,0,1,0-.54l.78-.76a.35.35,0,0,1,.43,0,1.29,1.29,0,0,0,.76.24h1.48a.67.67,0,0,0,.66-.66.65.65,0,0,0-.47-.63L14.46,10a2.56,2.56,0,0,1-1.87-2.15A2.45,2.45,0,0,1,15,5.2h.06V4.13a.36.36,0,0,1,.36-.36h.71a.36.36,0,0,1,.36.36V5.2a3.09,3.09,0,0,1,1.92.67.36.36,0,0,1,0,.55l-.77.75a.35.35,0,0,1-.44,0A1.37,1.37,0,0,0,16.5,7H15a.66.66,0,0,0-.18,1.29L17.25,9A2.44,2.44,0,0,1,18.86,12.14Z"/></g><path class="cls-9" d="M18.12,11.31a2.53,2.53,0,0,1-2.36,1.63V14a.36.36,0,0,1-.36.36h-.71a.36.36,0,0,1-.36-.36V12.94a3.14,3.14,0,0,1-1.93-.67.37.37,0,0,1,0-.55l.78-.75a.34.34,0,0,1,.43-.05,1.4,1.4,0,0,0,.77.24h1.47A.66.66,0,0,0,16,9.87L13.71,9.2A2.54,2.54,0,0,1,11.85,7a2.44,2.44,0,0,1,2.43-2.66h.05V3.31A.36.36,0,0,1,14.69,3h.71a.36.36,0,0,1,.36.36V4.38a3.14,3.14,0,0,1,1.93.67.36.36,0,0,1,0,.54L17,6.35a.34.34,0,0,1-.43.05,1.32,1.32,0,0,0-.77-.24H14.28a.66.66,0,0,0-.19,1.29l2.41.71A2.44,2.44,0,0,1,18.12,11.31Z"/></g></g></g></svg>