<svg xmlns="http://www.w3.org/2000/svg" xmlns:xlink="http://www.w3.org/1999/xlink" viewBox="0 0 54.66 50.22"><defs><style>.cls-1{isolation:isolate;}.cls-2{fill:url(#linear-gradient);}.cls-3{fill:url(#linear-gradient-2);}.cls-4{opacity:0.2;mix-blend-mode:multiply;}.cls-5{fill:#fff;}</style><linearGradient id="linear-gradient" x1="9.96" y1="35.33" x2="36.07" y2="-1.25" gradientUnits="userSpaceOnUse"><stop offset="0" stop-color="#f8003c"/><stop offset="1" stop-color="#ff8438"/></linearGradient><linearGradient id="linear-gradient-2" x1="1.09" y1="47.08" x2="42.29" y2="30.14" gradientUnits="userSpaceOnUse"><stop offset="0.16" stop-color="#0099ac"/><stop offset="1" stop-color="#00d5c9"/></linearGradient></defs><g class="cls-1"><g id="Layer_2" data-name="Layer 2"><g id="Layer_1-2" data-name="Layer 1"><path class="cls-2" d="M54.66,18.46l-11.35.92V5.18A5.18,5.18,0,0,0,38.13,0H5.18A5.18,5.18,0,0,0,0,5.18V28.74l14.71,9Z"/><path class="cls-3" d="M14.77,47.67,0,28.74V45a5.18,5.18,0,0,0,5.18,5.18h33A5.18,5.18,0,0,0,43.31,45V32.34L54.66,18.6Z"/><g class="cls-4"><rect x="16.69" y="8.65" width="17.77" height="2.45"/><circle cx="11.09" cy="9.87" r="2.24"/><rect x="16.69" y="17.37" width="17.77" height="2.45"/><circle cx="11.09" cy="18.6" r="2.24"/><rect x="16.69" y="26.1" width="12.29" height="2.45"/><circle cx="11.09" cy="27.32" r="2.24"/></g><rect class="cls-5" x="16.69" y="6.16" width="17.77" height="2.45"/><circle class="cls-5" cx="11.09" cy="7.39" r="2.24"/><rect class="cls-5" x="16.69" y="14.89" width="17.77" height="2.45"/><circle class="cls-5" cx="11.09" cy="16.11" r="2.24"/><rect class="cls-5" x="16.69" y="23.61" width="12.29" height="2.45"/><circle class="cls-5" cx="11.09" cy="24.84" r="2.24"/></g></g></g></svg>