<svg xmlns="http://www.w3.org/2000/svg" xmlns:xlink="http://www.w3.org/1999/xlink" viewBox="0 0 59.75 51.92"><defs><style>.cls-1{isolation:isolate;}.cls-2{fill:none;}.cls-3{fill:url(#linear-gradient);}.cls-4,.cls-6{opacity:0.49;mix-blend-mode:multiply;}.cls-4{fill:url(#linear-gradient-2);}.cls-5{fill:url(#linear-gradient-3);}.cls-6{fill:url(#linear-gradient-4);}.cls-7{fill:url(#linear-gradient-5);}.cls-8{fill:url(#linear-gradient-6);}.cls-9{fill:#252525;}.cls-10{fill:url(#linear-gradient-7);}</style><linearGradient id="linear-gradient" x1="15.82" y1="18.7" x2="20.26" y2="9.9" gradientUnits="userSpaceOnUse"><stop offset="0" stop-color="#44a6ff"/><stop offset="1" stop-color="#1bc1ff"/></linearGradient><linearGradient id="linear-gradient-2" x1="20.35" y1="18.53" x2="19.73" y2="9.69" gradientUnits="userSpaceOnUse"><stop offset="0"/><stop offset="0.14" stop-color="#303030"/><stop offset="0.38" stop-color="#797979"/><stop offset="0.59" stop-color="#b2b2b2"/><stop offset="0.77" stop-color="#dcdcdc"/><stop offset="0.92" stop-color="#f6f6f6"/><stop offset="1" stop-color="#fff"/></linearGradient><linearGradient id="linear-gradient-3" x1="44.75" y1="17.55" x2="37.88" y2="7.91" gradientUnits="userSpaceOnUse"><stop offset="0" stop-color="#47b2d4"/><stop offset="1" stop-color="#00d5c9"/></linearGradient><linearGradient id="linear-gradient-4" x1="43.74" y1="18.56" x2="37.26" y2="7.69" xlink:href="#linear-gradient-2"/><linearGradient id="linear-gradient-5" y1="22.21" x2="58.3" y2="22.21" gradientUnits="userSpaceOnUse"><stop offset="0" stop-color="#f8003c"/><stop offset="1" stop-color="#ff8438"/></linearGradient><linearGradient id="linear-gradient-6" x1="18.83" y1="27.07" x2="18.83" y2="46.06" gradientUnits="userSpaceOnUse"><stop offset="0" stop-color="#00d5c9"/><stop offset="1" stop-color="#0099ac"/></linearGradient><linearGradient id="linear-gradient-7" x1="56.67" y1="47.89" x2="47.45" y2="39.43" xlink:href="#linear-gradient-5"/></defs><g class="cls-1"><g id="Layer_2" data-name="Layer 2"><g id="Layer_1-2" data-name="Layer 1"><path class="cls-2" d="M11.68,25.44a2.19,2.19,0,0,0,0-4.38h0a2.19,2.19,0,0,0-2.18,2.19h0A2.19,2.19,0,0,0,11.68,25.44Z"/><path class="cls-2" d="M17.09,31H14.42l-.2,0a1,1,0,0,0-.78.82,1,1,0,0,0,0,.35L15.67,43a2.23,2.23,0,0,0,2.19,1.78h1.05A1.25,1.25,0,0,0,20,43.36L19.14,36l-.43-3.6A1.63,1.63,0,0,0,17.09,31Z"/><path class="cls-3" d="M23.86,7.6a3.82,3.82,0,1,0-4.31-3.25,4.59,4.59,0,0,0,.24.9L12.43,17.41h5.7Z"/><path class="cls-4" d="M23.86,7.6a3.82,3.82,0,1,0-4.31-3.25,4.59,4.59,0,0,0,.24.9L12.43,17.41h5.7Z"/><path class="cls-5" d="M38.49,5.25a3.82,3.82,0,1,0-5,2.1,4.09,4.09,0,0,0,.91.25l5.73,9.81h5.68Z"/><path class="cls-6" d="M38.49,5.25a3.82,3.82,0,1,0-5,2.1,4.09,4.09,0,0,0,.91.25l5.73,9.81h5.68Z"/><path class="cls-7" d="M4,27H31.86a4.76,4.76,0,0,1,.32-.51,8.19,8.19,0,0,1,1.89-2,5.94,5.94,0,0,1,1.94-1,4.93,4.93,0,0,1,3.77.39,5,5,0,0,1,3.71-3.45l.54-.16,1.12,0h.59l1.12,0,.54.16a5,5,0,0,1,3.72,3.45,4.93,4.93,0,0,1,3.77-.38,5.82,5.82,0,0,1,1.94,1c.25.2.53.44.8.7A4,4,0,0,0,58.3,23V21.43a4,4,0,0,0-4-4H4a4,4,0,0,0-4,4V23a4,4,0,0,0,4,4Zm5.48-3.76a2.19,2.19,0,0,1,2.18-2.19h0a2.19,2.19,0,1,1-2.19,2.19Z"/><path class="cls-8" d="M32.45,49a4.7,4.7,0,0,1-1-3.83,6.74,6.74,0,0,1,.17-.75,5,5,0,0,1,.47-1,5,5,0,0,1-1-.3v.14a1.64,1.64,0,0,1-.66,1.24,1.6,1.6,0,0,1-1,.32h-.88A1.62,1.62,0,0,1,27,43.2L27,41.84l-.38-9.56A1.23,1.23,0,0,1,27.79,31h2.54a1.25,1.25,0,0,1,1.22,1l.17-.06a5,5,0,0,1,0-4.56,3.72,3.72,0,0,1,.19-.34h-28L7,45.6a5.84,5.84,0,0,0,5.73,4.83H33.84A11.88,11.88,0,0,1,32.45,49ZM18.91,44.75H17.86A2.23,2.23,0,0,1,15.67,43l-2.22-10.8a1,1,0,0,1,0-.35,1,1,0,0,1,.78-.82l.2,0h2.67a1.63,1.63,0,0,1,1.62,1.45l.43,3.6L20,43.36A1.25,1.25,0,0,1,18.91,44.75Z"/><path class="cls-9" d="M55.94,40.46c.58,0,1.17-.06,1.76-.08A2.1,2.1,0,0,0,58.84,40a1.79,1.79,0,0,0,.75-1.21.22.22,0,0,1,0-.08,2.6,2.6,0,0,0,.1-.5c0-.26,0-.53,0-.79V37.3c0-.21,0-.42-.06-.62a2.08,2.08,0,0,0-.58-1.31,2,2,0,0,0-1.37-.57l-1.68,0a1.75,1.75,0,0,1-1.58-1.09c0-.12,0-.23,0-.35A1.63,1.63,0,0,1,55,32.08c.39-.39.78-.77,1.15-1.17a1.88,1.88,0,0,0,.34-2.19,4.19,4.19,0,0,0-.31-.5h0A4.87,4.87,0,0,0,54.91,27a2.61,2.61,0,0,0-.9-.48,1.78,1.78,0,0,0-1.73.35,8.28,8.28,0,0,0-.68.64,10.2,10.2,0,0,1-.82.79,1.56,1.56,0,0,1-1.64.21,1.59,1.59,0,0,1-.81-1,3.59,3.59,0,0,1,0-.73c0-.44,0-.89,0-1.33a2,2,0,0,0-1.12-1.78,4.89,4.89,0,0,0-.68-.21l-.08,0H44.53l-.08,0a5,5,0,0,0-.69.21,2,2,0,0,0-1.12,1.78c0,.44,0,.89,0,1.33a4.48,4.48,0,0,1,0,.73,1.6,1.6,0,0,1-.82,1,1.56,1.56,0,0,1-1.64-.21c-.29-.24-.54-.52-.81-.79s-.44-.45-.68-.64a1.79,1.79,0,0,0-1.73-.35A2.52,2.52,0,0,0,36,27a4.91,4.91,0,0,0-1.23,1.26h0a3.21,3.21,0,0,0-.31.5,1.88,1.88,0,0,0,.33,2.19c.37.4.76.78,1.15,1.17a1.63,1.63,0,0,1,.53,1.26,2.11,2.11,0,0,1-.05.35,1.74,1.74,0,0,1-1.58,1.09l-1.68,0a1.91,1.91,0,0,0-1.36.57,2.09,2.09,0,0,0-.59,1.31l-.06.62v.15c0,.26,0,.53.05.79a2.61,2.61,0,0,0,.11.5.22.22,0,0,0,0,.08A1.77,1.77,0,0,0,32.05,40a2.1,2.1,0,0,0,1.14.35c.59,0,1.18,0,1.77.08a1.64,1.64,0,0,1,1.37.83,1.75,1.75,0,0,1-.13,2c-.36.38-.71.78-1.07,1.16a2.24,2.24,0,0,0-.54.85A1.76,1.76,0,0,0,34.85,47a8.2,8.2,0,0,0,1.53,1.47,1.62,1.62,0,0,0,.69.32,1.93,1.93,0,0,0,1.65-.5c.43-.4.85-.82,1.27-1.22a1.56,1.56,0,0,1,.64-.41,1.87,1.87,0,0,1,1.1,0l.05,0a1.8,1.8,0,0,1,.78,1.2,4.07,4.07,0,0,1,0,.61c0,.45,0,.9,0,1.35a1.77,1.77,0,0,0,1.26,1.72,4.51,4.51,0,0,0,1.59.28A4.59,4.59,0,0,0,47,51.64a1.76,1.76,0,0,0,1.25-1.72c0-.45,0-.9,0-1.35a4.08,4.08,0,0,1,0-.61,1.81,1.81,0,0,1,.79-1.2l.05,0a1.55,1.55,0,0,1,.31-.06l-1.62-1.51a8,8,0,0,1-2.41.37,7.91,7.91,0,1,1,7.92-7.91,7.78,7.78,0,0,1-.27,2l1.61,1.5A1.64,1.64,0,0,1,55.94,40.46Z"/><path class="cls-10" d="M57.12,46.39a2,2,0,0,0-.59-.86l-4.26-4.1-1.06-1-.1-.12a.62.62,0,0,1-.08-.55l.12-.47A5.8,5.8,0,0,0,49,32.85a5.38,5.38,0,0,0-3.25-1.1A6.27,6.27,0,0,0,44,32l.13.15,2.19,2.15a2.83,2.83,0,0,1,.5.64,2.58,2.58,0,0,1,.15,2.44A3.6,3.6,0,0,1,46,38.63l0,0a2.73,2.73,0,0,1-2.3.63,2.61,2.61,0,0,1-1.38-.68c-.51-.46-1-.95-1.48-1.43L40,36.38s-.09-.07-.12-.06-.21.1-.22.24c0,.31-.06.63-.07.94a5.5,5.5,0,0,0,.36,2.27,6.15,6.15,0,0,0,2.48,2.92,5.36,5.36,0,0,0,4.16.74c.35-.08.7-.2,1-.29a.84.84,0,0,1,.89.19c.33.32.68.62,1,.94,1.08,1,2.15,2.07,3.24,3.1.42.41.84.81,1.29,1.19A1.52,1.52,0,0,0,55,49a1.77,1.77,0,0,0,1.08-.23,3.12,3.12,0,0,0,.82-.8A1.71,1.71,0,0,0,57.12,46.39ZM55.2,48a1,1,0,0,1-1-.95,1,1,0,0,1,1-1,.93.93,0,0,1,1,1A1,1,0,0,1,55.2,48Z"/></g></g></g></svg>