<svg xmlns="http://www.w3.org/2000/svg" xmlns:xlink="http://www.w3.org/1999/xlink" viewBox="0 0 54 54"><defs><style>.cls-1{isolation:isolate;}.cls-2{fill:url(#linear-gradient);}.cls-3{fill:url(#linear-gradient-2);}.cls-4{fill:#f2f2f2;}.cls-5{opacity:0.2;mix-blend-mode:multiply;}.cls-6{fill:#0099ac;}.cls-7{fill:#f8003c;}.cls-8{fill:#252525;}.cls-9{fill:#fff;opacity:0.06;mix-blend-mode:screen;}</style><linearGradient id="linear-gradient" x1="33.59" y1="2.99" x2="45.34" y2="39.57" gradientUnits="userSpaceOnUse"><stop offset="0" stop-color="#f8003c"/><stop offset="1" stop-color="#ff8438"/></linearGradient><linearGradient id="linear-gradient-2" x1="22.81" y1="-0.31" x2="16.82" y2="56.89" gradientUnits="userSpaceOnUse"><stop offset="0.07" stop-color="#00d5c9"/><stop offset="0.63" stop-color="#0099ac"/></linearGradient></defs><g class="cls-1"><g id="Layer_2" data-name="Layer 2"><g id="Layer_1-2" data-name="Layer 1"><path class="cls-2" d="M54,27A27,27,0,0,1,35.48,52.64c6-2.24,19.87-18.84,6.59-32.08a15.54,15.54,0,0,0-2.43-2l0,0a18.91,18.91,0,0,0-7.09-2.84h0l-.38-.06a19.11,19.11,0,0,0-2.76-.28c8.44,0,9.23-13.09,1.89-15h0A25.87,25.87,0,0,1,34.19,1c.36.1.72.2,1.08.32A27,27,0,0,1,54,27Z"/><path class="cls-3" d="M35.48,52.64A27,27,0,1,1,31.26.33h0c7.34,1.88,6.55,14.94-1.89,15h0l-.75,0c-.51,0-1,0-1.5.05-7,.49-12.79,4.34-14.67,9.48h0c-2.77,6.64.78,17.88,16.17,16.79.42,0,.84,0,1.25,0C37,41.74,40.42,48.53,35.48,52.64Z"/><path class="cls-4" d="M35.48,52.64c4.94-4.11,1.52-10.9-5.62-11.07-.41,0-.83,0-1.25,0C13.22,42.7,9.67,31.46,12.44,24.82h0c2-5.5,8.49-9.53,16.17-9.53a20.57,20.57,0,0,1,2.38.14,21.27,21.27,0,0,1,3.16.59,17.3,17.3,0,0,1,7.92,4.54C55.35,33.8,41.44,50.4,35.48,52.64Z"/><path class="cls-5" d="M35.48,52.64c-.56.19-1.14.36-1.72.5,3.43-2.9.8-8.32-5.56-9.31-.42,0-.84-.07-1.26-.12C11.55,42.8,9.15,31.76,12.26,25.29a1.55,1.55,0,0,0-.08.23l-.06.18c0,.07,0,.13-.07.2a1.33,1.33,0,0,1-.05.19,1,1,0,0,0,0,.17,1.21,1.21,0,0,0-.05.18q-.15.63-.24,1.29c0,.05,0,.1,0,.15l0,.21a2.11,2.11,0,0,1,0,.25c0,.06,0,.12,0,.17s0,.15,0,.22a2.35,2.35,0,0,0,0,.26c-.13,6.3,4.57,13.5,17,12.62.42,0,.84,0,1.25,0C37,41.74,40.42,48.53,35.48,52.64Z"/><path class="cls-5" d="M32.51,15.65h0l-.38-.06a19.11,19.11,0,0,0-2.76-.28c8.44,0,9.23-13.09,1.89-15h0c.76.12,1.51.28,2.25.46a4.89,4.89,0,0,1,1.58.71C40.36,5.15,38.75,14.82,32.51,15.65Z"/><circle class="cls-6" cx="21.68" cy="30.15" r="1.69"/><circle class="cls-7" cx="29.37" cy="30.15" r="1.69"/><circle class="cls-8" cx="37.07" cy="30.15" r="1.69"/><path class="cls-9" d="M29.37,15.31h0l-.75,0-1.5.05C10.23,16.25,2.3,27.84,1.56,36.05A27,27,0,0,1,27,0a27.21,27.21,0,0,1,4.26.33h0C38.6,2.22,37.81,15.28,29.37,15.31Z"/><path class="cls-9" d="M12.52,49.79a27,27,0,0,1-.06-45.55C1.85,18.28,5.1,40.58,12.52,49.79Z"/></g></g></g></svg>