<svg width="54" height="48" viewBox="0 0 54 48" fill="none" xmlns="http://www.w3.org/2000/svg">
<path fill-rule="evenodd" clip-rule="evenodd" d="M5.00873 0H48.7833C49.4412 -5.87656e-08 50.0927 0.129625 50.7005 0.38147C51.3084 0.633314 51.8606 1.00244 52.3257 1.46777C52.7909 1.9331 53.1598 2.48551 53.4114 3.09344C53.6629 3.70137 53.7923 4.35292 53.792 5.01085V21.7116C53.792 22.3692 53.6624 23.0204 53.4107 23.628C53.159 24.2356 52.79 24.7876 52.3249 25.2525C51.8597 25.7175 51.3076 26.0862 50.6999 26.3377C50.0922 26.5892 49.4409 26.7185 48.7833 26.7182H33.0839L35.2326 32L25.7486 26.7182H5.00238C3.67545 26.7165 2.40341 26.1883 1.46553 25.2497C0.52764 24.311 0.000559767 23.0385 0 21.7116V5.01085C-1.18567e-07 3.68226 0.527637 2.40805 1.4669 1.46839C2.40615 0.528737 3.68014 0.000561298 5.00873 0V0Z" fill="white"/>
<path d="M2.70763 4.53685C2.8733 4.3298 3.08239 4.16164 3.32015 4.04422C3.55791 3.92681 3.81854 3.863 4.08366 3.85731C5.2 3.77969 5.84073 4.3061 6.00586 5.43656C6.69458 10.0219 7.43198 13.9143 8.21808 17.1137L13.0363 7.95151C13.4724 7.12449 14.0235 6.68698 14.6896 6.639C15.655 6.57125 16.2583 7.18588 16.4996 8.48287C16.9531 11.0476 17.6499 13.5634 18.5806 15.996C19.1592 10.4157 20.1253 6.38143 21.4787 3.8933C21.6093 3.61423 21.8136 3.37608 22.0695 3.20449C22.3254 3.03289 22.6232 2.93436 22.931 2.91949C23.432 2.87831 23.9294 3.03398 24.3176 3.35347C24.5157 3.50307 24.6785 3.69438 24.7945 3.91388C24.9104 4.13338 24.9767 4.37569 24.9887 4.62365C25.0241 4.98964 24.9504 5.35793 24.777 5.68213C23.9189 7.27409 23.2132 9.92099 22.66 13.6229C22.1138 17.1963 21.912 19.9914 22.0545 22.0081C22.1046 22.5025 22.0159 23.0009 21.7984 23.4477C21.6928 23.6732 21.5283 23.8659 21.3223 24.0057C21.1162 24.1454 20.8763 24.2269 20.6277 24.2415C20.0477 24.2839 19.4697 24.0108 18.8876 23.4265C16.844 21.3307 15.221 18.2124 14.0186 14.0717C12.6073 16.8943 11.5488 19.0056 10.8431 20.4056C9.55177 22.8895 8.4453 24.1632 7.52372 24.2267C6.92532 24.2691 6.41584 23.7666 5.99527 22.7194C4.86623 19.8446 3.65532 14.2826 2.36256 6.03355C2.31147 5.77384 2.3158 5.50627 2.37526 5.24835C2.43473 4.99043 2.54799 4.74798 2.70763 4.53685V4.53685Z" fill="#7D57A4"/>
<path d="M49.9604 7.99153C49.5972 7.33598 49.094 6.76849 48.4866 6.32943C47.8793 5.89037 47.1826 5.59051 46.4462 5.45118C46.0536 5.36818 45.6535 5.32562 45.2523 5.32416C43.1466 5.32416 41.4262 6.42004 40.0911 8.6118C38.9542 10.4756 38.3624 12.6208 38.3827 14.8039C38.3827 16.4975 38.7356 17.949 39.4412 19.1585C39.8041 19.8148 40.3074 20.3828 40.9153 20.8219C41.5231 21.2611 42.2205 21.5605 42.9575 21.6989C43.3491 21.7837 43.7486 21.827 44.1493 21.828C46.2762 21.828 47.9959 20.7321 49.3084 18.5403C50.4452 16.6632 51.0375 14.5068 51.0189 12.3122C51.0189 10.6187 50.666 9.17844 49.9604 7.99153ZM47.1872 14.0905C46.8866 15.53 46.3291 16.6146 45.5148 17.3443C44.8698 17.9243 44.2785 18.1607 43.7408 18.0534C43.203 17.9462 42.7719 17.472 42.4473 16.6309C42.1986 15.9928 42.0673 15.3151 42.0599 14.6303C42.0578 14.0885 42.1117 13.5479 42.2208 13.0172C42.4304 12.0781 42.8247 11.1901 43.3809 10.4049C44.1119 9.33086 44.8755 8.87995 45.6714 9.05213C46.2091 9.1608 46.6396 9.63359 46.9628 10.4705C47.2107 11.1079 47.3412 11.785 47.3481 12.4689C47.3508 13.0136 47.2969 13.557 47.1872 14.0905V14.0905Z" fill="#7D57A4"/>
<path d="M36.1832 7.99153C35.82 7.33598 35.3168 6.76849 34.7094 6.32943C34.102 5.89037 33.4054 5.59051 32.669 5.45118C32.2764 5.36818 31.8763 5.32562 31.475 5.32416C29.368 5.32416 27.6483 6.42004 26.316 8.6118C25.1775 10.4751 24.5849 12.6205 24.6055 14.8039C24.6055 16.4975 24.9583 17.949 25.664 19.1585C26.0263 19.8152 26.5294 20.3836 27.1374 20.8228C27.7453 21.262 28.443 21.5612 29.1803 21.6989C29.5719 21.7837 29.9714 21.827 30.3721 21.828C32.5004 21.828 34.2207 20.7321 35.5333 18.5403C36.6741 16.6642 37.2714 14.508 37.2586 12.3122C37.2586 10.6187 36.9058 9.17844 36.2001 7.99153H36.1832ZM33.4099 14.0905C33.1093 15.5329 32.5505 16.6189 31.7333 17.3485C31.0869 17.9285 30.4956 18.1649 29.9593 18.0577C29.423 17.9504 28.9933 17.4748 28.6701 16.6309C28.4213 15.9928 28.2901 15.3151 28.2827 14.6303C28.2806 14.0885 28.3345 13.5479 28.4436 13.0172C28.6549 12.0787 29.0492 11.191 29.6036 10.4049C30.3319 9.33368 31.0954 8.88418 31.8942 9.05636C32.4319 9.16503 32.8617 9.63782 33.1834 10.4747C33.4319 11.1121 33.5632 11.7891 33.5708 12.4731C33.573 13.015 33.5191 13.5555 33.4099 14.0863V14.0905Z" fill="#7D57A4"/>
<path d="M3.11412 41.1068C2.37137 41.8453 2 42.781 2 43.9141C2 45.1368 2.36815 46.1241 3.10445 46.8762C3.84076 47.6283 4.80375 48.0028 5.99344 48C6.38754 47.9904 6.7787 47.9293 7.15699 47.8184V46.0167C6.82786 46.1209 6.48574 46.1784 6.14063 46.1875C5.54973 46.1875 5.077 45.9891 4.72246 45.5923C4.36792 45.1955 4.191 44.6565 4.19172 43.9754C4.19172 43.3429 4.36756 42.8215 4.71924 42.4111C4.87987 42.2151 5.08277 42.058 5.31274 41.9516C5.54272 41.8452 5.79379 41.7922 6.04716 41.7966C6.42274 41.7992 6.79616 41.8535 7.15699 41.9577V40.1474C6.7589 40.0461 6.3494 39.9966 5.93865 40.0002C4.80053 40.0002 3.85902 40.3691 3.11412 41.1068ZM10.8582 40.0002C9.82895 40.0002 9.02496 40.3426 8.44623 41.0273C7.8675 41.712 7.581 42.6668 7.58673 43.8916C7.58673 45.2195 7.87323 46.2351 8.44623 46.9385C9.01923 47.6419 9.85223 47.9939 10.9452 47.9946C12.0017 47.9946 12.8153 47.6426 13.3862 46.9385C13.957 46.2344 14.2443 45.2467 14.2478 43.9754C14.2478 42.7012 13.9578 41.7206 13.3776 41.0338C12.7974 40.3469 11.9576 40.0024 10.8582 40.0002ZM11.7424 45.8018C11.6502 45.952 11.5198 46.0749 11.3644 46.158C11.209 46.2411 11.0343 46.2813 10.8582 46.2745C10.6916 46.2795 10.5269 46.2379 10.3827 46.1544C10.2384 46.0708 10.1203 45.9488 10.0417 45.8018C9.85473 45.4881 9.76126 44.8603 9.76126 43.9184C9.76126 42.4523 10.1312 41.7192 10.8711 41.7192C11.659 41.7192 12.0529 42.4609 12.0529 43.9442C12.0508 44.8653 11.9473 45.4845 11.7424 45.8018ZM19.7669 40.2151L19.3672 41.9212C19.2634 42.3581 19.1663 42.8058 19.0761 43.2642L18.8526 44.446C18.6377 43.2663 18.3466 41.8571 17.9791 40.2183H15.3845L14.4101 47.8141H16.3536L16.8822 42.5798L18.209 47.8141H19.5982L20.8638 42.5787L21.4128 47.8023H23.4445L22.4131 40.2151H19.7669ZM29.0624 40.2151L28.6627 41.9212C28.5588 42.3581 28.4618 42.8058 28.3715 43.2642L28.1481 44.446C27.9332 43.2663 27.6417 41.8571 27.2735 40.2183H24.68L23.7023 47.8066H25.6459L26.1734 42.5723L27.5013 47.8066H28.8894L30.1593 42.5787L30.7083 47.8023H32.7399L31.7107 40.2151H29.0624ZM35.37 44.8027H37.1964V43.2233H35.37V41.8266H37.4693V40.2151H33.3179V47.8109H37.4833V46.1854H35.37V44.8027ZM43.2634 43.6047C43.5419 43.1625 43.6428 42.6314 43.5459 42.1179C43.4491 41.6044 43.1616 41.1465 42.7413 40.8361C42.1819 40.4221 41.4191 40.2151 40.4528 40.2151H38.0613V47.8109H40.1144V44.3471H40.1477L41.8066 47.8066H43.9746L42.3351 44.3815C42.7181 44.2259 43.0427 43.9542 43.2634 43.6047ZM40.1144 43.4822V41.6784C40.6008 41.6898 40.9492 41.7715 41.1598 41.9233C41.3704 42.0752 41.4756 42.3259 41.4756 42.6754C41.4756 43.1983 41.0219 43.4672 40.1144 43.4822ZM44.7965 41.1068C44.0516 41.8453 43.6792 42.781 43.6792 43.9141C43.6792 45.1368 44.0481 46.1223 44.7858 46.8708C45.5235 47.6193 46.4865 47.9939 47.6748 47.9946C48.0701 47.9871 48.4627 47.9279 48.8426 47.8184V46.0167C48.5135 46.1209 48.1714 46.1784 47.8263 46.1875C47.2346 46.1875 46.7616 45.9891 46.407 45.5923C46.0525 45.1955 45.8745 44.6565 45.8731 43.9754C45.8731 43.3429 46.0493 42.8215 46.4016 42.4111C46.5623 42.2151 46.7652 42.058 46.9952 41.9516C47.2251 41.8452 47.4762 41.7922 47.7296 41.7966C48.1062 41.799 48.4807 41.8532 48.8426 41.9577V40.1474C48.4435 40.0458 48.0329 39.9963 47.6211 40.0002C46.4829 40.0002 45.5414 40.3691 44.7965 41.1068ZM51.4576 46.1854V44.8027H53.2841V43.2233H51.4576V41.8266H53.557V40.2151H49.4045V47.8109H53.5699V46.1854H51.4576Z" fill="white"/>
</svg>
