<svg width="365" height="169" viewBox="0 0 365 169" fill="none" xmlns="http://www.w3.org/2000/svg">
<path d="M197.081 138.285L205.533 54.891H222.207C232.514 54.891 240.301 64.3046 238.263 74.4283C238.217 74.6116 238.194 74.8177 238.148 75.0009C234.026 94.3321 221.886 126.444 226.032 138.285H197.081Z" fill="#657285"/>
<path d="M147.608 118.588C151.043 101.73 155.12 80.2918 158.052 65.1521C159.197 59.2199 164.397 54.9139 170.443 54.9139H211.282C219.115 54.9139 225.07 61.9684 223.719 69.71L213.87 127.841C212.725 134.415 206.678 138.973 200.036 138.24L158.602 133.682C151.227 132.834 146.119 125.848 147.608 118.588Z" fill="#B8C1C9"/>
<path d="M255.785 151.135C256.311 157.296 259.793 159.174 261.327 159.014C262.862 158.853 271.795 155.441 271.978 156.7C272.184 157.96 266.802 162.037 263.022 162.22C263.022 162.22 270.123 170.054 274.864 167.786C279.582 165.519 279.994 161.945 282.926 160.594C285.881 159.243 288.377 159.243 287.164 160.617C285.95 161.991 280.613 163.32 278.941 166.297C278.552 167.007 278.162 167.649 277.864 168.221L287.805 168.198C290.966 166.641 293.623 164.465 293.806 162.129C293.829 161.945 293.829 161.785 293.852 161.625C294.149 158.029 294.149 158.029 294.149 158.029C294.149 158.029 299.257 152.074 296.6 147.126C296.165 146.302 295.501 145.523 294.584 144.767C294.584 144.767 289.82 141.881 285.95 142.11C285.95 142.11 288.95 147.149 289.797 150.15C290.095 151.203 290.118 152.005 289.66 152.257C289.156 152.509 288.492 151.753 287.828 150.539C286.133 147.493 284.278 141.538 284.278 141.538C284.278 141.538 281.415 141.263 278.162 141.217C276.696 141.194 275.162 141.217 273.764 141.355C272.23 141.492 270.856 141.744 269.962 142.179C269.962 142.179 270.146 142.339 270.489 142.614C270.97 143.027 271.749 143.691 272.619 144.447C275.185 146.714 278.529 149.921 277.269 150.219C276.261 150.448 273.077 148.569 270.26 146.691C267.626 144.951 265.313 143.233 265.313 143.233C265.313 143.233 255.235 144.973 255.785 151.135Z" fill="#B8C1C9"/>
<path d="M260.732 151.295C260.732 151.295 288.125 150.241 294.172 158.075C294.172 158.075 295.501 162.083 299.623 165.725L300.265 167.465C300.265 167.465 295.523 162.472 293.829 162.152C293.806 162.175 296.463 152.463 260.732 151.295Z" fill="#B8C1C9"/>
<path d="M298.455 165.679C298.684 165.931 299.051 166.297 299.555 166.755C299.738 166.916 299.898 167.099 300.058 167.282C300.31 167.557 300.562 167.878 300.791 168.198H302.074C300.746 166.572 299.6 165.725 299.6 165.725C299.509 165.656 297.15 164.236 298.455 165.679Z" fill="#82B378"/>
<path d="M324.039 147.882C324.039 147.882 313 141.698 318.153 133.292C318.153 133.292 322.276 128.139 326.696 126.81C326.696 126.81 324.337 139.339 326.696 139.637C329.055 139.935 328.323 125.505 328.323 125.505C328.323 125.505 339.958 119.916 344.516 120.351C344.516 120.351 337.301 132.582 339.66 132.284C342.019 131.987 350.127 119.618 350.127 119.618C350.127 119.618 362.06 117.42 363.984 124.474C365.908 131.552 362.816 135.079 361.03 135.514C359.266 135.949 347.929 135.812 348.203 137.278C348.501 138.743 356.151 141.103 360.434 139.774C360.434 139.774 355.716 151.41 349.532 150.814C343.348 150.219 341.424 146.394 337.599 146.096C333.774 145.798 330.979 146.829 332.88 147.859C334.804 148.89 341.286 148.203 344.378 150.837C347.47 153.471 349.967 155.097 344.241 156.265C338.492 157.433 328.185 156.7 326.124 152.28C324.039 147.882 324.039 147.882 324.039 147.882Z" fill="#D5D6DA"/>
<path d="M358.51 126.673C358.51 126.673 327.567 136.682 324.039 147.882C324.039 147.882 324.177 152.898 321.085 158.624V160.823C321.085 160.823 324.314 153.311 326.101 152.28C326.124 152.303 319.184 142.591 358.51 126.673Z" fill="#B8C1C9"/>
<path d="M318.245 168.175H320.008C320.054 165.61 320.352 162.747 321.222 160.571C321.337 160.296 321.451 160.044 321.566 159.792C321.932 159.082 322.184 158.556 322.345 158.166C323.238 155.945 321.085 158.67 321.085 158.67C321.085 158.67 318.519 162.587 318.245 168.175Z" fill="#B8C1C9"/>
<path d="M306.472 139.362C306.472 139.362 321.039 131.208 314.236 120.145C314.236 120.145 308.808 113.343 302.967 111.602C302.967 111.602 306.082 128.116 302.967 128.505C299.852 128.895 300.837 109.861 300.837 109.861C300.837 109.861 285.492 102.486 279.468 103.059C279.468 103.059 288.973 119.183 285.881 118.794C282.766 118.404 272.093 102.097 272.093 102.097C272.093 102.097 256.357 99.1878 253.838 108.51C251.318 117.832 255.395 122.481 257.732 123.077C260.068 123.65 275.001 123.466 274.635 125.413C274.246 127.36 264.145 130.452 258.51 128.711C258.51 128.711 264.717 144.057 272.871 143.279C281.025 142.5 283.545 137.461 288.607 137.071C293.645 136.682 297.333 138.033 294.814 139.408C292.294 140.759 283.751 139.843 279.674 143.324C275.597 146.783 272.299 148.936 279.857 150.47C287.438 152.028 301.021 151.043 303.746 145.225C306.472 139.362 306.472 139.362 306.472 139.362Z" fill="#D5D6DA"/>
<path d="M261.03 111.396C261.03 111.396 301.799 124.589 306.472 139.362C306.472 139.362 306.289 145.958 310.366 153.54V156.448C310.366 156.448 306.082 146.554 303.769 145.18C303.746 145.18 312.885 132.353 261.03 111.396Z" fill="#B8C1C9"/>
<path d="M308.694 152.852C308.9 153.356 309.22 154.066 309.724 155.005C309.885 155.326 310.045 155.67 310.182 156.036C311.58 159.541 311.854 164.35 311.809 168.175H314.145C314.42 159.701 310.343 153.517 310.343 153.517C310.297 153.448 307.525 149.967 308.694 152.852Z" fill="#B8C1C9"/>
<path d="M174.383 6.1049C174.841 5.25744 180.224 -3.69812 194.607 2.98992C194.607 2.98992 187.232 0.287217 184.484 2.73797C184.484 2.73797 191.126 1.36372 194.378 4.5245C197.631 7.68529 196.463 15.6102 195.363 17.8319C194.264 20.0765 188.492 26.1461 185.744 25.5277C184.69 25.2987 183.659 24.6802 182.766 24.0389C182.903 25.3903 182.972 26.8332 182.949 28.3907C182.72 42.8433 171.176 51.2263 167.031 47.5616C164.374 45.2025 160.847 49.9894 160.847 49.9894L143.256 10.8003C143.256 10.8003 165.656 -6.30921 174.383 6.1049Z" fill="#131F2D"/>
<path d="M133.384 87.5066C137.072 90.0719 141.699 92.1791 147.493 93.5075C169.252 98.5236 177.567 80.1544 180.705 67.5341C177.75 65.8392 174.956 65.4727 173.329 65.2666C171.749 65.0834 170.1 64.9688 168.726 64.9001C166.275 63.022 162.633 55.372 161.831 43.4846L160.801 43.7595L143.668 48.4549C143.668 48.4549 144.447 53.9061 144.837 59.0595C145.134 63.0907 145.18 66.9386 144.424 67.8777C143.096 68.1754 142.294 68.3587 142.294 68.3587C142.294 68.3587 142.294 68.3587 142.294 68.3816C142.065 68.748 137.095 76.9249 133.384 87.5066Z" fill="#FFC8BB"/>
<path d="M143.691 48.4549C143.691 48.4549 144.47 53.9061 144.859 59.0595C154.571 58.0976 159.083 48.8442 160.824 43.7595L143.691 48.4549Z" fill="#EFBBB1"/>
<path d="M138.4 50.333C138.4 50.333 160.824 55.853 164.03 41.8356C167.237 27.8181 172.299 19.0916 158.121 14.9918C143.943 10.8919 139.935 15.5873 137.713 20.0078C135.514 24.4054 132.651 48.5465 138.4 50.333Z" fill="#FFC8BB"/>
<path d="M140.164 12.3578C144.608 8.94503 147.012 10.4567 148.203 12.06C162.038 8.09757 169.871 19.6184 169.871 19.6184C169.069 30.0169 172.826 37.7357 172.826 37.7357C172.826 37.7357 168.153 39.339 159.243 34.7352C156.518 33.3381 154.411 30.6812 152.784 27.7036C155.143 34.9872 159.289 40.8049 159.289 40.8049C149.188 32.9945 148.249 16.2515 148.158 14.4879C146.509 15.404 143.187 17.4654 141.767 19.9162C139.821 23.2373 137.645 30.4521 135.56 29.7192C135.606 29.7192 133.499 17.4883 140.164 12.3578Z" fill="#131F2D"/>
<path d="M133.384 70.1452C136.522 68.4732 140.553 67.2364 144.928 66.3431C144.928 66.3431 147.196 72.1608 154.067 72.0233C160.618 71.9088 167.077 64.6711 167.695 63.9611C175.185 63.7091 180.705 63.9611 180.705 63.9611C180.705 63.9611 196.486 88.6518 194.539 94.3779C193.256 98.1571 192.248 101.868 191.447 105.486C187.782 122.344 188.927 137.003 189.866 143.874C190.233 146.531 190.553 148.02 190.553 148.02L140.851 149.165C140.851 149.165 136.728 134.506 133.682 122C133.591 121.634 133.499 121.245 133.407 120.878C131.346 125.138 125.46 131.552 122.803 132.055C122.642 132.078 121.909 132.101 120.833 132.101C116.848 132.124 109.152 132.193 109.152 132.193C107.663 120.42 126.925 72.9395 133.384 70.1452Z" fill="#AFABF6"/>
<path d="M189.866 143.874C188.927 137.003 187.759 122.321 191.447 105.486C191.424 105.28 191.424 105.189 191.424 105.189C191.424 105.189 177.819 118.175 175.482 131.758C173.856 141.011 183.659 143.439 189.866 143.874Z" fill="#8989CE"/>
<path d="M151.204 132.101C151.479 131.208 156.105 126.238 158.556 125.688C161.007 125.115 169.069 126.971 169.069 126.971C174.085 126.306 185.492 124.52 198.868 120.626C201.227 119.939 203.632 119.183 206.082 118.382L185.721 100.012L167.718 63.9382C167.718 63.9382 181.781 65.0605 185.652 67.3509C199.555 75.6422 226.536 121.703 226.055 131.735C226.055 131.735 219.527 132.101 207.594 132.239C198.432 132.353 186.156 132.697 171.131 132.307C171.131 132.307 169.459 132.605 167.718 132.376L151.204 132.101Z" fill="#FFC8BB"/>
<path d="M176.788 91.5836L203.678 118.588C201.914 119.252 200.059 120.214 198.845 120.626C198.845 120.626 200.494 127.681 207.571 132.239C219.504 132.078 226.192 132.078 226.192 132.078C226.673 122.046 200.746 73.306 186.843 65.0146C182.972 62.7013 167.695 63.9152 167.695 63.9152L176.788 91.5836Z" fill="#AFABF6"/>
<path d="M109.152 132.193C110.228 132.193 122.642 132.078 122.803 132.055C125.46 131.552 131.323 125.138 133.407 120.878C133.499 121.245 132.743 116.847 132.056 115.06C130.544 111.213 128.552 107.937 128.552 107.937C121.405 106.861 109.129 125.413 109.152 132.193Z" fill="#8989CE"/>
<path d="M109.564 120.993C111.144 108.991 114.534 88.2396 121.176 64.3275H121.222C121.612 62.8158 124.704 51.043 125.986 49.7375C127.361 48.3632 134.644 45.4773 135.881 45.1566C135.881 45.1566 136.087 45.9812 135.331 46.6454C135.102 46.8287 134.69 47.1264 134.186 47.47L135.904 48.3861C135.904 48.3861 135.263 48.9588 134.301 48.7984C133.842 48.7297 133.224 48.5694 132.697 48.4091C132.331 48.6381 131.987 48.8442 131.667 49.0275C131.117 49.5314 130.476 50.1956 130.43 50.4246C130.361 50.6995 130.132 51.9134 129.995 52.6692C130.269 52.4402 130.498 52.1883 130.636 51.9592C131.323 50.8827 132.766 50.9972 132.766 50.9972C132.766 50.9972 130.796 53.4709 130.613 55.0742C130.338 57.5249 128.964 58.8076 128.964 58.8076C128.46 59.4031 127.75 59.9299 127.154 61.1667C126.719 62.0829 126.536 63.8007 126.421 64.8085C126.124 68.4274 125.116 81.7348 125.391 91.5378C125.757 104.731 127.017 116.572 125.528 123.902C125.139 125.803 124.589 127.406 123.765 128.643C120.535 133.613 109.152 132.147 109.152 132.147C109.152 132.147 108.648 127.91 109.564 120.993Z" fill="#FFC8BB"/>
<path d="M109.152 132.193C109.152 132.193 120.512 133.636 123.765 128.688C124.566 127.452 125.139 125.848 125.528 123.947C123.1 124.566 116.412 125.596 109.587 120.993C108.648 127.91 109.152 132.193 109.152 132.193Z" fill="#599DAD"/>
<path d="M143.829 128.826C145.638 128.826 147.104 130.292 147.104 132.101H106.014V128.826H143.829Z" fill="#131F2D"/>
<path d="M106.128 87.3234H42.569L57.8003 132.101H121.772L106.128 87.3234Z" fill="#131F2D"/>
<path d="M105.189 87.3234L120.856 132.101H56.8612L41.6299 87.3234H105.189Z" fill="#131F2D"/>
<path d="M78.2767 106.219C79.9945 106.219 81.6894 107.617 82.0788 109.311C82.4682 111.029 81.4146 112.404 79.6968 112.404C77.979 112.404 76.284 111.006 75.8947 109.311C75.5053 107.594 76.5589 106.219 78.2767 106.219Z" fill="#AFABF6"/>
<path d="M45.7068 168.038H271.337L265.519 149.806C262.129 139.202 253.242 132.124 243.256 132.124H67.191C59.8616 132.124 53.4026 137.621 51.387 145.615L45.7068 168.038Z" fill="#364154"/>
<path d="M0.631226 168.038H218.245L218.657 158.853C219.321 144.332 209.106 132.124 196.256 132.124H22.1154C14.7861 132.124 8.32706 137.621 6.31148 145.615L0.631226 168.038Z" fill="#657285"/>
</svg>
