<svg xmlns="http://www.w3.org/2000/svg" xmlns:xlink="http://www.w3.org/1999/xlink" viewBox="0 0 50.24 46.56"><defs><style>.cls-1{isolation:isolate;}.cls-2{fill:#f8003c;}.cls-3{fill:#27334f;}.cls-4{fill:#fa0;}.cls-5{opacity:0.3;fill:url(#linear-gradient);}.cls-5,.cls-6,.cls-8{mix-blend-mode:multiply;}.cls-6,.cls-8{opacity:0.4;}.cls-6{fill:url(#linear-gradient-2);}.cls-7{fill:#0099ac;}.cls-8{fill:url(#linear-gradient-3);}</style><linearGradient id="linear-gradient" x1="33.43" y1="19.63" x2="39.05" y2="12.73" gradientUnits="userSpaceOnUse"><stop offset="0"/><stop offset="0.14" stop-color="#303030"/><stop offset="0.38" stop-color="#797979"/><stop offset="0.59" stop-color="#b2b2b2"/><stop offset="0.77" stop-color="#dcdcdc"/><stop offset="0.92" stop-color="#f6f6f6"/><stop offset="1" stop-color="#fff"/></linearGradient><linearGradient id="linear-gradient-2" x1="5.45" y1="40.52" x2="27.76" y2="40.52" xlink:href="#linear-gradient"/><linearGradient id="linear-gradient-3" x1="98.59" y1="1217.24" x2="120.9" y2="1217.24" gradientTransform="translate(120.9 1223.26) rotate(180)" xlink:href="#linear-gradient"/></defs><g class="cls-1"><g id="Layer_2" data-name="Layer 2"><g id="Layer_1-2" data-name="Layer 1"><path class="cls-2" d="M1.75,28.11H16.44a1.76,1.76,0,0,0,1.52-.9,1.72,1.72,0,0,0,.22-.84V20.18a1.74,1.74,0,0,0-1.74-1.75H1.75A1.75,1.75,0,0,0,0,20.18v6.19A1.74,1.74,0,0,0,1.75,28.11Z"/><path class="cls-3" d="M33.61,14.45a10.94,10.94,0,0,1,1.22-5,1,1,0,0,1,0-.17l-7.38,9a7.62,7.62,0,0,0,0,9.71L31,32.16l2.28,2.75,4.87,5.89,2.72,3.3h0l1.42,1.7a2.18,2.18,0,0,0,1.55.76h.05a2.4,2.4,0,0,0,.93-.23h0a2.58,2.58,0,0,0,.72-.48l.23-.22,3.87-3.81a2.18,2.18,0,0,0,.14-2.94L48.5,37.39l-4.21-5.06-5.87-7a3.44,3.44,0,0,1-.79-2.16c-.06-.1-.1-.2-.16-.29A11,11,0,0,1,33.61,14.45Z"/><path class="cls-4" d="M49.85,6.25A2.12,2.12,0,0,0,49.25,5L45.07.66A2.18,2.18,0,0,0,44,.05h0a3,3,0,0,0-.52,0,2.16,2.16,0,0,0-1.58.78L38.12,5.3l0,0L34.84,9.27a1,1,0,0,0,0,.17h0a11,11,0,0,0,2.64,13.39c.06.09.1.19.16.29a3.36,3.36,0,0,1,.81-2.28l10.92-13A2.19,2.19,0,0,0,49.85,6.25Z"/><path class="cls-5" d="M49.85,6.25A2.12,2.12,0,0,0,49.25,5L45.07.66A2.18,2.18,0,0,0,44,.05h0a3,3,0,0,0-.52,0,2.16,2.16,0,0,0-1.58.78L38.12,5.3l0,0L34.84,9.27a1,1,0,0,0,0,.17h0a11,11,0,0,0,2.64,13.39c.06.09.1.19.16.29a3.36,3.36,0,0,1,.81-2.28l10.92-13A2.19,2.19,0,0,0,49.85,6.25Z"/><path class="cls-2" d="M13.73,35.68h-12a1.63,1.63,0,0,0-.59.11A1.75,1.75,0,0,0,0,37.43v6.19a1.75,1.75,0,0,0,1.75,1.75h3.7a17.64,17.64,0,0,1,8.31-9.69h0"/><path class="cls-2" d="M5.45,45.37H26a1.74,1.74,0,0,0,1.74-1.75V37.43A1.74,1.74,0,0,0,26,35.68H13.76A17.64,17.64,0,0,0,5.45,45.37Z"/><path class="cls-6" d="M5.45,45.37H26a1.74,1.74,0,0,0,1.74-1.75V37.43A1.74,1.74,0,0,0,26,35.68H13.76A17.64,17.64,0,0,0,5.45,45.37Z"/><path class="cls-7" d="M25.94,1.18H22.31A17.58,17.58,0,0,1,14,10.86H26a1.62,1.62,0,0,0,.58-.11,1.72,1.72,0,0,0,1.16-1.63V2.92A1.74,1.74,0,0,0,26,1.18h-.08"/><path class="cls-7" d="M22.31,1.18H1.75A1.74,1.74,0,0,0,0,2.92v6.2a1.74,1.74,0,0,0,1.75,1.74H14A17.58,17.58,0,0,0,22.31,1.18Z"/><path class="cls-8" d="M22.31,1.18H1.75A1.74,1.74,0,0,0,0,2.92v6.2a1.74,1.74,0,0,0,1.75,1.74H14A17.58,17.58,0,0,0,22.31,1.18Z"/></g></g></g></svg>