<?xml version="1.0" encoding="utf-8"?>
<!-- Generator: Adobe Illustrator 24.0.2, SVG Export Plug-In . SVG Version: 6.00 Build 0)  -->
<svg version="1.1" id="Layer_1" xmlns="http://www.w3.org/2000/svg" xmlns:xlink="http://www.w3.org/1999/xlink" x="0px" y="0px"
	 viewBox="0 0 23.3 30" style="enable-background:new 0 0 23.3 30;" xml:space="preserve">
<style type="text/css">
	.st0{fill:#FFFFFF;}
	.st1{fill:#107DBB;stroke:#081626;stroke-width:8.213934e-02;stroke-miterlimit:10;}
	.st2{fill:none;stroke:#081626;stroke-width:8.213934e-02;stroke-miterlimit:10;}
	.st3{fill:none;stroke:#4BBEED;stroke-width:0.1643;stroke-linecap:round;stroke-linejoin:round;stroke-miterlimit:10;}
	.st4{fill:#00529A;}
	.st5{fill:#061E31;}
	.st6{fill:url(#SVGID_1_);stroke:#062138;stroke-width:0.1643;stroke-miterlimit:10;}
	.st7{fill:none;stroke:#3CC5F2;stroke-width:0.1643;stroke-miterlimit:10;}
	.st8{fill:url(#SVGID_2_);}
	.st9{fill:url(#SVGID_3_);}
	.st10{fill:url(#SVGID_4_);stroke:#062138;stroke-width:0.1643;stroke-miterlimit:10;}
	.st11{fill:url(#SVGID_5_);}
	.st12{fill:url(#SVGID_6_);}
	.st13{fill:url(#SVGID_7_);}
	.st14{fill:url(#SVGID_8_);}
	.st15{fill:url(#SVGID_9_);}
	.st16{fill:url(#SVGID_10_);}
	.st17{fill:url(#SVGID_11_);}
	.st18{fill:url(#SVGID_12_);}
	.st19{fill:none;stroke:#061E31;stroke-width:0.1643;stroke-miterlimit:10;}
	.st20{fill:none;stroke:url(#SVGID_13_);stroke-width:0.1643;stroke-miterlimit:10;}
	.st21{opacity:0.5;fill:url(#SVGID_14_);}
	.st22{opacity:0.8;fill:#57E2F7;}
	.st23{fill:#004F71;}
	.st24{fill:none;stroke:#FFFFFF;stroke-width:0.1643;stroke-linecap:round;stroke-miterlimit:10;}
	.st25{fill:url(#SVGID_15_);}
	.st26{fill:url(#SVGID_16_);}
	.st27{fill:url(#SVGID_17_);}
	.st28{fill:none;}
	.st29{fill:#4BBEED;}
	.st30{fill:#34B4E8;}
	.st31{fill:#107DBB;stroke:#081626;stroke-width:0.1643;stroke-miterlimit:10;}
	.st32{fill:none;stroke:#4BBEED;stroke-width:8.213934e-02;stroke-linecap:round;stroke-linejoin:round;stroke-miterlimit:10;}
</style>
<g>
	<path class="st0" d="M5.1,6c0,0,0.3-0.4,1.6-0.9C8,4.7,17,3.5,18.7,6.6C20.4,9.8,20.4,17,20.4,17l-0.1,1.1l-1.4,6.3l-2.4,3
		l-0.2,0.2l-1.5,1.3l-1.8,0.7L11.6,30L11.4,30l-3-1.2l-1.3-1.1l-0.4-0.4l-2.4-3.5l-0.5-4.5l-1-1.4v-2.2l0.2-2.3l0.7-5.8L5.1,6z"/>
	<g>
		<path class="st1" d="M12.4,1.9c0.1-0.4,0.4-0.7,0.7-0.8c0.2-0.1,0.4,0,0.7,0c0.6,0.1,1.1,0.5,1.5,1c0.4,0.5,0.7,1,0.9,1.6
			c0.5,1.3,0.8,2.7,0.9,4l0.8,0.7c-0.1-1.7-0.5-3.4-1.1-5c-0.3-0.7-0.6-1.3-1-1.9s-1-1.1-1.7-1.3s-1.4-0.3-2.1,0s-1.1,1-1.2,1.7
			L12.4,1.9z"/>
		<path class="st2" d="M11.2,1.8c0.2-0.8,1.1-1.4,2-1.4c0.9,0,1.7,0.4,2.3,1.1c0.3,0.3,0.5,0.6,0.7,0.9c0.9,1.5,1.4,3.3,1.7,5.1"/>
		<path class="st2" d="M11.7,1.9c0.2-0.6,0.7-0.9,1.3-1c0.6-0.1,1.2,0.1,1.7,0.4s0.8,0.8,1.1,1.3c0.8,1.5,1.1,3.2,1.3,4.9"/>
		<path class="st3" d="M11.5,1.8c0.2-0.6,0.7-1.1,1.4-1.2c0.8-0.1,1.4,0.1,1.9,0.5s0.8,0.8,1.1,1.3c0.9,1.4,1.2,3.2,1.5,4.9"/>
		<path class="st4" d="M1.6,21.6L1.6,21.6c-0.1,0-0.2,0-0.2-0.2l-1-5c0-0.1,0-0.2,0.2-0.2c0.1,0,0.2,0,0.2,0.2l1,5
			C1.8,21.5,1.7,21.6,1.6,21.6z"/>
		<path class="st5" d="M1.1,21.4L1.1,21.4c-0.1,0-0.2,0-0.2-0.2L0,16.9c0-0.1,0-0.2,0.2-0.2c0.1,0,0.2,0,0.2,0.2l0.9,4.4
			C1.3,21.3,1.2,21.4,1.1,21.4z"/>
		<linearGradient id="SVGID_1_" gradientUnits="userSpaceOnUse" x1="1.4136" y1="14.9485" x2="3.1117" y2="22.6778">
			<stop  offset="0" style="stop-color:#7799A5"/>
			<stop  offset="0.5053" style="stop-color:#EEF3F6"/>
			<stop  offset="1" style="stop-color:#3A6177"/>
		</linearGradient>
		<path class="st6" d="M3,22.7L3,22.7c-0.6,0.1-1.1-0.2-1.2-0.8L0.6,16c-0.1-0.6,0.2-1.1,0.8-1.2C2,14.7,2.5,15,2.7,15.6l1.2,5.9
			C4,22,3.6,22.6,3,22.7z"/>
		<line class="st7" x1="0.7" y1="18.1" x2="1.1" y2="18.1"/>
		<line class="st7" x1="0.7" y1="18.5" x2="1.1" y2="18.4"/>
		<line class="st7" x1="0.8" y1="18.8" x2="1.2" y2="18.7"/>
		<line class="st7" x1="0.9" y1="19.2" x2="1.3" y2="19.1"/>
		<linearGradient id="SVGID_2_" gradientUnits="userSpaceOnUse" x1="2.4094" y1="19.339" x2="2.6914" y2="20.9904">
			<stop  offset="0" style="stop-color:#E5EEF2"/>
			<stop  offset="1" style="stop-color:#7294A2"/>
		</linearGradient>
		<polygon class="st8" points="1.6,20 3.4,19.6 3.6,20.6 1.7,21 1.6,20 		"/>
		<linearGradient id="SVGID_3_" gradientUnits="userSpaceOnUse" x1="5.6083" y1="10.9663" x2="2.2902" y2="11.8251">
			<stop  offset="0" style="stop-color:#E5EEF2"/>
			<stop  offset="1" style="stop-color:#7294A2"/>
		</linearGradient>
		<path class="st9" d="M6.3,15.2c-0.3,1.1-1.6,1.6-2.7,1.4c-0.3-0.1-0.6-0.2-0.8-0.3C2.8,15,2.9,14,2.9,14l0.4-5
			c0.1-0.9,0.4-1.7,1-2.3C4.7,6.3,4.9,6,5.2,5.8c0.1,0,0.1,0,0.2-0.1C5.1,6.4,4.9,7.2,4.9,8c0,1.6,0.5,3.2,1.1,4.8
			C6.2,13.5,6.5,14.4,6.3,15.2z"/>
		<path class="st4" d="M21.7,21.6L21.7,21.6c0.1,0,0.2,0,0.2-0.2l1-5c0-0.1,0-0.2-0.2-0.2c-0.1,0-0.2,0-0.2,0.2l-1,5
			C21.5,21.5,21.6,21.6,21.7,21.6z"/>
		<path class="st5" d="M22.1,21.4L22.1,21.4c0.1,0,0.2,0,0.2-0.2l0.9-4.4c0-0.1,0-0.2-0.2-0.2c-0.1,0-0.2,0-0.2,0.2L22,21.2
			C22,21.3,22,21.4,22.1,21.4z"/>
		
			<linearGradient id="SVGID_4_" gradientUnits="userSpaceOnUse" x1="474.5286" y1="14.9485" x2="476.2266" y2="22.6778" gradientTransform="matrix(-1 0 0 1 496.3813 0)">
			<stop  offset="0" style="stop-color:#7799A5"/>
			<stop  offset="0.5053" style="stop-color:#EEF3F6"/>
			<stop  offset="1" style="stop-color:#3A6177"/>
		</linearGradient>
		<path class="st10" d="M20.2,22.7L20.2,22.7c0.6,0.1,1.1-0.2,1.2-0.8l1.2-5.9c0.1-0.6-0.2-1.1-0.8-1.2c-0.6-0.1-1.1,0.2-1.2,0.8
			l-1.2,5.9C19.3,22,19.7,22.6,20.2,22.7z"/>
		<line class="st7" x1="22.6" y1="18.1" x2="22.2" y2="18.1"/>
		<line class="st7" x1="22.5" y1="18.5" x2="22.1" y2="18.4"/>
		<line class="st7" x1="22.5" y1="18.8" x2="22.1" y2="18.7"/>
		<line class="st7" x1="22.4" y1="19.2" x2="22" y2="19.1"/>
		
			<linearGradient id="SVGID_5_" gradientUnits="userSpaceOnUse" x1="475.5243" y1="19.339" x2="475.8063" y2="20.9904" gradientTransform="matrix(-1 0 0 1 496.3813 0)">
			<stop  offset="0" style="stop-color:#E5EEF2"/>
			<stop  offset="1" style="stop-color:#7294A2"/>
		</linearGradient>
		<polygon class="st11" points="21.7,20 19.9,19.6 19.7,20.6 21.5,21 21.7,20 		"/>
		<radialGradient id="SVGID_6_" cx="11.6655" cy="4.5108" r="4.4485" gradientUnits="userSpaceOnUse">
			<stop  offset="0" style="stop-color:#00B8F0"/>
			<stop  offset="1" style="stop-color:#005886"/>
		</radialGradient>
		<path class="st12" d="M5.6,5.5C5.5,5.6,5.3,5.7,5.2,5.8c0.1,0,0.1,0,0.2-0.1c0.7-0.1,1.8-0.1,2.9,0.9c2.1,1.8,2,2.2,3.2,2.2v-5
			C11.6,3.7,8.4,3.4,5.6,5.5z M17.7,5.5c-2.8-2.1-6.1-1.8-6.1-1.8v5c1.2,0,1.2-0.4,3.2-2.2c1.1-1,2.2-1,2.9-0.9c0.1,0,0.1,0,0.2,0.1
			C17.9,5.7,17.8,5.6,17.7,5.5z"/>
		
			<linearGradient id="SVGID_7_" gradientUnits="userSpaceOnUse" x1="478.7232" y1="10.9663" x2="475.4051" y2="11.8251" gradientTransform="matrix(-1 0 0 1 496.3813 0)">
			<stop  offset="0" style="stop-color:#E5EEF2"/>
			<stop  offset="1" style="stop-color:#7294A2"/>
		</linearGradient>
		<path class="st13" d="M17,15.2c0.3,1.1,1.6,1.6,2.7,1.4c0.3-0.1,0.6-0.2,0.8-0.3c0-1.3-0.1-2.3-0.1-2.3l-0.4-5
			c-0.1-0.9-0.4-1.7-1-2.3C18.6,6.3,18.3,6,18,5.8c-0.1,0-0.1,0-0.2-0.1c0.3,0.7,0.5,1.5,0.5,2.3c0,1.6-0.5,3.2-1.1,4.8
			C17,13.5,16.7,14.4,17,15.2z"/>
		<linearGradient id="SVGID_8_" gradientUnits="userSpaceOnUse" x1="6.8759" y1="22.9026" x2="4.1433" y2="23.9176">
			<stop  offset="0" style="stop-color:#E5EEF2"/>
			<stop  offset="1" style="stop-color:#7294A2"/>
		</linearGradient>
		<path class="st14" d="M10,29.2c-0.6-0.1-1-0.2-1.2-0.3c-0.2-0.1-0.3-0.2-0.5-0.3l-1.4-1.2v0l-1.5-1.3c-0.5-0.4-0.8-0.9-1-1.5
			c-0.8-2.4-1.1-4.8-1.4-6.6c-0.1-0.3-0.1-0.7-0.1-1c0.2,0,0.3,0.1,0.5,0.1c0.7,0.3,1.2,0.7,1.8,1.2c0.3,0.2,1.4,0.9,1.4,1.3
			c0,0.4-0.8,0.8-0.9,1.2c-0.2,0.5-0.1,1.1,0,1.6c0.1,0.8,0.3,1.6,0.6,2.3c0.2,0.7,0.5,1.3,1,1.8c0.5,0.6,1.2,0.9,1.8,1.4
			C9.4,28.2,9.8,28.7,10,29.2z"/>
		<linearGradient id="SVGID_9_" gradientUnits="userSpaceOnUse" x1="11.8454" y1="16.3587" x2="-3.535" y2="21.6676">
			<stop  offset="0" style="stop-color:#FFFFFF"/>
			<stop  offset="1" style="stop-color:#A4C4D1"/>
		</linearGradient>
		<path class="st15" d="M11.6,8.8v20.5h-0.1c-0.6,0-1.2,0-1.6-0.1c-0.2-0.5-0.6-1-1-1.3c-0.6-0.5-1.3-0.8-1.8-1.4
			c-0.5-0.5-0.7-1.2-1-1.8c-0.3-0.8-0.5-1.5-0.6-2.3c-0.1-0.5-0.2-1.1,0-1.6c0.1-0.4,0.9-0.8,0.9-1.2c0-0.4-1.1-1-1.4-1.3
			c-0.6-0.4-1.1-0.9-1.8-1.2C3.1,17.1,3,17,2.8,17c0-0.3,0-0.5,0-0.7c0.3,0.1,0.5,0.2,0.8,0.3c1.1,0.2,2.4-0.3,2.7-1.4
			c0.3-0.8,0-1.6-0.3-2.4C5.4,11.2,4.9,9.6,4.9,8c0-0.8,0.2-1.6,0.5-2.3c0.7-0.1,1.8-0.1,2.9,0.9C10.4,8.3,10.4,8.8,11.6,8.8z"/>
		
			<linearGradient id="SVGID_10_" gradientUnits="userSpaceOnUse" x1="479.9908" y1="22.9026" x2="477.2582" y2="23.9176" gradientTransform="matrix(-1 0 0 1 496.3813 0)">
			<stop  offset="0" style="stop-color:#E5EEF2"/>
			<stop  offset="1" style="stop-color:#7294A2"/>
		</linearGradient>
		<path class="st16" d="M13.3,29.2c0.6-0.1,1-0.2,1.2-0.3c0.2-0.1,0.3-0.2,0.5-0.3l1.4-1.2v0l1.5-1.3c0.5-0.4,0.8-0.9,1-1.5
			c0.8-2.4,1.1-4.8,1.4-6.6c0.1-0.3,0.1-0.7,0.1-1c-0.2,0-0.3,0.1-0.5,0.1c-0.7,0.3-1.2,0.7-1.8,1.2c-0.3,0.2-1.4,0.9-1.4,1.3
			c0,0.4,0.8,0.8,0.9,1.2c0.2,0.5,0.1,1.1,0,1.6c-0.1,0.8-0.3,1.6-0.6,2.3c-0.2,0.7-0.5,1.3-1,1.8c-0.5,0.6-1.2,0.9-1.8,1.4
			C13.9,28.2,13.5,28.7,13.3,29.2z"/>
		
			<linearGradient id="SVGID_11_" gradientUnits="userSpaceOnUse" x1="484.9603" y1="16.3587" x2="469.5799" y2="21.6676" gradientTransform="matrix(-1 0 0 1 496.3813 0)">
			<stop  offset="0" style="stop-color:#FFFFFF"/>
			<stop  offset="1" style="stop-color:#A4C4D1"/>
		</linearGradient>
		<path class="st17" d="M11.6,8.8v20.5h0.1c0.6,0,1.2,0,1.6-0.1c0.2-0.5,0.6-1,1-1.3c0.6-0.5,1.3-0.8,1.8-1.4c0.5-0.5,0.7-1.2,1-1.8
			c0.3-0.8,0.5-1.5,0.6-2.3c0.1-0.5,0.2-1.1,0-1.6c-0.1-0.4-0.9-0.8-0.9-1.2c0-0.4,1.1-1,1.4-1.3c0.6-0.4,1.1-0.9,1.8-1.2
			c0.1-0.1,0.3-0.1,0.5-0.1c0-0.3,0-0.5,0-0.7c-0.3,0.1-0.5,0.2-0.8,0.3c-1.1,0.2-2.4-0.3-2.7-1.4c-0.3-0.8,0-1.6,0.3-2.4
			c0.6-1.5,1.1-3.1,1.1-4.8c0-0.8-0.2-1.6-0.5-2.3c-0.7-0.1-1.8-0.1-2.9,0.9C12.8,8.3,12.8,8.8,11.6,8.8z"/>
		<g>
			<path class="st5" d="M2.9,14.1C2.9,14.1,2.9,14.1,2.9,14.1c-0.3,1.8,0,4,0,4l3.3,2.2c0.5,0.3,1,0.4,1.5,0.3l3.9-0.8l3.9,0.8
				c0.5,0.1,1.1,0,1.5-0.3l3.3-2.2c0,0,0.3-2.2,0-4c0,0,0,0,0,0C14.6,15.3,8.7,15.3,2.9,14.1z"/>
			<linearGradient id="SVGID_12_" gradientUnits="userSpaceOnUse" x1="2.7884" y1="17.0966" x2="20.4762" y2="17.0966">
				<stop  offset="0" style="stop-color:#1F5F88"/>
				<stop  offset="0.5212" style="stop-color:#1ABDCC"/>
				<stop  offset="1" style="stop-color:#1C5B85"/>
			</linearGradient>
			<path class="st18" d="M2.9,13.9C2.9,13.9,2.9,13.9,2.9,13.9c-0.3,1.8,0,4.1,0,4.1l3.8,2.3c0.1,0.1,0.2,0.1,0.4,0.1l4.5-0.7
				l4.5,0.7c0.1,0,0.3,0,0.4-0.1l3.8-2.3c0,0,0.3-2.4,0-4.2c0,0,0,0,0,0C14.6,15.1,8.7,15.1,2.9,13.9z"/>
			<path class="st19" d="M2.9,13.8l0.4,0.1c5.5,1.1,11.1,1.1,16.6,0l0.4-0.1"/>
			<linearGradient id="SVGID_13_" gradientUnits="userSpaceOnUse" x1="2.9262" y1="14.3141" x2="20.3285" y2="14.3141">
				<stop  offset="0" style="stop-color:#4CC7ED"/>
				<stop  offset="1" style="stop-color:#1ABDCC"/>
			</linearGradient>
			<path class="st20" d="M2.9,13.9l0.4,0.1c5.5,1.1,11.1,1.1,16.6,0l0.4-0.1"/>
		</g>
		<radialGradient id="SVGID_14_" cx="11.3024" cy="17.4704" r="4.3227" gradientUnits="userSpaceOnUse">
			<stop  offset="0" style="stop-color:#FFFFFF"/>
			<stop  offset="1" style="stop-color:#FFFFFF;stop-opacity:0"/>
		</radialGradient>
		<circle class="st21" cx="11.3" cy="17.5" r="4.3"/>
		<polygon class="st22" points="12.4,19.7 11.6,19.6 10.5,19.8 10.5,14.8 12.4,14.8 		"/>
		<polygon class="st23" points="5.5,19.5 3.7,18.4 3.7,14.2 5.5,14.5 		"/>
		<polygon class="st22" points="13.4,19.9 12.8,19.8 12.8,14.8 13.4,14.8 		"/>
		<polygon class="st22" points="15.6,20.3 15,20.2 15,14.7 15.6,14.7 		"/>
		<path class="st5" d="M16.5,27.4c-2.1,2.7-4.8,2.7-4.8,2.7v-0.8h0.1c1.5,0,2.4-0.2,2.9-0.4c0.2-0.1,0.3-0.2,0.5-0.3L16.5,27.4z"/>
		<path class="st5" d="M6.8,27.4c2.1,2.7,4.8,2.7,4.8,2.7v-0.8h-0.1c-1.5,0-2.4-0.2-2.9-0.4c-0.2-0.1-0.3-0.2-0.5-0.3L6.8,27.4z"/>
		<line class="st24" x1="20.7" y1="17.5" x2="22" y2="17.6"/>
		<line class="st24" x1="2.6" y1="17.4" x2="1.3" y2="17.6"/>
		<g>
			<g>
				<radialGradient id="SVGID_15_" cx="11.6334" cy="25.4715" r="3.5791" gradientUnits="userSpaceOnUse">
					<stop  offset="0" style="stop-color:#25BDCC"/>
					<stop  offset="1" style="stop-color:#005786"/>
				</radialGradient>
				<path class="st25" d="M7.2,27.6l1-4.4c0-0.1,0.1-0.1,0.1-0.1H15c0.1,0,0.1,0,0.1,0.1l1,4.4l-0.2,0.2l-1-4.5H8.4l-1,4.5L7.2,27.6
					z"/>
			</g>
			<g>
				<radialGradient id="SVGID_16_" cx="11.6335" cy="24.5074" r="2.1356" gradientUnits="userSpaceOnUse">
					<stop  offset="0" style="stop-color:#25BDCC"/>
					<stop  offset="1" style="stop-color:#005786"/>
				</radialGradient>
				<path class="st26" d="M14.5,24.6H8.7c-0.1,0-0.1-0.1-0.1-0.1c0-0.1,0.1-0.1,0.1-0.1h5.8c0.1,0,0.1,0.1,0.1,0.1
					C14.7,24.6,14.6,24.6,14.5,24.6z"/>
			</g>
		</g>
		<linearGradient id="SVGID_17_" gradientUnits="userSpaceOnUse" x1="11.6795" y1="27.6025" x2="11.7189" y2="25.8331">
			<stop  offset="0" style="stop-color:#E5EEF2"/>
			<stop  offset="1" style="stop-color:#7294A2"/>
		</linearGradient>
		<path class="st27" d="M12.5,26.7h-1.6c-0.3,0-0.6-0.3-0.6-0.6l0,0c0-0.3,0.3-0.6,0.6-0.6h1.6c0.3,0,0.6,0.3,0.6,0.6l0,0
			C13.1,26.5,12.8,26.7,12.5,26.7z"/>
		<g>
			<path class="st28" d="M5.6,5.5C5.5,5.6,5.3,5.7,5.2,5.8c0.1,0,0.1,0,0.2-0.1c0.7-0.1,1.8-0.1,2.9,0.9c2.1,1.8,2,2.2,3.2,2.2v-5
				C11.6,3.7,8.4,3.4,5.6,5.5z"/>
			<path class="st28" d="M17.7,5.5c-2.8-2.1-6.1-1.8-6.1-1.8v5c1.2,0,1.2-0.4,3.2-2.2c1.1-1,2.2-1,2.9-0.9c0.1,0,0.1,0,0.2,0.1
				C17.9,5.7,17.8,5.6,17.7,5.5z"/>
		</g>
		<g>
			<rect x="11.6" y="4.5" class="st28" width="0" height="0.5"/>
			<polygon class="st28" points="11.6,6.1 11.6,6.7 11.6,6.7 11.6,6.1 			"/>
			<polygon class="st28" points="11.6,7.6 11.6,7.6 11.6,7 11.6,7 			"/>
			<polygon class="st29" points="11.6,7 11.6,7 11.6,6.7 11.6,6.7 			"/>
			<polygon class="st29" points="11.6,4.5 11.6,4.4 11.6,4.5 11.6,4.5 			"/>
			<rect x="11.6" y="5" class="st29" width="0" height="1.1"/>
			<polygon class="st29" points="11.6,7.6 11.6,7.9 11.6,7.9 11.6,7.6 			"/>
			<polygon class="st28" points="11.2,6.5 11.2,6.5 11.2,7.2 11.6,6.7 11.6,6.1 			"/>
			<path class="st28" d="M9.3,3.9C9.1,3.9,8.9,4,8.7,4l0.6,0.6V3.9z"/>
			<path class="st28" d="M7,4.6C6.9,4.7,6.8,4.7,6.7,4.8l0.8,0.5V6c0.2,0.1,0.5,0.2,0.7,0.4v-1L7,4.6z"/>
			<path class="st28" d="M8.6,4.1C8.3,4.1,8.1,4.2,7.9,4.3L9,5v2.1c0.1,0.1,0.2,0.2,0.3,0.3V4.8L8.6,4.1z"/>
			<path class="st28" d="M7.7,4.3C7.6,4.4,7.4,4.5,7.2,4.5l1.1,0.7v1.2c0,0,0.1,0,0.1,0.1C8.6,6.7,8.7,6.9,8.8,7V5.1L7.7,4.3z"/>
			<path class="st28" d="M10,5.8v-1h0.2v0.9l0.3,0.3V4.7L9.7,3.9l0.1-0.1c-0.1,0-0.2,0-0.3,0v3.7c0.1,0.1,0.3,0.3,0.4,0.4V6.5H10
				v1.6c0.2,0.1,0.3,0.3,0.4,0.4V6.3L10,5.8z"/>
			<path class="st28" d="M11.3,8l0.4-0.4V7l-0.4,0.4v1.4c0.1,0,0.3,0,0.4,0V7.9l-0.3,0.3L11.3,8z"/>
			<path class="st28" d="M11.2,4.8v1.5l0.4-0.4V5h0V4.5l0,0l0,0V3.7c0,0-0.7-0.1-1.8,0.1l0.7,0.7l0.7-0.7l0.1,0.1l-0.7,0.8v3.9
				c0.1,0.1,0.3,0.1,0.4,0.2V4.8H11.2z"/>
			<path class="st28" d="M6.5,4.9c-0.3,0.2-0.6,0.4-1,0.6C5.5,5.6,5.3,5.7,5.2,5.8c0.1,0,0.1,0,0.2-0.1c0.5-0.1,1.1-0.1,1.8,0.2V5.4
				L6.5,4.9z"/>
			<path class="st29" d="M7.9,4.3c-0.1,0-0.1,0-0.2,0.1l1.1,0.8V7C8.9,7,8.9,7.1,9,7.1V5L7.9,4.3z"/>
			<path class="st29" d="M7.2,4.5C7.2,4.6,7.1,4.6,7,4.6l1.1,0.7v1c0.1,0,0.1,0.1,0.2,0.1V5.3L7.2,4.5z"/>
			<path class="st29" d="M6.7,4.8c-0.1,0-0.1,0.1-0.2,0.1l0.8,0.5v0.5c0.1,0,0.1,0,0.2,0.1V5.3L6.7,4.8z"/>
			<path class="st29" d="M9.3,3.9v0.7L8.7,4c-0.1,0-0.1,0-0.2,0.1l0.8,0.8v2.6c0.1,0.1,0.1,0.1,0.2,0.2V3.9C9.4,3.9,9.4,3.9,9.3,3.9
				z"/>
			<path class="st29" d="M11.4,3.9l-0.1-0.1l-0.7,0.7L9.9,3.8c0,0-0.1,0-0.1,0L9.7,3.9l0.8,0.8v1.4l-0.3-0.3V4.8H10v1l0.5,0.5v2.2
				c0.1,0,0.1,0.1,0.2,0.1V4.7L11.4,3.9z"/>
			<polygon class="st29" points="11.3,8 11.4,8.1 11.6,7.9 11.6,7.6 			"/>
			<path class="st29" d="M11.6,7V6.7l-0.4,0.4V6.5l0,0l0.4-0.4V5h0v0.9l-0.4,0.4V4.8H11v3.9c0.1,0,0.1,0,0.2,0V7.4L11.6,7z"/>
			<polygon class="st29" points="11.6,4.5 11.6,4.5 11.6,4.5 			"/>
			<path class="st29" d="M9.9,6.5v1.4C9.9,8,10,8,10,8.1V6.5H9.9z"/>
			<path class="st28" d="M11.6,7.9v0.9c0.2,0,0.3,0,0.5,0V7.4L11.6,7.9z"/>
			<path class="st28" d="M12.8,8.5C13,8.3,13.3,8,13.7,7.6l-0.9-0.9V8.5z"/>
			<path class="st28" d="M14,3.9c-0.2,0-0.4-0.1-0.6-0.1v1.7l1.3,1.3c0.1-0.1,0.2-0.1,0.2-0.2c0,0,0.1,0,0.1-0.1l-1-1V3.9z"/>
			<polygon class="st28" points="12.1,7.2 12.1,6.5 11.6,7 11.6,7.6 			"/>
			<path class="st28" d="M17.7,5.5c-0.3-0.2-0.7-0.5-1-0.6l-0.4,0.4c0,0,0,0,0,0.1c0,0.1-0.1,0.2-0.2,0.2c-0.1,0-0.2-0.1-0.2-0.2
				c0-0.1,0.1-0.2,0.2-0.2c0,0,0.1,0,0.1,0l0.4-0.4c-0.1-0.1-0.3-0.1-0.4-0.2l-0.6,0.6v1c0.9-0.5,1.7-0.5,2.3-0.4
				c0.1,0,0.1,0,0.2,0.1C17.9,5.7,17.8,5.6,17.7,5.5z"/>
			<path class="st28" d="M13.2,3.8c-0.2,0-0.3,0-0.5,0v2.1l0.6,0.6c0,0,0.1-0.1,0.1-0.1c0.1,0,0.2,0.1,0.2,0.2
				c0,0.1-0.1,0.2-0.2,0.2s-0.2-0.1-0.2-0.2c0,0,0,0,0,0l0,0l-0.7-0.7V3.7c-0.6,0-0.9,0-0.9,0v0.7l0.1-0.1l0.4,0.4V3.8h0.2v2.3l0,0
				v1.1l0,0v1.5c0.1,0,0.2-0.1,0.4-0.1V6.3l1.2,1.2c0.2-0.2,0.4-0.4,0.7-0.6l-1.3-1.3V3.8z"/>
			<path class="st28" d="M16,4.5c-0.3-0.1-0.6-0.2-0.8-0.3v1.5L15,5.9l-0.1-0.1L15,5.7V4.1c-0.1,0-0.3-0.1-0.4-0.1v1.2h-0.2V4
				c-0.1,0-0.2,0-0.3-0.1v1.5l1,1c0.1-0.1,0.2-0.1,0.3-0.2V5.1L16,4.5z"/>
			<polygon class="st28" points="11.8,5 11.8,6 11.6,6.1 11.6,6.7 12.1,6.3 12.1,4.9 12.1,4.9 11.6,4.5 11.6,5 			"/>
			<path class="st29" d="M12.3,7.2V6.1l0,0V3.8h-0.2v0.9l-0.4-0.4l-0.1,0.1v0l0.4,0.4l0,0v1.4l-0.5,0.5V7l0.5-0.5v0.6l-0.5,0.5v0.2
				l0.5-0.5v1.4c0.1,0,0.1,0,0.2,0L12.3,7.2L12.3,7.2z"/>
			<polygon class="st29" points="11.8,6 11.8,5 11.6,5 11.6,6.1 			"/>
			<path class="st29" d="M13.2,6.6L13.2,6.6C13.2,6.6,13.2,6.6,13.2,6.6c0,0.1,0.1,0.2,0.2,0.2s0.2-0.1,0.2-0.2
				c0-0.1-0.1-0.2-0.2-0.2c-0.1,0-0.1,0-0.1,0.1l-0.6-0.6V3.7c-0.1,0-0.1,0-0.2,0v2.2L13.2,6.6z"/>
			<path class="st29" d="M12.6,8.6c0.1,0,0.1-0.1,0.2-0.1V6.7l0.9,0.9c0,0,0.1-0.1,0.1-0.1l-1.2-1.2V8.6z"/>
			<path class="st29" d="M13.3,3.8c-0.1,0-0.1,0-0.2,0v1.8l1.3,1.3c0,0,0.1-0.1,0.1-0.1l-1.3-1.3V3.8z"/>
			<path class="st29" d="M14.1,3.9c-0.1,0-0.1,0-0.2,0v1.6l1,1c0,0,0.1-0.1,0.1-0.1l-1-1V3.9z"/>
			<path class="st29" d="M14.6,5.3V4c-0.1,0-0.1,0-0.2,0v1.3H14.6z"/>
			<path class="st29" d="M14.8,5.8L15,5.9l0.2-0.2V4.2c-0.1,0-0.1,0-0.2-0.1v1.5L14.8,5.8z"/>
			<path class="st29" d="M16.1,4.6c-0.1,0-0.1,0-0.2-0.1l-0.6,0.6v1.1c0.1,0,0.1-0.1,0.2-0.1v-1L16.1,4.6z"/>
			<path class="st29" d="M16.1,5.1c-0.1,0-0.2,0.1-0.2,0.2c0,0.1,0.1,0.2,0.2,0.2c0.1,0,0.2-0.1,0.2-0.2c0,0,0,0,0-0.1l0.4-0.4
				c-0.1,0-0.1-0.1-0.2-0.1L16.1,5.1C16.1,5.2,16.1,5.1,16.1,5.1z"/>
		</g>
		<g>
			<path class="st28" d="M5.6,11.3c-0.1,0.1-0.2,0.2-0.3,0.3c0.1,0,0.1,0,0.2-0.1c0.7-0.1,1.8-0.1,2.9,0.9c2.1,1.8,2,2.2,3.2,2.2v-5
				C11.6,9.6,8.4,9.2,5.6,11.3z"/>
			<path class="st28" d="M17.7,11.3c-2.8-2.1-6.1-1.8-6.1-1.8v5c1.2,0,1.2-0.4,3.2-2.2c1.1-1,2.2-1,2.9-0.9c0.1,0,0.1,0,0.2,0.1
				C17.9,11.5,17.8,11.4,17.7,11.3z"/>
		</g>
		<g>
			<path class="st30" d="M17.8,5.7c-1.2-0.2-2.4,0.4-3.2,1.2c-0.4,0.4-0.9,0.8-1.3,1.2c-0.4,0.5-1.1,0.8-1.7,0.8
				c-0.3,0-0.6,0-0.9-0.2c-0.2-0.1-0.3-0.2-0.4-0.2C10.1,8.4,10,8.3,9.9,8.2L8.6,6.9C8.4,6.7,8.2,6.6,7.9,6.4C7.7,6.2,7.5,6,7.2,5.9
				C6.7,5.6,6,5.6,5.5,5.7c0.6-0.2,1.2-0.2,1.8,0C7.5,5.9,7.8,6,8,6.2c0.2,0.2,0.5,0.3,0.7,0.5C9.2,7.1,9.7,7.6,10.1,8
				c0.1,0.1,0.2,0.2,0.3,0.3c0.1,0.1,0.3,0.2,0.4,0.2c0.2,0.1,0.5,0.1,0.8,0.2c0.6,0,1.1-0.2,1.5-0.6l1.4-1.2c0.5-0.4,1-0.8,1.5-1
				C16.6,5.6,17.2,5.5,17.8,5.7z"/>
		</g>
		<g>
			<path class="st5" d="M5.9,5.3c0.8-0.5,1.8-1,2.7-1.2c1-0.3,2-0.4,3-0.4c2,0,4.1,0.6,5.7,1.7c-1.7-1-3.7-1.5-5.7-1.5
				C9.6,3.7,7.6,4.3,5.9,5.3L5.9,5.3z"/>
		</g>
		<g>
			<path class="st19" d="M13.3,3c0,0.2-0.1,0.3-0.2,0.4c0,0-0.1,0.1-0.2,0.1c-0.1,0-0.1,0.1-0.2,0.1c0,0,0,0,0,0c0,0,0,0-0.1,0h-2.2
				c0,0,0,0-0.1,0c0,0,0,0,0,0c-0.1,0-0.1,0-0.2-0.1C10.1,3.4,9.9,3.2,9.9,3c0-0.2,0.1-0.3,0.2-0.4c0,0,0.1-0.1,0.2-0.1
				c0.1,0,0.1-0.1,0.2-0.1c0,0,0,0,0,0c0,0,0,0,0,0c0,0,0,0,0.1,0h2.2c0,0,0,0,0.1,0c0,0,0,0,0,0c0,0,0,0,0,0c0.1,0,0.1,0,0.2,0.1
				C13.2,2.6,13.3,2.8,13.3,3z"/>
			<path class="st31" d="M12.5,2.4h-1.8c-0.2,0-0.3-0.1-0.3-0.3v0c0-0.2,0.1-0.3,0.3-0.3h1.8c0.2,0,0.3,0.1,0.3,0.3v0
				C12.8,2.3,12.7,2.4,12.5,2.4z"/>
			<path class="st31" d="M13.3,3c0,0.2-0.1,0.3-0.2,0.4c0,0-0.1,0.1-0.2,0.1c0,0,0-0.1,0-0.1V2.6c0,0,0-0.1,0-0.1
				C13.2,2.6,13.3,2.8,13.3,3z"/>
			<path class="st31" d="M10.3,2.6v0.8c0,0,0,0.1,0,0.1C10.1,3.4,9.9,3.2,9.9,3c0-0.2,0.1-0.3,0.2-0.4c0,0,0.1-0.1,0.2-0.1
				C10.3,2.5,10.3,2.5,10.3,2.6z"/>
			<path class="st31" d="M10.6,3.6L10.6,3.6c-0.2,0-0.3-0.1-0.3-0.3V2.7c0-0.2,0.1-0.3,0.3-0.3h0c0.2,0,0.3,0.1,0.3,0.3v0.6
				C10.9,3.5,10.8,3.6,10.6,3.6z"/>
			<path class="st31" d="M12.6,3.6L12.6,3.6c-0.2,0-0.3-0.1-0.3-0.3V2.7c0-0.2,0.1-0.3,0.3-0.3l0,0c0.2,0,0.3,0.1,0.3,0.3v0.6
				C13,3.5,12.8,3.6,12.6,3.6z"/>
			<path class="st31" d="M12,3.6L12,3.6c-0.2,0-0.3-0.2-0.3-0.3V2.7c0-0.2,0.2-0.3,0.3-0.3h0c0.2,0,0.3,0.2,0.3,0.3v0.5
				C12.3,3.4,12.2,3.6,12,3.6z"/>
			<path class="st31" d="M11.3,3.6L11.3,3.6c-0.2,0-0.3-0.2-0.3-0.3V2.7c0-0.2,0.2-0.3,0.3-0.3h0c0.2,0,0.3,0.2,0.3,0.3v0.5
				C11.6,3.4,11.5,3.6,11.3,3.6z"/>
			<line class="st3" x1="12.6" y1="2.7" x2="12.6" y2="3.1"/>
			<line class="st3" x1="12" y1="2.7" x2="12" y2="3.1"/>
			<line class="st3" x1="11.3" y1="2.7" x2="11.3" y2="3.1"/>
			<line class="st3" x1="10.6" y1="2.7" x2="10.6" y2="3.1"/>
		</g>
		<line class="st32" x1="10.7" y1="2" x2="12.5" y2="2"/>
	</g>
</g>
</svg>
