<?xml version="1.0" encoding="utf-8"?>
<!-- Generator: Adobe Illustrator 24.0.2, SVG Export Plug-In . SVG Version: 6.00 Build 0)  -->
<svg version="1.1" id="Layer_1" xmlns="http://www.w3.org/2000/svg" xmlns:xlink="http://www.w3.org/1999/xlink" x="0px" y="0px"
	 viewBox="0 0 20 25.8" style="enable-background:new 0 0 20 25.8;" xml:space="preserve">
<style type="text/css">
	.st0{fill:#FFFFFF;}
	.st1{fill:#B3B3B3;stroke:#8C8C8C;stroke-width:7.060774e-02;stroke-miterlimit:10;}
	.st2{fill:none;stroke:#545454;stroke-width:7.060774e-02;stroke-miterlimit:10;}
	.st3{fill:none;stroke:#8C8C8C;stroke-width:0.1412;stroke-linecap:round;stroke-linejoin:round;stroke-miterlimit:10;}
	.st4{fill:#B3B3B3;}
	.st5{fill:#8F8F8F;}
	.st6{fill:url(#SVGID_1_);stroke:#808080;stroke-width:0.1412;stroke-miterlimit:10;}
	.st7{fill:none;stroke:#A1A1A1;stroke-width:0.1412;stroke-miterlimit:10;}
	.st8{fill:url(#SVGID_2_);}
	.st9{fill:url(#SVGID_3_);}
	.st10{fill:url(#SVGID_4_);stroke:#808080;stroke-width:0.1412;stroke-miterlimit:10;}
	.st11{fill:url(#SVGID_5_);}
	.st12{fill:url(#SVGID_6_);}
	.st13{fill:url(#SVGID_7_);}
	.st14{fill:url(#SVGID_8_);}
	.st15{fill:url(#SVGID_9_);}
	.st16{fill:url(#SVGID_10_);}
	.st17{fill:url(#SVGID_11_);}
	.st18{fill:#404040;}
	.st19{fill:url(#SVGID_12_);}
	.st20{fill:none;stroke:#0B1F30;stroke-width:0.1412;stroke-miterlimit:10;}
	.st21{fill:#CCCCCC;}
	.st22{fill:#BBBBBB;}
	.st23{fill:#757575;}
	.st24{fill:#A8A8A8;}
	.st25{fill:none;stroke:#FFFFFF;stroke-width:0.1412;stroke-linecap:round;stroke-miterlimit:10;}
	.st26{fill:url(#SVGID_13_);}
	.st27{fill:none;}
	.st28{fill:#4FBEED;}
	.st29{fill:#D4D4D4;}
	.st30{fill:#939393;}
	.st31{fill:#808080;}
	.st32{fill:#787878;stroke:#BFBFBF;stroke-width:0.1412;stroke-miterlimit:10;}
	.st33{fill:#787878;stroke:#BFBFBF;stroke-width:0.1412;stroke-linecap:round;stroke-linejoin:round;stroke-miterlimit:10;}
	.st34{fill:#787878;stroke:#BFBFBF;stroke-width:7.060774e-02;stroke-linecap:round;stroke-linejoin:round;stroke-miterlimit:10;}
</style>
<g>
	<path class="st0" d="M4.4,5.1c0,0,0.3-0.3,1.4-0.7S14.6,3,16.1,5.7s1.5,8.9,1.5,8.9l-0.1,1L16.2,21l-2.1,2.5L14,23.7l-1.3,1.1
		l-1.5,0.6L10,25.8l-0.2-0.1l-2.5-1l-1.1-0.9l-0.4-0.3l-2-3l-0.5-3.9l-0.8-1.2v-1.9l0.2-2l0.6-5L4.4,5.1z"/>
	<g>
		<path class="st1" d="M10.7,1.7c0-0.3,0.3-0.6,0.6-0.7c0.2,0,0.4,0,0.6,0c0.5,0.1,1,0.5,1.3,0.9c0.3,0.4,0.6,0.9,0.8,1.4
			c0.4,1.1,0.7,2.3,0.8,3.5l0.7,0.6C15.3,5.8,15,4.4,14.5,3c-0.2-0.6-0.5-1.1-0.9-1.6s-0.9-0.9-1.4-1.1c-0.6-0.2-1.2-0.3-1.8,0
			c-0.6,0.3-1,0.8-1,1.4L10.7,1.7z"/>
		<path class="st2" d="M9.6,1.5c0.2-0.7,0.9-1.2,1.7-1.2c0.7,0,1.5,0.4,2,0.9c0.2,0.2,0.4,0.5,0.6,0.8c0.8,1.3,1.2,2.8,1.4,4.3"/>
		<path class="st2" d="M10.1,1.6c0.2-0.5,0.6-0.8,1.1-0.9c0.5-0.1,1,0.1,1.4,0.4s0.7,0.7,1,1.1c0.7,1.3,0.9,2.8,1.1,4.2"/>
		<path class="st3" d="M9.9,1.6c0.1-0.5,0.6-1,1.2-1.1c0.7-0.1,1.2,0.1,1.6,0.4c0.4,0.3,0.7,0.7,1,1.1c0.8,1.2,1,2.7,1.3,4.2"/>
		<path class="st4" d="M1.4,18.6L1.4,18.6c-0.1,0-0.2,0-0.2-0.1l-0.9-4.3c0-0.1,0-0.2,0.1-0.2c0.1,0,0.2,0,0.2,0.1l0.9,4.3
			C1.5,18.5,1.5,18.6,1.4,18.6z"/>
		<path class="st5" d="M1,18.4L1,18.4c-0.1,0-0.2,0-0.2-0.1L0,14.5c0-0.1,0-0.2,0.1-0.2c0.1,0,0.2,0,0.2,0.1l0.8,3.8
			C1.1,18.3,1.1,18.4,1,18.4z"/>
		<linearGradient id="SVGID_1_" gradientUnits="userSpaceOnUse" x1="1.2152" y1="12.8499" x2="2.6749" y2="19.494">
			<stop  offset="0" style="stop-color:#909090"/>
			<stop  offset="0.5053" style="stop-color:#EFF3F6"/>
			<stop  offset="1" style="stop-color:#585858"/>
		</linearGradient>
		<path class="st6" d="M2.6,19.5L2.6,19.5c-0.5,0.1-1-0.2-1.1-0.7l-1-5.1c-0.1-0.5,0.2-1,0.7-1.1c0.5-0.1,1,0.2,1.1,0.7l1,5.1
			C3.4,18.9,3.1,19.4,2.6,19.5z"/>
		<line class="st7" x1="0.6" y1="15.6" x2="0.9" y2="15.5"/>
		<line class="st7" x1="0.6" y1="15.9" x2="1" y2="15.8"/>
		<line class="st7" x1="0.7" y1="16.2" x2="1" y2="16.1"/>
		<line class="st7" x1="0.7" y1="16.5" x2="1.1" y2="16.4"/>
		<linearGradient id="SVGID_2_" gradientUnits="userSpaceOnUse" x1="2.0712" y1="16.624" x2="2.3135" y2="18.0435">
			<stop  offset="0" style="stop-color:#E5EEF1"/>
			<stop  offset="1" style="stop-color:#8B8B8B"/>
		</linearGradient>
		<polygon class="st8" points="1.3,17.2 2.9,16.8 3.1,17.7 1.5,18 1.3,17.2 		"/>
		<linearGradient id="SVGID_3_" gradientUnits="userSpaceOnUse" x1="4.821" y1="9.4267" x2="1.9687" y2="10.1649">
			<stop  offset="0" style="stop-color:#ECECEC"/>
			<stop  offset="1" style="stop-color:#8C8C8C"/>
		</linearGradient>
		<path class="st9" d="M5.4,13c-0.3,0.9-1.4,1.4-2.3,1.2c-0.2,0-0.5-0.1-0.7-0.2c0-1.1,0.1-2,0.1-2l0.4-4.3c0.1-0.7,0.4-1.5,0.9-2
			C4,5.4,4.3,5.2,4.5,5c0.1,0,0.1,0,0.2,0C4.4,5.5,4.2,6.2,4.2,6.8c0,1.4,0.4,2.8,0.9,4.1C5.4,11.6,5.6,12.4,5.4,13z"/>
		<path class="st4" d="M18.6,18.6L18.6,18.6c0.1,0,0.2,0,0.2-0.1l0.9-4.3c0-0.1,0-0.2-0.1-0.2c-0.1,0-0.2,0-0.2,0.1l-0.9,4.3
			C18.5,18.5,18.5,18.6,18.6,18.6z"/>
		<path class="st5" d="M19,18.4L19,18.4c0.1,0,0.2,0,0.2-0.1l0.8-3.8c0-0.1,0-0.2-0.1-0.2c-0.1,0-0.2,0-0.2,0.1l-0.8,3.8
			C18.9,18.3,18.9,18.4,19,18.4z"/>
		
			<linearGradient id="SVGID_4_" gradientUnits="userSpaceOnUse" x1="410.2771" y1="12.8499" x2="411.7368" y2="19.494" gradientTransform="matrix(-1 0 0 1 429.0619 0)">
			<stop  offset="0" style="stop-color:#909090"/>
			<stop  offset="0.5053" style="stop-color:#EFF3F6"/>
			<stop  offset="1" style="stop-color:#585858"/>
		</linearGradient>
		<path class="st10" d="M17.4,19.5L17.4,19.5c0.5,0.1,1-0.2,1.1-0.7l1-5.1c0.1-0.5-0.2-1-0.7-1.1c-0.5-0.1-1,0.2-1.1,0.7l-1,5.1
			C16.6,18.9,16.9,19.4,17.4,19.5z"/>
		<line class="st7" x1="19.4" y1="15.6" x2="19.1" y2="15.5"/>
		<line class="st7" x1="19.4" y1="15.9" x2="19" y2="15.8"/>
		<line class="st7" x1="19.3" y1="16.2" x2="19" y2="16.1"/>
		<line class="st7" x1="19.3" y1="16.5" x2="18.9" y2="16.4"/>
		
			<linearGradient id="SVGID_5_" gradientUnits="userSpaceOnUse" x1="411.1331" y1="16.624" x2="411.3754" y2="18.0435" gradientTransform="matrix(-1 0 0 1 429.0619 0)">
			<stop  offset="0" style="stop-color:#E5EEF1"/>
			<stop  offset="1" style="stop-color:#8B8B8B"/>
		</linearGradient>
		<polygon class="st11" points="18.7,17.2 17.1,16.8 16.9,17.7 18.5,18 18.7,17.2 		"/>
		<radialGradient id="SVGID_6_" cx="10.0277" cy="3.8775" r="3.824" gradientUnits="userSpaceOnUse">
			<stop  offset="0" style="stop-color:#BABABA"/>
			<stop  offset="1" style="stop-color:#828282"/>
		</radialGradient>
		<path class="st12" d="M4.8,4.7C4.7,4.8,4.6,4.9,4.5,5c0.1,0,0.1,0,0.2,0c0.6-0.1,1.6-0.1,2.5,0.8C9,7.2,9,7.5,10,7.5V3.2
			C10,3.2,7.2,2.9,4.8,4.7z M15.2,4.7C12.8,2.9,10,3.2,10,3.2v4.3c1,0,1-0.4,2.8-1.9c1-0.8,1.9-0.9,2.5-0.8c0.1,0,0.1,0,0.2,0
			C15.4,4.9,15.3,4.8,15.2,4.7z"/>
		
			<linearGradient id="SVGID_7_" gradientUnits="userSpaceOnUse" x1="413.8829" y1="9.4267" x2="411.0306" y2="10.1649" gradientTransform="matrix(-1 0 0 1 429.0619 0)">
			<stop  offset="0" style="stop-color:#ECECEC"/>
			<stop  offset="1" style="stop-color:#8C8C8C"/>
		</linearGradient>
		<path class="st13" d="M14.6,13c0.3,0.9,1.4,1.4,2.3,1.2c0.2,0,0.5-0.1,0.7-0.2c0-1.1-0.1-2-0.1-2l-0.4-4.3c-0.1-0.7-0.4-1.5-0.9-2
			C16,5.4,15.7,5.2,15.5,5c-0.1,0-0.1,0-0.2,0c0.3,0.6,0.4,1.3,0.5,1.9c0,1.4-0.4,2.8-0.9,4.1C14.6,11.6,14.4,12.4,14.6,13z"/>
		<linearGradient id="SVGID_8_" gradientUnits="userSpaceOnUse" x1="5.9105" y1="19.6873" x2="3.5616" y2="20.5598">
			<stop  offset="0" style="stop-color:#ECECEC"/>
			<stop  offset="1" style="stop-color:#8C8C8C"/>
		</linearGradient>
		<path class="st14" d="M8.6,25.1c-0.5-0.1-0.9-0.2-1.1-0.3c-0.2-0.1-0.3-0.2-0.4-0.3l-1.2-1v0l-1.3-1.1c-0.4-0.3-0.7-0.8-0.9-1.3
			c-0.7-2-0.9-4.1-1.2-5.7c0-0.3-0.1-0.6-0.1-0.9c0.1,0,0.3,0.1,0.4,0.1c0.6,0.2,1.1,0.6,1.6,1c0.2,0.2,1.2,0.7,1.2,1.1
			c0,0.3-0.7,0.7-0.8,1c-0.1,0.4-0.1,0.9,0,1.4c0.1,0.7,0.3,1.3,0.5,2c0.2,0.6,0.4,1.1,0.8,1.6c0.4,0.5,1,0.8,1.5,1.2
			C8.1,24.3,8.4,24.7,8.6,25.1z"/>
		<linearGradient id="SVGID_9_" gradientUnits="userSpaceOnUse" x1="10.1824" y1="14.0621" x2="-3.0387" y2="18.6257">
			<stop  offset="0" style="stop-color:#FFFFFF"/>
			<stop  offset="1" style="stop-color:#BDBDBD"/>
		</linearGradient>
		<path class="st15" d="M10,7.5v17.6h0c-0.5,0-1,0-1.4-0.1c-0.2-0.4-0.5-0.8-0.9-1.1c-0.5-0.4-1.1-0.7-1.5-1.2
			c-0.4-0.4-0.6-1-0.8-1.6c-0.2-0.7-0.4-1.3-0.5-2c-0.1-0.5-0.1-0.9,0-1.4c0.1-0.4,0.8-0.7,0.8-1c0-0.3-1-0.9-1.2-1.1
			c-0.5-0.4-1-0.8-1.6-1c-0.1,0-0.3-0.1-0.4-0.1c0-0.2,0-0.4,0-0.6c0.2,0.1,0.5,0.2,0.7,0.2c0.9,0.2,2-0.3,2.3-1.2
			c0.2-0.7,0-1.4-0.3-2.1c-0.5-1.3-1-2.7-0.9-4.1c0-0.7,0.2-1.3,0.5-1.9c0.6-0.1,1.6-0.1,2.5,0.8C9,7.2,9,7.5,10,7.5z"/>
		
			<linearGradient id="SVGID_10_" gradientUnits="userSpaceOnUse" x1="414.9725" y1="19.6873" x2="412.6235" y2="20.5598" gradientTransform="matrix(-1 0 0 1 429.0619 0)">
			<stop  offset="0" style="stop-color:#ECECEC"/>
			<stop  offset="1" style="stop-color:#8C8C8C"/>
		</linearGradient>
		<path class="st16" d="M11.4,25.1c0.5-0.1,0.9-0.2,1.1-0.3c0.2-0.1,0.3-0.2,0.4-0.3l1.2-1v0l1.3-1.1c0.4-0.3,0.7-0.8,0.9-1.3
			c0.7-2,0.9-4.1,1.2-5.7c0-0.3,0.1-0.6,0.1-0.9c-0.1,0-0.3,0.1-0.4,0.1c-0.6,0.2-1.1,0.6-1.6,1c-0.2,0.2-1.2,0.7-1.2,1.1
			c0,0.3,0.7,0.7,0.8,1c0.1,0.4,0.1,0.9,0,1.4c-0.1,0.7-0.3,1.3-0.5,2c-0.2,0.6-0.4,1.1-0.8,1.6c-0.4,0.5-1,0.8-1.5,1.2
			C11.9,24.3,11.6,24.7,11.4,25.1z"/>
		
			<linearGradient id="SVGID_11_" gradientUnits="userSpaceOnUse" x1="419.2443" y1="14.0621" x2="406.0232" y2="18.6257" gradientTransform="matrix(-1 0 0 1 429.0619 0)">
			<stop  offset="0" style="stop-color:#FFFFFF"/>
			<stop  offset="1" style="stop-color:#BDBDBD"/>
		</linearGradient>
		<path class="st17" d="M10,7.5v17.6h0c0.5,0,1,0,1.4-0.1c0.2-0.4,0.5-0.8,0.9-1.1c0.5-0.4,1.1-0.7,1.5-1.2c0.4-0.4,0.6-1,0.8-1.6
			c0.2-0.7,0.4-1.3,0.5-2c0.1-0.5,0.1-0.9,0-1.4c-0.1-0.4-0.8-0.7-0.8-1c0-0.3,1-0.9,1.2-1.1c0.5-0.4,1-0.8,1.6-1
			c0.1,0,0.3-0.1,0.4-0.1c0-0.2,0-0.4,0-0.6c-0.2,0.1-0.5,0.2-0.7,0.2c-0.9,0.2-2-0.3-2.3-1.2c-0.2-0.7,0-1.4,0.3-2.1
			c0.5-1.3,1-2.7,0.9-4.1c0-0.7-0.2-1.3-0.5-1.9c-0.6-0.1-1.6-0.1-2.5,0.8C11,7.2,11,7.5,10,7.5z"/>
		<g>
			<path class="st18" d="M2.5,12.1C2.5,12.1,2.5,12.1,2.5,12.1c-0.3,1.6,0,3.4,0,3.4l2.9,1.9c0.4,0.3,0.9,0.4,1.3,0.3L10,17l3.3,0.7
				c0.5,0.1,0.9,0,1.3-0.3l2.9-1.9c0,0,0.3-1.9,0-3.5c0,0,0,0,0,0C12.5,13.1,7.5,13.2,2.5,12.1z"/>
			<linearGradient id="SVGID_12_" gradientUnits="userSpaceOnUse" x1="2.3969" y1="14.6964" x2="17.6015" y2="14.6964">
				<stop  offset="0" style="stop-color:#505050"/>
				<stop  offset="0.5212" style="stop-color:#E0E0E0"/>
				<stop  offset="1" style="stop-color:#4D4D4D"/>
			</linearGradient>
			<path class="st19" d="M2.5,11.9C2.5,11.9,2.5,11.9,2.5,11.9c-0.3,1.6,0,3.6,0,3.6l3.3,2c0.1,0.1,0.2,0.1,0.3,0.1l3.9-0.6l3.9,0.6
				c0.1,0,0.2,0,0.3-0.1l3.3-2c0,0,0.3-2,0-3.6c0,0,0,0,0,0C12.5,13,7.5,13,2.5,11.9z"/>
			<path class="st20" d="M2.5,11.9l0.3,0.1c4.7,0.9,9.6,0.9,14.3,0l0.3-0.1"/>
			<g>
				<path class="st21" d="M10,12.8c-2.4,0-4.8-0.2-7.2-0.7L2.5,12l0-0.1l0.3,0.1c4.7,0.9,9.5,0.9,14.3,0l0.3-0.1l0,0.1l-0.3,0.1
					C14.8,12.5,12.4,12.8,10,12.8z"/>
			</g>
		</g>
		<polygon class="st22" points="10.6,17 10,16.9 9,17 9,12.7 10.6,12.7 		"/>
		<polygon class="st23" points="4.7,16.7 3.1,15.8 3.1,12.2 4.7,12.4 		"/>
		<polygon class="st22" points="11.5,17.1 11,17 11,12.7 11.5,12.7 		"/>
		<polygon class="st24" points="13.4,17.4 12.9,17.3 12.9,12.7 13.4,12.6 		"/>
		<path class="st18" d="M12.9,24.5c-0.1,0.1-0.3,0.2-0.4,0.3c-0.4,0.2-1.2,0.4-2.5,0.4h0h0c-1.3,0-2.1-0.2-2.5-0.4
			c-0.2-0.1-0.3-0.2-0.4-0.3l-1.2-1c1.8,2.3,4.1,2.3,4.1,2.3s2.3,0,4.1-2.3L12.9,24.5z"/>
		<line class="st25" x1="17.8" y1="15" x2="18.9" y2="15.2"/>
		<line class="st25" x1="2.2" y1="15" x2="1.1" y2="15.1"/>
		<g>
			<g>
				<path class="st22" d="M6.1,23.8L7,20c0,0,0.1-0.1,0.1-0.1h5.7c0,0,0.1,0,0.1,0.1l0.9,3.8l-0.2,0.2l-0.9-3.8H7.2l-0.9,3.8
					L6.1,23.8z"/>
			</g>
			<g>
				<path class="st22" d="M12.5,21.2h-5c-0.1,0-0.1,0-0.1-0.1c0-0.1,0-0.1,0.1-0.1h5c0.1,0,0.1,0,0.1,0.1
					C12.6,21.1,12.5,21.2,12.5,21.2z"/>
			</g>
		</g>
		<linearGradient id="SVGID_13_" gradientUnits="userSpaceOnUse" x1="10.0398" y1="23.7274" x2="10.0736" y2="22.2064">
			<stop  offset="0" style="stop-color:#E5EEF1"/>
			<stop  offset="1" style="stop-color:#8B8B8B"/>
		</linearGradient>
		<path class="st26" d="M10.7,23H9.4c-0.3,0-0.5-0.2-0.5-0.5v0c0-0.3,0.2-0.5,0.5-0.5h1.4c0.3,0,0.5,0.2,0.5,0.5v0
			C11.3,22.7,11,23,10.7,23z"/>
		<g>
			<path class="st27" d="M4.8,4.7C4.7,4.8,4.6,4.9,4.5,5c0.1,0,0.1,0,0.2,0c0.6-0.1,1.6-0.1,2.5,0.8C9,7.2,9,7.5,10,7.5V3.2
				C10,3.2,7.2,2.9,4.8,4.7z"/>
			<path class="st27" d="M15.2,4.7C12.8,2.9,10,3.2,10,3.2v4.3c1,0,1-0.4,2.8-1.9c1-0.8,1.9-0.9,2.5-0.8c0.1,0,0.1,0,0.2,0
				C15.4,4.9,15.3,4.8,15.2,4.7z"/>
		</g>
		<g>
			<rect x="10" y="3.9" class="st27" width="0" height="0.4"/>
			<polygon class="st27" points="10,5.2 10,5.8 10,5.8 10,5.2 			"/>
			<polygon class="st27" points="10,6.6 10,6.6 10,6 10,6 			"/>
			<polygon class="st28" points="10,6 10,6 10,5.8 10,5.8 			"/>
			<polygon class="st28" points="10,3.9 10,3.8 10,3.8 10,3.9 			"/>
			<rect x="10" y="4.3" class="st28" width="0" height="1"/>
			<polygon class="st28" points="10,6.6 10,6.8 10,6.8 10,6.6 			"/>
			<polygon class="st27" points="9.7,5.6 9.6,5.5 9.6,6.2 10,5.8 10,5.2 			"/>
			<path class="st27" d="M8,3.3c-0.2,0-0.3,0.1-0.5,0.1L8,4V3.3z"/>
			<path class="st27" d="M6.1,4C6,4,5.8,4.1,5.7,4.1l0.7,0.5v0.6C6.6,5.2,6.8,5.3,7,5.5V4.6L6.1,4z"/>
			<path class="st27" d="M7.4,3.5C7.2,3.6,7,3.6,6.8,3.7l0.9,0.6v1.8C7.8,6.2,7.9,6.3,8,6.4V4.2L7.4,3.5z"/>
			<path class="st27" d="M6.6,3.7C6.5,3.8,6.3,3.8,6.2,3.9l0.9,0.6v1.1c0,0,0.1,0,0.1,0.1C7.4,5.8,7.5,5.9,7.6,6V4.4L6.6,3.7z"/>
			<path class="st27" d="M8.6,5V4.1h0.1v0.8L9,5.2V4L8.4,3.3l0.1-0.1c-0.1,0-0.2,0-0.3,0v3.2c0.1,0.1,0.2,0.2,0.3,0.3V5.6h0.1V7
				C8.8,7.1,8.9,7.2,9,7.3V5.4L8.6,5z"/>
			<path class="st27" d="M9.7,6.9L10,6.6V6L9.6,6.4v1.2c0.1,0,0.2,0,0.4,0V6.8L9.7,6.9L9.7,6.9z"/>
			<path class="st27" d="M9.6,4.1v1.3L10,5.1V4.3h0V3.9l0,0l0,0V3.2c0,0-0.6-0.1-1.5,0.1l0.6,0.6l0.6-0.6l0.1,0.1L9.1,4v3.3
				c0.1,0.1,0.2,0.1,0.3,0.1V4.1H9.6z"/>
			<path class="st27" d="M5.6,4.2C5.3,4.4,5.1,4.5,4.8,4.7C4.7,4.8,4.6,4.9,4.5,5c0.1,0,0.1,0,0.2,0c0.4-0.1,1-0.1,1.6,0.2V4.7
				L5.6,4.2z"/>
			<path class="st29" d="M6.8,3.7c-0.1,0-0.1,0-0.2,0.1l1,0.7V6c0,0,0.1,0.1,0.1,0.1V4.3L6.8,3.7z"/>
			<path class="st29" d="M6.2,3.9c0,0-0.1,0-0.1,0.1L7,4.6v0.9c0,0,0.1,0.1,0.1,0.1V4.5L6.2,3.9z"/>
			<path class="st29" d="M5.7,4.1c0,0-0.1,0.1-0.1,0.1l0.6,0.4v0.4c0,0,0.1,0,0.1,0.1V4.6L5.7,4.1z"/>
			<path class="st29" d="M8,3.3V4L7.5,3.5c-0.1,0-0.1,0-0.2,0L8,4.2v2.2c0,0,0.1,0.1,0.1,0.1V3.3C8.1,3.3,8.1,3.3,8,3.3z"/>
			<path class="st29" d="M9.8,3.3L9.7,3.2L9.1,3.9L8.5,3.3c0,0,0,0-0.1,0L8.4,3.3L9,4v1.2L8.7,4.9V4.1H8.6V5L9,5.4v1.9
				c0,0,0.1,0.1,0.1,0.1V4L9.8,3.3z"/>
			<polygon class="st29" points="9.7,6.9 9.8,7 10,6.8 10,6.6 			"/>
			<path class="st29" d="M10,6V5.8L9.6,6.2V5.5l0,0L10,5.2v-1h0v0.8L9.6,5.4V4.1H9.5v3.3c0,0,0.1,0,0.1,0V6.4L10,6z"/>
			<polygon class="st28" points="10,3.9 10,3.8 10,3.8 			"/>
			<path class="st29" d="M8.5,5.6v1.2c0,0,0.1,0.1,0.1,0.1V5.6H8.5z"/>
			<path class="st27" d="M10,6.8v0.8c0.2,0,0.3,0,0.4,0V6.4L10,6.8z"/>
			<path class="st27" d="M11,7.3c0.2-0.2,0.4-0.4,0.8-0.7L11,5.8V7.3z"/>
			<path class="st27" d="M12,3.4c-0.2,0-0.4-0.1-0.6-0.1v1.5l1.1,1.1c0.1-0.1,0.1-0.1,0.2-0.2c0,0,0.1,0,0.1-0.1L12,4.7V3.4z"/>
			<polygon class="st27" points="10.4,6.2 10.4,5.6 10,6 10,6.6 			"/>
			<path class="st27" d="M15.2,4.7c-0.3-0.2-0.6-0.4-0.9-0.5L14,4.6c0,0,0,0,0,0c0,0.1-0.1,0.2-0.2,0.2c-0.1,0-0.2-0.1-0.2-0.2
				c0-0.1,0.1-0.2,0.2-0.2c0,0,0.1,0,0.1,0l0.3-0.3C14.1,4.1,14,4,13.9,3.9l-0.5,0.5v0.8c0.8-0.4,1.4-0.4,1.9-0.3c0.1,0,0.1,0,0.2,0
				C15.4,4.9,15.3,4.8,15.2,4.7z"/>
			<path class="st27" d="M11.3,3.2c-0.1,0-0.3,0-0.4,0V5l0.5,0.5c0,0,0.1-0.1,0.1-0.1c0.1,0,0.2,0.1,0.2,0.2c0,0.1-0.1,0.2-0.2,0.2
				c-0.1,0-0.2-0.1-0.2-0.2c0,0,0,0,0,0l0,0l-0.6-0.6V3.2c-0.5,0-0.8,0-0.8,0v0.6l0.1-0.1l0.3,0.3V3.3h0.1v2l0,0v1l0,0v1.3
				c0.1,0,0.2-0.1,0.3-0.1V5.4l1,1c0.2-0.2,0.4-0.3,0.6-0.5l-1.1-1.1V3.2z"/>
			<path class="st27" d="M13.7,3.9c-0.2-0.1-0.5-0.2-0.7-0.3v1.3l-0.2,0.2L12.8,5l0.1-0.1V3.6c-0.1,0-0.2-0.1-0.3-0.1v1.1h-0.1V3.4
				c-0.1,0-0.2,0-0.3-0.1v1.3L13,5.5c0.1-0.1,0.2-0.1,0.2-0.2v-1L13.7,3.9z"/>
			<polygon class="st27" points="10.1,4.3 10.1,5.1 10,5.2 10,5.8 10.4,5.4 10.4,4.2 10.4,4.2 10,3.9 10,4.3 			"/>
			<path class="st29" d="M10.6,6.2v-1l0,0v-2h-0.1v0.8l-0.3-0.3L10,3.8v0l0.4,0.4l0,0v1.2L10,5.8V6l0.4-0.4v0.6L10,6.6v0.2l0.4-0.4
				v1.2c0,0,0.1,0,0.1,0L10.6,6.2L10.6,6.2z"/>
			<polygon class="st29" points="10.1,5.1 10.1,4.3 10,4.3 10,5.2 			"/>
			<path class="st29" d="M11.3,5.7L11.3,5.7C11.3,5.7,11.3,5.7,11.3,5.7c0,0.1,0.1,0.2,0.2,0.2c0.1,0,0.2-0.1,0.2-0.2
				c0-0.1-0.1-0.2-0.2-0.2c0,0-0.1,0-0.1,0.1L10.9,5V3.2c0,0-0.1,0-0.1,0v1.9L11.3,5.7z"/>
			<path class="st29" d="M10.8,7.4c0,0,0.1-0.1,0.1-0.1V5.8l0.8,0.8c0,0,0.1-0.1,0.1-0.1l-1-1V7.4z"/>
			<path class="st29" d="M11.5,3.3c0,0-0.1,0-0.1,0v1.5l1.1,1.1c0,0,0.1-0.1,0.1-0.1l-1.1-1.1V3.3z"/>
			<path class="st29" d="M12.2,3.4c0,0-0.1,0-0.1,0v1.4l0.9,0.9c0,0,0.1-0.1,0.1-0.1l-0.8-0.8V3.4z"/>
			<path class="st29" d="M12.6,4.5V3.5c0,0-0.1,0-0.1,0v1.1H12.6z"/>
			<path class="st29" d="M12.8,5L12.8,5L13,4.9V3.6c0,0-0.1,0-0.1,0v1.3L12.8,5z"/>
			<path class="st29" d="M13.9,3.9c0,0-0.1,0-0.1-0.1l-0.5,0.5v1c0,0,0.1-0.1,0.1-0.1V4.4L13.9,3.9z"/>
			<path class="st29" d="M13.8,4.4c-0.1,0-0.2,0.1-0.2,0.2c0,0.1,0.1,0.2,0.2,0.2c0.1,0,0.2-0.1,0.2-0.2c0,0,0,0,0,0l0.4-0.4
				c0,0-0.1,0-0.1-0.1L13.8,4.4C13.9,4.4,13.8,4.4,13.8,4.4z"/>
		</g>
		<g>
			<path class="st27" d="M4.8,9.7C4.7,9.8,4.6,9.9,4.5,10c0.1,0,0.1,0,0.2,0c0.6-0.1,1.6-0.1,2.5,0.8C9,12.2,9,12.5,10,12.5V8.2
				C10,8.2,7.2,7.9,4.8,9.7z"/>
			<path class="st27" d="M15.2,9.7C12.8,7.9,10,8.2,10,8.2v4.3c1,0,1-0.4,2.8-1.9c1-0.8,1.9-0.9,2.5-0.8c0.1,0,0.1,0,0.2,0
				C15.4,9.9,15.3,9.8,15.2,9.7z"/>
		</g>
		<g>
			<path class="st30" d="M15.3,4.9c-1-0.2-2,0.4-2.7,1.1c-0.4,0.4-0.8,0.7-1.1,1.1c-0.3,0.4-0.9,0.7-1.5,0.6c-0.3,0-0.5,0-0.8-0.2
				C9,7.4,9,7.4,8.8,7.3C8.7,7.2,8.6,7.1,8.5,7L7.4,6C7.2,5.8,7,5.6,6.8,5.5C6.6,5.3,6.4,5.2,6.2,5.1c-0.4-0.2-1-0.3-1.5-0.1
				c0.5-0.2,1-0.2,1.5,0C6.5,5,6.7,5.2,6.9,5.3c0.2,0.1,0.4,0.3,0.6,0.5c0.4,0.3,0.8,0.7,1.1,1C8.8,6.9,8.9,7,9,7.1
				c0.1,0.1,0.2,0.1,0.3,0.2C9.5,7.4,9.7,7.4,10,7.4c0.5,0,0.9-0.2,1.3-0.6l1.2-1C13.2,5.1,14.3,4.6,15.3,4.9z"/>
		</g>
		<g>
			<path class="st31" d="M5.1,4.5c0.7-0.5,1.5-0.8,2.4-1.1C8.3,3.2,9.1,3.1,10,3.1c1.7,0,3.5,0.5,4.9,1.5c-1.5-0.9-3.2-1.3-4.9-1.3
				C8.3,3.2,6.6,3.7,5.1,4.5L5.1,4.5z"/>
		</g>
		<g>
			<path class="st32" d="M11.5,2.6c0,0.1-0.1,0.3-0.2,0.4c0,0-0.1,0.1-0.1,0.1c-0.1,0-0.1,0-0.2,0.1c0,0,0,0,0,0c0,0,0,0-0.1,0H9.1
				c0,0,0,0-0.1,0c0,0,0,0,0,0c-0.1,0-0.1,0-0.2-0.1C8.7,2.9,8.5,2.8,8.5,2.6c0-0.1,0.1-0.3,0.2-0.4c0,0,0.1-0.1,0.1-0.1
				c0.1,0,0.1,0,0.2-0.1c0,0,0,0,0,0c0,0,0,0,0,0c0,0,0,0,0.1,0h1.9c0,0,0,0,0.1,0c0,0,0,0,0,0c0,0,0,0,0,0c0.1,0,0.1,0,0.2,0.1
				C11.3,2.2,11.5,2.4,11.5,2.6z"/>
			<path class="st32" d="M10.8,2.1H9.2C9.1,2.1,9,1.9,9,1.8v0c0-0.1,0.1-0.3,0.3-0.3h1.5c0.1,0,0.3,0.1,0.3,0.3v0
				C11,1.9,10.9,2.1,10.8,2.1z"/>
			<path class="st32" d="M11.5,2.6c0,0.1-0.1,0.3-0.2,0.4c0,0-0.1,0.1-0.1,0.1c0,0,0-0.1,0-0.1V2.2c0,0,0-0.1,0-0.1
				C11.3,2.2,11.5,2.4,11.5,2.6z"/>
			<path class="st32" d="M8.9,2.2v0.7c0,0,0,0.1,0,0.1C8.7,2.9,8.5,2.8,8.5,2.6c0-0.1,0.1-0.3,0.2-0.4c0,0,0.1-0.1,0.1-0.1
				C8.9,2.1,8.9,2.2,8.9,2.2z"/>
			<path class="st32" d="M9.1,3.1L9.1,3.1C9,3.1,8.9,3,8.9,2.8V2.3c0-0.1,0.1-0.3,0.3-0.3h0c0.1,0,0.3,0.1,0.3,0.3v0.5
				C9.4,3,9.3,3.1,9.1,3.1z"/>
			<path class="st32" d="M10.9,3.1L10.9,3.1c-0.1,0-0.3-0.1-0.3-0.3V2.3c0-0.1,0.1-0.3,0.3-0.3h0c0.1,0,0.3,0.1,0.3,0.3v0.5
				C11.1,3,11,3.1,10.9,3.1z"/>
			<path class="st32" d="M10.3,3.1L10.3,3.1C10.1,3.1,10,3,10,2.8V2.4c0-0.2,0.1-0.3,0.3-0.3l0,0c0.2,0,0.3,0.1,0.3,0.3v0.4
				C10.6,3,10.5,3.1,10.3,3.1z"/>
			<path class="st32" d="M9.7,3.1L9.7,3.1C9.5,3.1,9.4,3,9.4,2.8V2.4c0-0.2,0.1-0.3,0.3-0.3h0c0.2,0,0.3,0.1,0.3,0.3v0.4
				C10,3,9.9,3.1,9.7,3.1z"/>
			<line class="st33" x1="10.9" y1="2.3" x2="10.9" y2="2.7"/>
			<line class="st33" x1="10.3" y1="2.3" x2="10.3" y2="2.7"/>
			<line class="st33" x1="9.7" y1="2.3" x2="9.7" y2="2.7"/>
			<line class="st33" x1="9.1" y1="2.3" x2="9.1" y2="2.7"/>
		</g>
		<line class="st34" x1="9.2" y1="1.7" x2="10.7" y2="1.7"/>
	</g>
</g>
</svg>
