<svg width="150" height="52" viewBox="0 0 150 52" fill="none" xmlns="http://www.w3.org/2000/svg">
<path d="M8.48849 11.0522C8.48849 11.0522 9.04694 10.382 11.1691 9.6002C13.4029 8.81837 28.3694 6.80794 31.2733 12.0574C34.1772 17.3068 34.1772 29.3694 34.1772 29.3694L33.9539 31.2681L31.6084 41.767L27.5875 46.7931L27.2524 47.1281L24.6836 49.3619L21.6679 50.4788L19.4341 51.2607H19.2108L14.2964 49.2502L12.1743 47.4632L11.3924 46.7931L7.37158 40.8735L6.47806 33.3902L4.9144 31.1564V27.3589L5.24947 23.4498L6.36637 13.7327L8.48849 11.0522Z" fill="white"/>
<path d="M20.7744 4.23902C20.8861 3.56888 21.3329 3.01042 22.003 2.89873C22.3381 2.78704 22.7848 2.78704 23.1199 2.89873C24.1251 3.12211 25.0186 3.79226 25.6888 4.57409C26.3589 5.35592 26.8057 6.36113 27.1408 7.25465C28.0343 9.37677 28.481 11.7223 28.7044 14.0678L30.0447 15.1847C29.933 12.2807 29.2629 9.48846 28.2577 6.80789C27.8109 5.69099 27.2524 4.57409 26.5823 3.56888C25.9122 2.56366 24.907 1.78183 23.7901 1.33507C22.6731 0.88831 21.3329 0.88831 20.3277 1.33507C19.2108 1.89352 18.4289 3.01042 18.3172 4.12733L20.7744 4.23902Z" fill="#107DBB" stroke="#081626" stroke-width="0.1232" stroke-miterlimit="10"/>
<path d="M18.7639 4.01564C19.099 2.56366 20.551 1.67014 22.003 1.55845C23.4549 1.55845 24.9069 2.22859 25.8004 3.3455C26.2472 3.79226 26.5823 4.35071 26.9173 4.90916C28.481 7.47803 29.2628 10.382 29.7096 13.3976" stroke="#081626" stroke-width="0.1232" stroke-miterlimit="10"/>
<path d="M19.6575 4.12724C19.9925 3.23372 20.8861 2.56358 21.8913 2.45189C22.8965 2.3402 23.9017 2.67527 24.6835 3.23372C25.4654 3.79217 26.1355 4.574 26.5823 5.46752C28.0342 7.92471 28.3693 10.8287 28.7044 13.7326" stroke="#081626" stroke-width="0.1232" stroke-miterlimit="10"/>
<path d="M19.2107 4.12734C19.5458 3.23381 20.4393 2.2286 21.5562 2.00522C22.8965 1.78184 23.9017 2.2286 24.6835 2.78705C25.4654 3.3455 26.0238 4.12734 26.5823 4.90917C28.1459 7.36635 28.5927 10.2703 29.0395 13.0626" stroke="#4BBEED" stroke-width="0.2464" stroke-miterlimit="10" stroke-linecap="round" stroke-linejoin="round"/>
<path d="M2.68056 37.2993C2.45718 37.2993 2.34549 37.1876 2.23379 37.0759L0.558441 28.8109C0.558441 28.5875 0.670131 28.4758 0.781822 28.3641C1.0052 28.3641 1.11689 28.4758 1.22858 28.5875L2.90394 36.8526C2.90394 37.0759 2.79225 37.1876 2.68056 37.2993Z" fill="#00529A"/>
<path d="M1.89873 36.9643C1.67535 36.9643 1.56366 36.8526 1.45197 36.7409L0 29.2576C0 29.1459 0.11169 28.9226 0.22338 28.9226C0.446761 28.9226 0.558451 29.0343 0.670142 29.1459L2.12211 36.5175C2.2338 36.7409 2.12211 36.8526 1.89873 36.9643Z" fill="#061E31"/>
<path d="M5.13772 38.9747C4.2442 39.1981 3.23898 38.5279 3.12729 37.6344L1.00518 27.8057C0.781797 26.9122 1.45194 25.907 2.34546 25.7953C3.35067 25.5719 4.2442 26.1303 4.46758 27.1355L6.478 36.9643C6.70138 37.8578 6.03124 38.863 5.13772 38.9747Z" fill="url(#paint0_linear_1395_1018)" stroke="#062138" stroke-width="0.2464" stroke-miterlimit="10"/>
<path d="M1.11691 31.3799L1.78705 31.2682" stroke="#3CC5F2" stroke-width="0.2464" stroke-miterlimit="10"/>
<path d="M1.22858 31.9383L1.89872 31.8266" stroke="#3CC5F2" stroke-width="0.2464" stroke-miterlimit="10"/>
<path d="M1.3403 32.4968L2.01044 32.3851" stroke="#3CC5F2" stroke-width="0.2464" stroke-miterlimit="10"/>
<path d="M1.45197 33.0552L2.12211 32.9435" stroke="#3CC5F2" stroke-width="0.2464" stroke-miterlimit="10"/>
<path d="M2.56885 34.507L5.69617 33.8368L6.03125 35.5122L2.90392 36.0706L2.56885 34.507Z" fill="url(#paint1_linear_1395_1018)"/>
<path d="M10.4989 26.3537C9.94045 28.1407 7.81834 29.0343 6.03129 28.6992C5.58453 28.5875 5.13777 28.4758 4.69101 28.2524C4.69101 26.1303 4.91439 24.455 4.91439 24.455L5.58453 15.9665C5.69622 14.5145 6.36636 13.1742 7.25989 12.0573C7.81834 11.4989 8.2651 11.0521 8.82355 10.6054C8.93524 10.6054 9.04693 10.4937 9.15862 10.4937C8.60017 11.6106 8.2651 12.9509 8.2651 14.2911C8.15341 17.0834 9.04693 19.764 10.0521 22.3328C10.4989 23.6731 10.9457 25.1251 10.4989 26.3537Z" fill="url(#paint2_linear_1395_1018)"/>
<path d="M36.2993 37.2993C36.5227 37.2993 36.6344 37.1876 36.7461 37.0759L38.4214 28.8109C38.4214 28.5875 38.3097 28.4758 38.198 28.3641C37.9747 28.3641 37.863 28.4758 37.7513 28.5875L36.0759 36.8526C36.0759 37.0759 36.1876 37.1876 36.2993 37.2993Z" fill="#00529A"/>
<path d="M37.0811 36.9643C37.3045 36.9643 37.4162 36.8526 37.5279 36.7409L38.9799 29.3693C38.9799 29.1459 38.8682 29.0343 38.7565 28.9226C38.5331 28.9226 38.4214 29.0343 38.3097 29.1459L36.8578 36.5175C36.7461 36.7409 36.8578 36.8526 37.0811 36.9643Z" fill="#061E31"/>
<path d="M33.8421 38.9746C34.7357 39.1979 35.7409 38.5278 35.8526 37.6343L37.9747 27.8055C38.1981 26.912 37.5279 25.9068 36.6344 25.7951C35.7409 25.5717 34.7357 26.2419 34.624 27.1354L32.6136 36.9641C32.2785 37.8577 32.9486 38.8629 33.8421 38.9746Z" fill="url(#paint3_linear_1395_1018)" stroke="#062138" stroke-width="0.2464" stroke-miterlimit="10"/>
<path d="M37.863 31.3799L37.1928 31.2682" stroke="#3CC5F2" stroke-width="0.2464" stroke-miterlimit="10"/>
<path d="M37.7513 31.9383L37.0812 31.8266" stroke="#3CC5F2" stroke-width="0.2464" stroke-miterlimit="10"/>
<path d="M37.6396 32.4968L36.9695 32.3851" stroke="#3CC5F2" stroke-width="0.2464" stroke-miterlimit="10"/>
<path d="M37.5279 33.0552L36.8578 32.9435" stroke="#3CC5F2" stroke-width="0.2464" stroke-miterlimit="10"/>
<path d="M36.411 34.507L33.2837 33.8368L32.9486 35.5122L36.0759 36.0706L36.411 34.507Z" fill="url(#paint4_linear_1395_1018)"/>
<path d="M9.382 10.2704C9.15862 10.3821 8.93524 10.4938 8.82355 10.6055C8.93524 10.6055 9.04693 10.4938 9.15862 10.4938C10.3872 10.2704 12.1743 10.3821 14.073 11.9458C17.5354 14.8497 17.5354 15.6316 19.5458 15.6316V7.25479C19.4341 7.25479 14.073 6.69634 9.382 10.2704ZM29.5979 10.2704C24.9069 6.80803 19.4341 7.24731 19.4341 7.24731V15.8549C21.4445 15.8549 21.4445 15.1848 24.9069 12.1692C26.8057 10.4938 28.5927 10.4938 29.8213 10.7172C29.933 10.7172 30.0447 10.7172 30.1564 10.8289C30.0447 10.4938 29.8213 10.3821 29.5979 10.2704Z" fill="url(#paint5_radial_1395_1018)"/>
<path d="M28.481 26.3537C29.0395 28.1407 31.1616 29.0343 32.9487 28.6992C33.3954 28.5875 33.8422 28.4758 34.2889 28.2524C34.2889 26.1303 34.0656 24.455 34.0656 24.455L33.2837 15.9665C33.172 14.5145 32.5019 13.1742 31.6084 12.0573C31.1616 11.4989 30.7148 11.0521 30.1564 10.6054C30.0447 10.6054 29.933 10.4937 29.8213 10.4937C30.3798 11.6106 30.7148 12.9509 30.7148 14.2911C30.8265 17.0834 29.933 19.764 28.9278 22.3328C28.481 23.6731 28.0343 25.1251 28.481 26.3537Z" fill="url(#paint6_linear_1395_1018)"/>
<path d="M16.6418 49.9203C15.6366 49.8086 14.9665 49.5853 14.5197 49.3619C14.1846 49.2502 13.9613 49.0268 13.7379 48.9151L11.3924 46.793L8.82351 44.6709C8.04168 44.0007 7.48323 43.1072 7.14816 42.2137C5.80788 38.3045 5.36112 34.172 4.80267 31.1564C4.69098 30.5979 4.69097 30.0395 4.57928 29.481C4.80267 29.481 5.13774 29.5927 5.36112 29.7044C6.47802 30.1512 7.48323 30.933 8.37675 31.6031C8.82351 31.9382 10.7222 33.0551 10.8339 33.7252C10.8339 34.2837 9.49366 35.0655 9.27028 35.7357C8.9352 36.6292 9.04689 37.5227 9.27028 38.4162C9.49366 39.7565 9.82873 41.0968 10.2755 42.3254C10.6106 43.4423 11.169 44.5592 11.9508 45.4527C12.8444 46.3462 13.9613 47.0164 14.9665 47.7982C15.7483 48.245 16.4185 49.0268 16.6418 49.9203Z" fill="url(#paint7_linear_1395_1018)"/>
<path d="M19.4341 15.7431V50.1437H19.3224C18.3172 50.1437 17.312 50.1437 16.6419 50.032C16.3068 49.1385 15.6367 48.4683 14.9665 47.9099C13.9613 47.128 12.8444 46.5696 11.9509 45.5644C11.169 44.5592 10.7223 43.4423 10.3872 42.3254C9.94045 41.0968 9.60538 39.7565 9.382 38.4162C9.27031 37.5227 9.15862 36.6292 9.382 35.7356C9.60538 35.0655 10.9457 34.2837 10.9457 33.7252C10.9457 33.0551 9.04693 31.9382 8.48848 31.6031C7.59496 30.8213 6.58974 30.0394 5.47284 29.7044C5.24946 29.5927 4.91439 29.481 4.69101 29.481C4.69101 29.0342 4.69101 28.6991 4.69101 28.2524C5.13777 28.4758 5.58453 28.5875 6.03129 28.6991C7.81834 29.0342 9.94045 28.1407 10.4989 26.3537C10.9457 25.0134 10.3872 23.6731 9.94045 22.3328C9.04693 19.7639 8.04172 17.0834 8.15341 14.2911C8.15341 12.9508 8.48848 11.7222 9.04693 10.4936C10.2755 10.2703 12.0626 10.3819 13.9613 11.9456C17.5354 14.9612 17.5354 15.7431 19.4341 15.7431Z" fill="url(#paint8_linear_1395_1018)"/>
<path d="M22.338 49.9204C23.3433 49.8087 24.0134 49.5854 24.4602 49.362C24.7952 49.2503 25.0186 49.0269 25.242 48.9152L27.5875 46.9048L30.1564 44.7827C30.9382 44.1125 31.4966 43.219 31.8317 42.3255C33.172 38.4163 33.6188 34.2838 34.1772 31.2682C34.2889 30.7097 34.2889 30.1513 34.4006 29.5928C34.1772 29.5928 33.8421 29.7045 33.6188 29.8162C32.5019 30.263 31.4966 31.0448 30.6031 31.7149C30.1564 32.05 28.2576 33.1669 28.1459 33.837C28.1459 34.3955 29.4862 35.1773 29.7096 35.8475C30.0447 36.741 29.933 37.6345 29.7096 38.528C29.4862 39.8683 29.1511 41.2086 28.7044 42.4372C28.3693 43.5541 27.8109 44.671 27.029 45.5645C26.1355 46.458 25.0186 47.1282 24.0134 47.91C23.2316 48.2451 22.5614 49.0269 22.338 49.9204Z" fill="url(#paint9_linear_1395_1018)"/>
<path d="M19.5458 15.7432V50.1438H19.6575C20.6627 50.1438 21.6679 50.1438 22.338 50.0321C22.6731 49.1386 23.3432 48.4684 24.0134 47.91C25.0186 47.1281 26.1355 46.5697 27.029 45.5645C27.8109 44.671 28.2576 43.5541 28.7044 42.4372C29.1511 41.2086 29.4862 39.8683 29.7096 38.528C29.8213 37.6345 29.933 36.741 29.7096 35.8474C29.4862 35.1773 28.1459 34.3955 28.1459 33.837C28.1459 33.1669 30.0447 32.05 30.6031 31.7149C31.4966 30.9331 32.5018 30.1512 33.6187 29.8162C33.8421 29.7045 34.1772 29.5928 34.4006 29.5928C34.4006 29.146 34.4006 28.8109 34.4006 28.3642C33.9538 28.5876 33.5071 28.6993 33.0603 28.8109C31.2733 29.146 29.1511 28.2525 28.5927 26.4655C28.1459 25.1252 28.7044 23.7849 29.1511 22.4446C30.0447 19.8757 31.0499 17.1952 30.9382 14.4029C30.9382 13.0626 30.6031 11.834 30.0447 10.6054C28.8161 10.3821 27.029 10.4937 25.1303 12.0574C21.4445 14.9614 21.4445 15.7432 19.5458 15.7432Z" fill="url(#paint10_linear_1395_1018)"/>
<path d="M4.9144 24.5666C4.35595 27.5822 4.9144 31.1563 4.9144 31.1563L10.4989 34.9538C11.2807 35.5122 12.1743 35.6239 13.0678 35.5122L19.5458 34.172L26.0239 35.5122C26.9174 35.7356 27.8109 35.5122 28.5927 34.9538L34.1772 31.1563C34.1772 31.1563 34.7357 27.4705 34.1772 24.4549C24.4602 26.577 14.5198 26.6887 4.9144 24.5666Z" fill="#061E31"/>
<path d="M4.9144 24.2315C4.35595 27.2472 4.9144 31.1563 4.9144 31.1563L11.3924 34.9538C11.6158 35.0655 11.8392 35.0655 12.0626 35.0655L19.5458 33.8369L27.0291 35.0655C27.2524 35.0655 27.4758 35.0655 27.6992 34.9538L34.1772 31.1563C34.1772 31.1563 34.7357 27.1355 34.1772 24.1198C24.4602 26.3536 14.5198 26.3536 4.9144 24.2315Z" fill="url(#paint11_linear_1395_1018)"/>
<path d="M4.9144 24.1198L5.58454 24.2315C14.7431 26.0185 24.2368 26.0185 33.3954 24.2315L34.0656 24.1198" stroke="#061E31" stroke-width="0.2464" stroke-miterlimit="10"/>
<path d="M4.9144 24.2316L5.58454 24.3433C14.7431 26.1303 24.2368 26.1303 33.3954 24.3433L34.0656 24.2316" stroke="url(#paint12_linear_1395_1018)" stroke-width="0.2464" stroke-miterlimit="10"/>
<path d="M18.9873 37.5227C22.9969 37.5227 26.2472 34.2723 26.2472 30.2628C26.2472 26.2533 22.9969 23.0029 18.9873 23.0029C14.9778 23.0029 11.7275 26.2533 11.7275 30.2628C11.7275 34.2723 14.9778 37.5227 18.9873 37.5227Z" fill="url(#paint13_radial_1395_1018)"/>
<path d="M20.6627 34.0603L19.4341 33.8369L17.647 34.1719V25.7952H20.6627V34.0603Z" fill="#57E2F7"/>
<path d="M9.15861 33.6136L6.14297 31.9383V24.7901L9.15861 25.2368V33.6136Z" fill="#004F71"/>
<path d="M22.4498 34.3953L21.4445 34.1719V25.7952H22.4498V34.3953Z" fill="#57E2F7"/>
<path d="M26.1355 34.9538L25.1303 34.7305V25.6835L26.1355 25.5719V34.9538Z" fill="#57E2F7"/>
<path d="M27.5875 46.793C24.0134 51.3723 19.5458 51.2606 19.5458 51.2606V50.032H19.6575C22.1147 50.1437 23.6783 49.5853 24.4601 49.2502C24.7952 49.1385 25.0186 48.9151 25.242 48.8034L27.5875 46.793Z" fill="#061E31"/>
<path d="M11.3924 46.793C14.9665 51.3723 19.4341 51.2606 19.4341 51.2606V50.032H19.3224C16.8652 50.1437 15.3016 49.5853 14.5198 49.2502C14.1847 49.1385 13.9613 48.9151 13.7379 48.8034L11.3924 46.793Z" fill="#061E31"/>
<path d="M34.624 30.2628L36.8578 30.5979" stroke="white" stroke-width="0.2464" stroke-miterlimit="10" stroke-linecap="round"/>
<path d="M4.24425 30.1513L2.12213 30.4863" stroke="white" stroke-width="0.2464" stroke-miterlimit="10" stroke-linecap="round"/>
<path d="M11.9509 47.3516L13.6262 39.8684C13.6262 39.7567 13.7379 39.7567 13.8496 39.7567H25.0186C25.1303 39.7567 25.242 39.8684 25.242 39.8684L26.9174 47.3516L26.5823 47.6867L24.9069 40.0918H14.073L12.2859 47.575L11.9509 47.3516Z" fill="url(#paint14_radial_1395_1018)"/>
<path d="M24.3485 42.2138H14.6314C14.5197 42.2138 14.4081 42.1021 14.4081 41.9904C14.4081 41.8787 14.5197 41.7671 14.6314 41.7671H24.3485C24.4602 41.7671 24.5719 41.8787 24.5719 41.9904C24.5719 42.2138 24.4602 42.2138 24.3485 42.2138Z" fill="url(#paint15_radial_1395_1018)"/>
<path d="M20.8861 45.7878H18.2055C17.6471 45.7878 17.2003 45.3411 17.2003 44.7826C17.2003 44.2242 17.6471 43.7774 18.2055 43.7774H20.8861C21.4445 43.7774 21.8913 44.2242 21.8913 44.7826C22.003 45.3411 21.5562 45.7878 20.8861 45.7878Z" fill="url(#paint16_linear_1395_1018)"/>
<path d="M13.2912 8.14818C13.1795 8.14818 13.0678 8.25987 12.9561 8.25987L14.8548 9.60015V12.7275C14.9665 12.8392 15.0782 12.8392 15.0782 12.9509V9.37677L13.2912 8.14818Z" fill="#4BBEED"/>
<path d="M12.0626 8.59511C11.9509 8.59511 11.8392 8.7068 11.7275 8.7068L13.5146 9.93539V11.6107C13.6262 11.7224 13.7379 11.7224 13.7379 11.8341V9.8237L12.0626 8.59511Z" fill="#4BBEED"/>
<path d="M11.1691 9.04176C11.0574 9.04176 10.9457 9.15345 10.9457 9.15345L12.1743 10.047V10.8288C12.286 10.8288 12.3977 10.9405 12.3977 10.9405V9.93528L11.1691 9.04176Z" fill="#4BBEED"/>
<path d="M15.6367 7.4782V8.7068L14.6315 7.70158C14.5198 7.70158 14.4081 7.81327 14.2964 7.81327L15.6367 9.15356V13.5095C15.7484 13.6212 15.8601 13.7329 15.8601 13.7329V7.4782C15.8601 7.4782 15.7484 7.4782 15.6367 7.4782Z" fill="#4BBEED"/>
<path d="M18.9874 7.47799L18.764 7.2546L17.6471 8.4832L16.5302 7.2546H16.4185L16.3068 7.36629L17.5354 8.81827V11.1638L16.977 10.6053V9.04165H16.7536V10.6053L17.6471 11.4988V15.1846C17.7588 15.2963 17.8705 15.2963 17.8705 15.408V8.81827L18.9874 7.47799Z" fill="#4BBEED"/>
<path d="M18.8757 14.4028L19.0991 14.6262L19.4342 14.1795V13.7327L18.8757 14.4028Z" fill="#4BBEED"/>
<path d="M19.4341 12.7275V12.3925L18.764 13.0626V11.834L19.4341 11.1639V9.37683H19.3224V10.9405L18.6523 11.6106V9.04176H18.4289V15.5198C18.5406 15.5198 18.6523 15.5198 18.6523 15.5198V13.286L19.4341 12.7275Z" fill="#4BBEED"/>
<path d="M16.5302 11.9458V14.2913C16.6419 14.403 16.7536 14.5147 16.7536 14.5147V11.9458H16.5302Z" fill="#4BBEED"/>
<path d="M20.551 13.0626V11.1639V7.3664H20.3276V8.81838L19.6575 8.14824L19.5458 8.25993V8.37162L20.3276 9.15345V11.4989L19.5458 12.2808V12.6158L20.3276 11.834V12.9509L19.5458 13.7327V14.0678L20.3276 13.286V15.5198C20.4393 15.5198 20.551 15.5198 20.551 15.4081V13.0626Z" fill="#4BBEED"/>
<path d="M19.6575 11.0522V9.37688H19.5458V11.1639L19.6575 11.0522Z" fill="#4BBEED"/>
<path d="M22.1147 12.0573C22.1147 12.2807 22.2264 12.504 22.4498 12.504C22.6732 12.504 22.7849 12.2807 22.7849 12.169C22.7849 12.0573 22.5615 11.8339 22.4498 11.8339C22.3381 11.8339 22.2264 11.8339 22.2264 11.9456L21.2212 10.9404V7.2546C21.1095 7.2546 20.9978 7.2546 20.9978 7.2546V10.9404L22.1147 12.0573Z" fill="#4BBEED"/>
<path d="M21.1095 15.2964C21.2212 15.2964 21.3329 15.1847 21.3329 15.073V12.169L22.8965 13.7327C23.0082 13.621 23.0082 13.621 23.1199 13.5093L21.1095 11.4989V15.2964V15.2964Z" fill="#4BBEED"/>
<path d="M22.3381 7.3664C22.2264 7.3664 22.1147 7.3664 22.1147 7.3664V10.382L24.3486 12.6158C24.4602 12.5042 24.4602 12.5042 24.5719 12.3925L22.3381 10.2704V7.3664Z" fill="#4BBEED"/>
<path d="M23.6784 7.58973C23.5667 7.58973 23.455 7.58973 23.455 7.58973V10.2703L25.1303 11.9456C25.242 11.834 25.242 11.834 25.3537 11.7223L23.7901 10.1586V7.58973H23.6784Z" fill="#4BBEED"/>
<path d="M24.4602 9.82364V7.81322C24.3485 7.81322 24.2368 7.81322 24.2368 7.70153V9.82364H24.4602Z" fill="#4BBEED"/>
<path d="M24.907 10.7171L25.1304 10.9405L25.4655 10.6054V8.03655C25.3538 8.03655 25.2421 7.92486 25.2421 7.92486V10.4937L24.907 10.7171Z" fill="#4BBEED"/>
<path d="M27.0291 8.7068C26.9174 8.7068 26.8057 8.59511 26.8057 8.59511L25.8005 9.60032V11.4991C25.9122 11.3874 26.0239 11.3874 26.0239 11.3874V9.60032L27.0291 8.7068Z" fill="#4BBEED"/>
<path d="M26.9174 9.6001C26.6941 9.6001 26.5824 9.82348 26.5824 9.93517C26.5824 10.1586 26.8057 10.2702 26.9174 10.2702C27.1408 10.2702 27.2525 10.0469 27.2525 9.93517V9.82348L28.0343 9.04165C27.9227 9.04165 27.811 8.92996 27.811 8.92996L27.1408 9.6001C27.0291 9.71179 26.9174 9.6001 26.9174 9.6001Z" fill="#4BBEED"/>
<path d="M29.8213 10.6054C28.8161 10.382 27.8109 10.6054 26.9173 10.9404C26.0238 11.3872 25.242 11.9456 24.4602 12.6158C23.79 13.2859 23.0082 13.9561 22.2264 14.7379C21.8913 15.073 21.4445 15.5197 20.9978 15.7431C20.551 15.9665 19.9926 16.0782 19.4341 16.0782C18.8757 16.0782 18.4289 15.9665 17.8704 15.7431C17.6471 15.6314 17.4237 15.5197 17.2003 15.2964C16.9769 15.073 16.7535 14.9613 16.6418 14.7379L14.408 12.6158C14.073 12.2807 13.6262 11.9456 13.2911 11.6106C12.8444 11.2755 12.5093 11.0521 12.0625 10.8287C11.169 10.382 10.1638 10.382 9.1586 10.6054C10.1638 10.2703 11.169 10.2703 12.1742 10.6054C12.621 10.8287 13.0678 11.0521 13.5145 11.3872C13.9613 11.6106 14.408 11.9456 14.7431 12.2807C15.5249 12.9509 16.1951 13.621 16.9769 14.2911C17.2003 14.4028 17.312 14.6262 17.5354 14.7379C17.7587 14.8496 17.9821 15.073 18.2055 15.073C18.5406 15.2964 19.099 15.2964 19.5458 15.2964C19.9926 15.2964 20.4393 15.2964 20.8861 15.073C21.3328 14.8496 21.6679 14.6262 22.003 14.1794L24.2368 12.169C25.0186 11.6106 25.9121 11.0521 26.8057 10.7171C27.8109 10.382 28.9278 10.2703 29.8213 10.6054Z" fill="#34B4E8"/>
<path d="M9.82874 9.82358C10.4989 9.37682 11.2807 8.93006 12.0625 8.59499C12.8444 8.25992 13.6262 7.92485 14.5197 7.70147C16.1951 7.25471 17.8704 7.03133 19.5458 6.91964C21.2211 6.91964 22.8965 7.14302 24.5718 7.70147C26.2472 8.14823 27.8109 8.81837 29.1511 9.82358C27.6992 9.04175 26.1355 8.37161 24.4602 7.92485C22.7848 7.47809 21.1094 7.25471 19.4341 7.25471C16.0834 7.25471 12.7327 8.14823 9.82874 9.82358Z" fill="#061E31"/>
<path d="M22.3381 6.02617C22.3381 6.24955 22.2264 6.58462 22.003 6.69631C21.8913 6.808 21.8913 6.808 21.7797 6.91969C21.668 6.91969 21.5563 7.03138 21.4446 7.03138H21.3329H17.6471H17.5354C17.4237 7.03138 17.312 7.03138 17.2004 6.91969C16.8653 6.808 16.6419 6.36124 16.6419 6.02617C16.6419 5.80279 16.7536 5.46772 16.977 5.35603C17.0887 5.24434 17.0887 5.24434 17.2004 5.13265C17.312 5.13265 17.4237 5.02096 17.5354 5.02096H17.6471H21.3329H21.4446C21.5563 5.02096 21.668 5.02096 21.7797 5.13265C22.1147 5.24434 22.3381 5.57941 22.3381 6.02617Z" stroke="#061E31" stroke-width="0.2464" stroke-miterlimit="10"/>
<path d="M20.9978 5.02096H17.9822C17.7588 5.02096 17.4237 4.79758 17.4237 4.46251C17.4237 4.23913 17.6471 3.90406 17.9822 3.90406H20.9978C21.2212 3.90406 21.5563 4.12744 21.5563 4.46251C21.5563 4.79758 21.3329 5.02096 20.9978 5.02096Z" fill="#107DBB" stroke="#081626" stroke-width="0.2464" stroke-miterlimit="10"/>
<path d="M22.3381 6.02628C22.3381 6.24966 22.2264 6.58473 22.003 6.69642C21.8914 6.80811 21.8913 6.80811 21.7797 6.9198C21.7797 6.9198 21.668 6.80811 21.668 6.69642V5.35614C21.668 5.24445 21.668 5.24445 21.7797 5.13276C22.1147 5.24445 22.3381 5.57952 22.3381 6.02628Z" fill="#107DBB" stroke="#081626" stroke-width="0.2464" stroke-miterlimit="10"/>
<path d="M17.312 5.35614V6.69642C17.312 6.80811 17.312 6.80811 17.2004 6.9198C16.8653 6.80811 16.6419 6.36135 16.6419 6.02628C16.6419 5.8029 16.7536 5.46783 16.977 5.35614C17.0887 5.24445 17.0887 5.24445 17.2004 5.13276C17.2004 5.13276 17.312 5.24445 17.312 5.35614Z" fill="#107DBB" stroke="#081626" stroke-width="0.2464" stroke-miterlimit="10"/>
<path d="M17.7588 7.03138C17.4237 7.03138 17.2003 6.808 17.2003 6.47293V5.57941C17.2003 5.24434 17.4237 5.02096 17.7588 5.02096C18.0939 5.02096 18.3173 5.24434 18.3173 5.57941V6.58462C18.3173 6.808 18.0939 7.03138 17.7588 7.03138Z" fill="#107DBB" stroke="#081626" stroke-width="0.2464" stroke-miterlimit="10"/>
<path d="M21.2212 7.03138C20.8861 7.03138 20.6627 6.808 20.6627 6.47293V5.57941C20.6627 5.24434 20.8861 5.02096 21.2212 5.02096C21.5562 5.02096 21.7796 5.24434 21.7796 5.57941V6.58462C21.6679 6.808 21.4446 7.03138 21.2212 7.03138Z" fill="#107DBB" stroke="#081626" stroke-width="0.2464" stroke-miterlimit="10"/>
<path d="M20.1043 7.03138C19.7692 7.03138 19.5458 6.808 19.5458 6.47293V5.57941C19.5458 5.24434 19.7692 5.02096 20.1043 5.02096C20.4394 5.02096 20.6627 5.24434 20.6627 5.57941V6.47293C20.6627 6.808 20.4394 7.03138 20.1043 7.03138Z" fill="#107DBB" stroke="#081626" stroke-width="0.2464" stroke-miterlimit="10"/>
<path d="M18.8757 7.03138C18.5406 7.03138 18.3173 6.808 18.3173 6.47293V5.57941C18.3173 5.24434 18.5406 5.02096 18.8757 5.02096C19.2108 5.02096 19.4342 5.24434 19.4342 5.57941V6.47293C19.5459 6.808 19.2108 7.03138 18.8757 7.03138Z" fill="#107DBB" stroke="#081626" stroke-width="0.2464" stroke-miterlimit="10"/>
<path d="M21.2212 5.57941V6.13786" stroke="#4BBEED" stroke-width="0.2464" stroke-miterlimit="10" stroke-linecap="round" stroke-linejoin="round"/>
<path d="M20.1043 5.57941V6.13786" stroke="#4BBEED" stroke-width="0.2464" stroke-miterlimit="10" stroke-linecap="round" stroke-linejoin="round"/>
<path d="M18.8757 5.57941V6.13786" stroke="#4BBEED" stroke-width="0.2464" stroke-miterlimit="10" stroke-linecap="round" stroke-linejoin="round"/>
<path d="M17.7588 5.57941V6.13786" stroke="#4BBEED" stroke-width="0.2464" stroke-miterlimit="10" stroke-linecap="round" stroke-linejoin="round"/>
<path d="M17.9821 4.35071H20.8861" stroke="#4BBEED" stroke-width="0.1232" stroke-miterlimit="10" stroke-linecap="round" stroke-linejoin="round"/>
<path d="M53.6113 36.7408H54.1698C54.5048 36.7408 54.8399 36.8525 55.175 36.9642C55.175 36.8525 55.175 36.7408 55.175 36.6291C55.175 36.5174 55.175 36.5174 55.175 36.4057C54.6165 35.8473 54.2814 35.2888 53.9464 34.6187C53.8347 34.6187 53.723 34.6187 53.6113 34.6187H50.1489C49.8138 34.6187 49.5905 34.7304 49.4788 34.8421C49.3671 34.9537 49.1437 35.1771 49.1437 35.5122V38.4161C49.1437 38.6395 49.2554 38.8629 49.3671 39.0863C49.4788 39.198 49.8138 39.3097 50.1489 39.3097C50.3723 39.3097 50.5957 39.3097 50.7074 39.198C50.8191 39.198 51.0424 39.0863 51.0424 39.0863V37.1876H52.9412V37.2992C53.0529 37.4109 53.0529 37.5226 53.1645 37.746C53.1645 37.9694 53.2762 38.1928 53.2762 38.4161C53.2762 38.8629 53.1645 39.198 53.0529 39.533C52.9412 39.8681 52.7178 40.2032 52.4944 40.5383C52.271 40.7616 51.936 40.985 51.4892 41.2084C51.0424 41.3201 50.5957 41.4318 50.0372 41.4318C49.032 41.4318 48.2502 41.0967 47.6917 40.5383C47.1333 39.9798 46.7982 39.198 46.7982 38.1928C46.7982 37.6343 46.9099 37.1876 47.0216 36.7408C47.1333 36.294 47.3567 35.959 47.4683 35.7356C47.3567 35.6239 47.245 35.5122 47.0216 35.4005C46.7982 35.2888 46.5748 35.1771 46.3514 35.1771C45.9047 35.1771 45.4579 35.5122 45.1228 36.0706C44.7878 36.6291 44.6761 37.5226 44.6761 38.5278C44.6761 39.3097 44.7878 39.9798 45.0112 40.6499C45.2345 41.3201 45.5696 41.9902 46.0164 42.437C46.4631 42.9954 47.0216 43.4422 47.6917 43.7773C48.3619 44.1123 49.1437 44.224 50.0372 44.224C50.9307 44.224 51.7126 44.1123 52.271 43.7773C52.7178 43.5539 53.1645 43.2188 53.4996 42.8838C53.6113 42.6604 53.6113 42.5487 53.6113 42.437V36.7408Z" fill="#21BBFF"/>
<path d="M55.175 29.4809V29.0341C54.2814 28.364 53.6113 27.4704 53.1645 26.5769V30.0393H51.0424V26.6886C51.0424 26.4652 50.9307 26.2419 50.819 26.0185C50.7074 25.9068 50.3723 25.7951 50.0372 25.7951C49.8138 25.7951 49.5905 25.7951 49.4788 25.9068C49.3671 25.9068 49.2554 26.0185 49.1437 26.0185V30.0393H47.245V26.2419C47.245 26.0185 47.1333 25.7951 47.0216 25.5717C46.9099 25.46 46.5748 25.3483 46.2397 25.3483C46.0164 25.3483 45.793 25.3483 45.6813 25.46C45.5696 25.46 45.4579 25.5717 45.3462 25.5717V31.1562C45.3462 31.603 45.4579 31.9381 45.6813 32.1614C45.9047 32.3848 46.2397 32.4965 46.6865 32.4965H53.6113C53.6113 31.3796 54.0581 30.2627 55.175 29.4809Z" fill="#21BBFF"/>
<path d="M47.1333 18.8704V16.86C47.1333 16.6366 47.0216 16.4132 46.9099 16.1898C46.7982 16.0782 46.4632 15.9665 46.0164 15.9665C45.793 15.9665 45.5696 15.9665 45.3463 16.0781C45.2346 16.0781 45.0112 16.1898 44.8995 16.1898V23.5614C44.8995 23.7848 45.0112 24.0082 45.1229 24.2315C45.2346 24.3432 45.5696 24.4549 46.0164 24.4549C46.2398 24.4549 46.4632 24.4549 46.6865 24.3432C46.7982 24.3432 47.0216 24.2315 47.1333 24.2315V21.551H52.7178C52.9412 20.5458 53.4997 19.6522 54.1698 18.8704H47.1333V18.8704Z" fill="#21BBFF"/>
<path d="M66.0089 14.9613C66.7908 14.4028 67.5726 14.5145 68.2427 14.9613C68.5778 15.2964 69.0246 15.8548 69.6947 16.6366C70.0298 17.0834 70.4765 17.4185 70.9233 17.5302V12.5041C70.9233 12.3924 70.9233 12.2807 70.6999 12.169C70.6999 12.169 70.6999 12.169 70.5882 12.169H69.2479C68.9129 12.169 68.5778 12.169 68.2427 12.2807C67.2375 12.5041 66.2323 13.3976 65.1154 14.7379C64.7803 15.1847 64.4453 15.8548 64.2219 16.4133L64.1102 16.6366H63.8868C61.5413 16.1899 59.3075 16.5249 57.1854 17.4185C54.3931 18.6471 53.0529 20.6575 53.0529 23.338C53.0529 25.6835 54.1698 27.5823 56.4036 28.9226L56.7386 29.1459L56.0685 29.481C54.6165 30.3745 53.9464 31.6031 54.1698 33.2785C54.1698 33.3902 54.1698 33.5019 54.2814 33.7252C54.8399 36.0707 57.2971 37.7461 61.653 38.863C63.105 39.1981 64.3336 39.6448 65.2271 40.0916C66.344 40.65 66.9024 41.2085 67.1258 41.7669C67.2375 42.102 67.1258 42.4371 67.0141 42.6605C66.4557 43.554 65.1154 44.0007 62.6582 44.0007C61.653 44.0007 60.7595 43.7774 59.9777 43.2189C59.1958 42.6605 58.3023 41.6552 57.2971 40.2033C56.962 39.7565 56.8503 39.4214 56.6269 39.1981C55.8451 38.0812 54.9516 37.5227 54.1698 37.411V42.3254C54.1698 42.3254 54.1698 42.5488 54.6165 42.7722C54.7282 42.8838 54.9516 42.9955 55.175 43.1072C57.2971 44.1124 59.866 44.6709 62.6582 44.6709C63.8868 44.6709 65.0037 44.5592 66.0089 44.3358C69.1363 43.6657 70.6999 42.102 70.6999 39.6448C70.6999 38.7513 70.5882 38.0812 70.2532 37.411C69.4713 35.4006 67.1258 33.9486 63.2167 32.9434C60.9829 32.385 59.3075 31.9382 58.414 31.6031C57.1854 31.1564 56.6269 30.8213 56.5153 30.2628C56.5153 30.0395 56.6269 29.7044 57.0737 29.481L57.1854 29.3693H57.2971C58.7491 29.9278 60.201 30.2628 61.7647 30.2628C63.44 30.2628 65.0037 29.9278 66.5674 29.2576C69.3596 28.029 70.6999 26.0186 70.6999 23.2264C70.6999 22.3328 70.5882 21.551 70.2532 20.7692C69.4713 18.7588 67.5726 17.3068 64.7803 16.6366V16.86L64.892 16.6366C65.0037 16.4133 65.1154 16.1899 65.1154 16.0782C65.3388 15.6314 65.6739 15.2964 66.0089 14.9613ZM65.3388 23.4497C65.3388 24.6783 65.3388 25.6835 65.2271 26.3537C64.892 28.6992 63.8868 29.8161 62.0998 29.8161C61.0946 29.8161 60.201 29.3693 59.6426 28.5875C59.0841 27.694 58.7491 26.0186 58.7491 23.338C58.7491 22.1095 58.7491 21.1042 58.8608 20.4341C59.1958 18.0886 60.201 16.9717 61.9881 16.9717C62.9933 16.9717 63.8868 17.4185 64.4453 18.2003C65.1154 19.2055 65.3388 20.8809 65.3388 23.4497Z" fill="#05092B"/>
<path d="M87.0067 17.1952C86.0015 16.8601 84.8846 16.6367 83.5443 16.6367C82.0924 16.6367 80.6404 16.8601 79.4118 17.3069C77.4014 18.2004 75.8377 19.764 74.8325 21.8862C73.939 23.8966 73.7156 25.907 74.0507 28.0291C74.4974 30.8214 75.9494 32.9435 78.2949 34.2838C79.8586 35.1773 81.4222 35.6241 83.0976 35.6241C86.0015 35.6241 88.4587 34.2838 90.2458 31.7149C90.3574 31.4915 90.4691 31.3798 90.4691 31.2681C90.4691 31.1564 90.3574 31.0448 90.1341 31.0448C90.1341 31.0448 90.1341 31.0448 90.0224 31.0448C90.0224 31.0448 89.9107 31.1564 89.9107 31.2681C89.0172 32.385 87.6769 32.9435 85.8898 32.7201C84.3262 32.6084 82.9859 31.9383 82.0924 30.9331C81.0871 29.8162 80.5287 28.4759 80.1936 26.6888V26.4655H91.3627C91.586 26.4655 91.586 26.2421 91.6977 26.1304C91.6977 23.2264 90.9159 20.7693 89.5756 19.0939C88.9055 18.3121 88.0119 17.6419 87.0067 17.1952ZM84.3262 25.907H80.417H80.1936V25.6836C80.1936 25.1252 80.0819 24.5667 80.0819 24.0083C80.0819 23.4498 80.0819 22.8914 80.0819 22.3329C80.3053 18.9822 81.4222 17.3069 83.2093 17.3069H83.5443C85.3314 17.6419 86.2249 19.764 86.3366 23.7849C86.3366 25.1252 85.6664 25.7953 84.3262 25.907Z" fill="#05092B"/>
<path d="M117.722 34.8422C116.381 34.8422 115.488 34.6188 115.041 34.0603C114.818 33.7253 114.594 33.0551 114.594 30.4863V22.7796C114.594 21.216 114.147 19.764 113.254 18.7588C112.137 17.4185 110.573 16.86 108.675 16.86C106.552 16.86 104.542 17.8653 102.867 19.6523L102.42 20.0991V17.3068C102.42 17.0834 102.42 16.9717 102.42 16.9717C102.42 16.86 102.308 16.86 102.197 16.86C102.197 16.86 102.085 16.86 101.973 16.9717L93.038 21.9978C92.9263 22.1095 92.8146 22.2212 92.9263 22.4446C93.038 22.5562 93.1496 22.5562 93.2613 22.5562C93.8198 22.3329 94.3782 22.3329 94.9367 22.6679C95.8302 23.2264 96.277 24.1199 96.277 25.3485V30.5979C96.277 32.4967 96.1653 33.6136 95.8302 34.172C95.4951 34.7305 94.6016 35.0656 93.1496 35.0656C93.038 35.0656 92.9263 35.1772 92.8146 35.4006C92.8146 35.5123 92.9263 35.624 93.1496 35.624H104.43C104.654 35.624 104.654 35.5123 104.765 35.2889C104.765 35.1772 104.654 35.0656 104.43 35.0656C104.319 35.0656 104.095 35.0656 103.984 35.0656C102.978 34.7305 102.532 33.3902 102.42 30.7096V21.216V21.1043C102.643 20.7692 102.978 20.4341 103.313 20.0991C104.319 19.0938 105.436 18.8705 106.552 19.4289C107.669 19.9874 108.34 21.216 108.34 22.8913V30.5979C108.34 32.0499 108.228 33.0551 108.116 33.7253C107.893 34.5071 107.334 34.9539 106.552 34.9539C106.441 34.9539 106.329 34.9539 106.217 35.2889C106.217 35.5123 106.329 35.5123 106.552 35.624H117.61C117.722 35.624 117.833 35.5123 117.945 35.2889C118.057 34.9539 117.945 34.8422 117.722 34.8422Z" fill="#05092B"/>
<path d="M131.571 34.8422C130.231 34.8422 129.337 34.6188 129.002 34.0603C128.667 33.6136 128.555 32.385 128.444 30.3746V17.3068C128.444 17.0834 128.444 17.0834 128.444 16.9717C128.444 16.9717 128.332 16.86 128.22 16.86C128.109 16.86 128.109 16.86 127.997 16.86L118.95 21.8861C118.838 21.9978 118.727 22.1095 118.838 22.3329C118.95 22.4446 119.062 22.4446 119.173 22.4446C119.397 22.3329 119.62 22.2212 119.844 22.2212C120.179 22.2212 120.514 22.3329 120.849 22.5562C121.742 23.1147 122.189 24.0082 122.189 25.2368V30.4863C122.189 32.385 122.077 33.5019 121.742 34.0603C121.407 34.6188 120.514 34.9539 119.062 34.9539C118.95 34.9539 118.838 35.0656 118.727 35.2889C118.727 35.4006 118.838 35.5123 119.062 35.5123H131.459C131.571 35.5123 131.683 35.4006 131.794 35.1772C131.906 35.0656 131.906 34.9539 131.571 34.8422Z" fill="#05092B"/>
<path d="M145.309 17.1952C144.415 16.8601 143.187 16.6367 141.847 16.6367C140.395 16.6367 138.943 16.8601 137.714 17.3069C135.704 18.2004 134.14 19.764 133.135 21.8862C132.241 23.8966 132.018 25.907 132.353 28.0291C132.8 30.8214 134.252 32.9435 136.597 34.2838C138.161 35.1773 139.724 35.6241 141.4 35.6241C144.304 35.6241 146.761 34.2838 148.548 31.7149C148.66 31.4915 148.771 31.3798 148.771 31.2681C148.771 31.1564 148.66 31.0448 148.436 31.0448C148.436 31.0448 148.436 31.0448 148.325 31.0448C148.325 31.0448 148.213 31.1564 148.213 31.2681C147.319 32.385 145.979 32.8318 144.192 32.7201C142.628 32.6084 141.288 31.9383 140.395 30.9331C139.389 29.8162 138.831 28.4759 138.496 26.6888V26.4655H149.665C149.888 26.4655 149.888 26.3538 150 26.1304C150 23.2264 149.218 20.7693 147.878 19.0939C147.208 18.3121 146.314 17.6419 145.309 17.1952ZM142.628 25.907H138.608H138.496V25.6836C138.496 25.1252 138.384 24.5667 138.384 24.0083C138.384 23.4498 138.384 22.8914 138.384 22.3329C138.608 18.9822 139.724 17.3069 141.512 17.3069H141.847C143.634 17.6419 144.527 19.764 144.639 23.7849C144.639 25.1252 143.969 25.7953 142.628 25.907Z" fill="#05092B"/>
<path d="M124.87 14.7379C125.54 14.7379 126.21 14.5145 126.88 14.1794C127.997 13.3976 128.555 12.5041 128.555 11.1638C128.555 10.8287 128.555 10.6054 128.444 10.2703C128.109 9.0417 127.439 8.25987 126.21 7.8131C125.316 7.47803 124.423 7.47803 123.641 7.8131C123.418 7.9248 123.194 8.03649 122.859 8.14818C121.742 8.81832 121.184 9.82353 121.184 11.1638C121.184 11.834 121.407 12.5041 121.742 13.1742C122.524 14.1794 123.529 14.7379 124.87 14.7379Z" fill="url(#paint17_linear_1395_1018)"/>
<defs>
<linearGradient id="paint0_linear_1395_1018" x1="2.36836" y1="26.0441" x2="5.21322" y2="38.9932" gradientUnits="userSpaceOnUse">
<stop stop-color="#7799A5"/>
<stop offset="0.5053" stop-color="#EEF3F6"/>
<stop offset="1" stop-color="#3A6177"/>
</linearGradient>
<linearGradient id="paint1_linear_1395_1018" x1="4.03657" y1="33.3996" x2="4.50902" y2="36.1662" gradientUnits="userSpaceOnUse">
<stop stop-color="#E5EEF2"/>
<stop offset="1" stop-color="#7294A2"/>
</linearGradient>
<linearGradient id="paint2_linear_1395_1018" x1="9.39596" y1="19.3724" x2="3.83691" y2="20.8112" gradientUnits="userSpaceOnUse">
<stop stop-color="#E5EEF2"/>
<stop offset="1" stop-color="#7294A2"/>
</linearGradient>
<linearGradient id="paint3_linear_1395_1018" x1="36.6113" y1="26.044" x2="33.7661" y2="38.9931" gradientUnits="userSpaceOnUse">
<stop stop-color="#7799A5"/>
<stop offset="0.5053" stop-color="#EEF3F6"/>
<stop offset="1" stop-color="#3A6177"/>
</linearGradient>
<linearGradient id="paint4_linear_1395_1018" x1="34.9429" y1="33.3996" x2="34.4707" y2="36.1662" gradientUnits="userSpaceOnUse">
<stop stop-color="#E5EEF2"/>
<stop offset="1" stop-color="#7294A2"/>
</linearGradient>
<radialGradient id="paint5_radial_1395_1018" cx="0" cy="0" r="1" gradientUnits="userSpaceOnUse" gradientTransform="translate(19.5438 8.55732) scale(7.45287)">
<stop stop-color="#00B8F0"/>
<stop offset="1" stop-color="#005886"/>
</radialGradient>
<linearGradient id="paint6_linear_1395_1018" x1="29.5838" y1="19.3724" x2="35.1426" y2="20.8112" gradientUnits="userSpaceOnUse">
<stop stop-color="#E5EEF2"/>
<stop offset="1" stop-color="#7294A2"/>
</linearGradient>
<linearGradient id="paint7_linear_1395_1018" x1="11.5195" y1="39.37" x2="6.94142" y2="41.0704" gradientUnits="userSpaceOnUse">
<stop stop-color="#E5EEF2"/>
<stop offset="1" stop-color="#7294A2"/>
</linearGradient>
<linearGradient id="paint8_linear_1395_1018" x1="19.8453" y1="28.4065" x2="-5.92236" y2="37.3009" gradientUnits="userSpaceOnUse">
<stop stop-color="white"/>
<stop offset="1" stop-color="#A4C4D1"/>
</linearGradient>
<linearGradient id="paint9_linear_1395_1018" x1="27.46" y1="39.3701" x2="32.0378" y2="41.0705" gradientUnits="userSpaceOnUse">
<stop stop-color="#E5EEF2"/>
<stop offset="1" stop-color="#7294A2"/>
</linearGradient>
<linearGradient id="paint10_linear_1395_1018" x1="19.134" y1="28.4066" x2="44.9018" y2="37.301" gradientUnits="userSpaceOnUse">
<stop stop-color="white"/>
<stop offset="1" stop-color="#A4C4D1"/>
</linearGradient>
<linearGradient id="paint11_linear_1395_1018" x1="4.67158" y1="29.6428" x2="34.3049" y2="29.6428" gradientUnits="userSpaceOnUse">
<stop stop-color="#1F5F88"/>
<stop offset="0.5212" stop-color="#1ABDCC"/>
<stop offset="1" stop-color="#1C5B85"/>
</linearGradient>
<linearGradient id="paint12_linear_1395_1018" x1="4.90245" y1="24.9811" x2="34.0574" y2="24.9811" gradientUnits="userSpaceOnUse">
<stop stop-color="#4CC7ED"/>
<stop offset="1" stop-color="#1ABDCC"/>
</linearGradient>
<radialGradient id="paint13_radial_1395_1018" cx="0" cy="0" r="1" gradientUnits="userSpaceOnUse" gradientTransform="translate(18.9355 30.2692) scale(7.24211)">
<stop stop-color="white"/>
<stop offset="1" stop-color="white" stop-opacity="0"/>
</radialGradient>
<radialGradient id="paint14_radial_1395_1018" cx="0" cy="0" r="1" gradientUnits="userSpaceOnUse" gradientTransform="translate(19.4901 43.6739) scale(5.9962)">
<stop stop-color="#25BDCC"/>
<stop offset="1" stop-color="#005786"/>
</radialGradient>
<radialGradient id="paint15_radial_1395_1018" cx="0" cy="0" r="1" gradientUnits="userSpaceOnUse" gradientTransform="translate(19.4902 42.0587) scale(3.57789)">
<stop stop-color="#25BDCC"/>
<stop offset="1" stop-color="#005786"/>
</radialGradient>
<linearGradient id="paint16_linear_1395_1018" x1="19.5674" y1="47.2439" x2="19.6333" y2="44.2797" gradientUnits="userSpaceOnUse">
<stop stop-color="#E5EEF2"/>
<stop offset="1" stop-color="#7294A2"/>
</linearGradient>
<linearGradient id="paint17_linear_1395_1018" x1="121.474" y1="7.30112" x2="127.749" y2="14.243" gradientUnits="userSpaceOnUse">
<stop offset="0.2206" stop-color="#FFCB43"/>
<stop offset="1" stop-color="#FF539B"/>
</linearGradient>
</defs>
</svg>
