<?xml version="1.0" encoding="utf-8"?>
<!-- Generator: Adobe Illustrator 24.0.2, SVG Export Plug-In . SVG Version: 6.00 Build 0)  -->
<svg version="1.1" id="Layer_1" xmlns="http://www.w3.org/2000/svg" xmlns:xlink="http://www.w3.org/1999/xlink" x="0px" y="0px"
	 viewBox="0 0 89.6 30" style="enable-background:new 0 0 89.6 30;" xml:space="preserve">
<style type="text/css">
	.st0{fill:#21BBFF;}
	.st1{fill:url(#SVGID_1_);}
	.st2{fill:#101435;}
	.st3{fill:#FFFFFF;}
	.st4{fill:#107DBB;stroke:#081626;stroke-width:8.213934e-02;stroke-miterlimit:10;}
	.st5{fill:none;stroke:#081626;stroke-width:8.213934e-02;stroke-miterlimit:10;}
	.st6{fill:none;stroke:#4BBEED;stroke-width:0.1643;stroke-linecap:round;stroke-linejoin:round;stroke-miterlimit:10;}
	.st7{fill:#00529A;}
	.st8{fill:#061E31;}
	.st9{fill:url(#SVGID_2_);stroke:#062138;stroke-width:0.1643;stroke-miterlimit:10;}
	.st10{fill:none;stroke:#3CC5F2;stroke-width:0.1643;stroke-miterlimit:10;}
	.st11{fill:url(#SVGID_3_);}
	.st12{fill:url(#SVGID_4_);}
	.st13{fill:url(#SVGID_5_);stroke:#062138;stroke-width:0.1643;stroke-miterlimit:10;}
	.st14{fill:url(#SVGID_6_);}
	.st15{fill:url(#SVGID_7_);}
	.st16{fill:url(#SVGID_8_);}
	.st17{fill:url(#SVGID_9_);}
	.st18{fill:url(#SVGID_10_);}
	.st19{fill:url(#SVGID_11_);}
	.st20{fill:url(#SVGID_12_);}
	.st21{fill:url(#SVGID_13_);}
	.st22{fill:none;stroke:#061E31;stroke-width:0.1643;stroke-miterlimit:10;}
	.st23{fill:none;stroke:url(#SVGID_14_);stroke-width:0.1643;stroke-miterlimit:10;}
	.st24{opacity:0.5;fill:url(#SVGID_15_);}
	.st25{opacity:0.8;fill:#57E2F7;}
	.st26{fill:#004F71;}
	.st27{fill:none;stroke:#FFFFFF;stroke-width:0.1643;stroke-linecap:round;stroke-miterlimit:10;}
	.st28{fill:url(#SVGID_16_);}
	.st29{fill:url(#SVGID_17_);}
	.st30{fill:url(#SVGID_18_);}
	.st31{fill:none;}
	.st32{fill:#4BBEED;}
	.st33{fill:#34B4E8;}
	.st34{fill:#107DBB;stroke:#081626;stroke-width:0.1643;stroke-miterlimit:10;}
	.st35{fill:none;stroke:#4BBEED;stroke-width:8.213934e-02;stroke-linecap:round;stroke-linejoin:round;stroke-miterlimit:10;}
</style>
<g>
	<g>
		<g>
			<path class="st0" d="M32,21.3h0.3c0.2,0,0.4,0,0.6,0.1c0-0.1,0-0.1,0-0.2c0,0,0-0.1,0-0.1c-0.3-0.3-0.6-0.7-0.7-1.1
				c-0.1,0-0.1,0-0.2,0h-2.1c-0.2,0-0.3,0-0.4,0.1c-0.1,0.1-0.1,0.2-0.1,0.4v1.7c0,0.2,0,0.3,0.1,0.4c0.1,0.1,0.2,0.1,0.5,0.1
				c0.1,0,0.2,0,0.4-0.1c0.1,0,0.2-0.1,0.2-0.1v-1.1h1.1l0,0c0,0.1,0.1,0.2,0.1,0.3c0,0.1,0,0.3,0,0.4c0,0.2,0,0.5-0.1,0.7
				c-0.1,0.2-0.2,0.4-0.3,0.6c-0.2,0.2-0.4,0.3-0.6,0.4c-0.2,0.1-0.5,0.1-0.8,0.1c-0.6,0-1.1-0.2-1.4-0.5c-0.3-0.4-0.5-0.8-0.5-1.4
				c0-0.3,0.1-0.6,0.2-0.9c0.1-0.2,0.2-0.4,0.3-0.6c-0.1-0.1-0.1-0.2-0.2-0.2c-0.1-0.1-0.2-0.1-0.4-0.1c-0.3,0-0.5,0.2-0.7,0.5
				c-0.2,0.4-0.3,0.9-0.3,1.5c0,0.4,0.1,0.9,0.2,1.3c0.1,0.4,0.3,0.8,0.6,1.1c0.3,0.3,0.6,0.6,1,0.8c0.4,0.2,0.9,0.3,1.4,0.3
				c0.5,0,1-0.1,1.4-0.3c0.3-0.1,0.5-0.3,0.8-0.5c0-0.1-0.1-0.2-0.1-0.3V21.3z"/>
			<path class="st0" d="M32.9,16.9v-0.3c-0.5-0.4-0.9-0.9-1.2-1.5v2.1h-1.3v-2c0-0.2,0-0.3-0.1-0.4c-0.1-0.1-0.3-0.1-0.5-0.1
				c-0.1,0-0.2,0-0.4,0.1c-0.1,0-0.2,0.1-0.2,0.1v2.3h-1.1v-2.2c0-0.2,0-0.3-0.1-0.4c-0.1-0.1-0.3-0.1-0.5-0.1c-0.1,0-0.2,0-0.4,0.1
				c-0.1,0-0.2,0.1-0.2,0.1V18c0,0.3,0.1,0.5,0.2,0.6c0.2,0.2,0.4,0.2,0.6,0.2H32C32,18.1,32.3,17.5,32.9,16.9z"/>
			<path class="st0" d="M28.1,10.6V9.4c0-0.2,0-0.3-0.1-0.4c-0.1-0.1-0.3-0.1-0.5-0.1c-0.1,0-0.3,0-0.4,0.1C27,9,26.9,9,26.9,9v4.4
				c0,0.2,0,0.3,0.1,0.4c0.1,0.1,0.3,0.1,0.5,0.1c0.1,0,0.3,0,0.4-0.1c0.1,0,0.2-0.1,0.2-0.1v-1.6h3.3c0.2-0.6,0.4-1.1,0.8-1.6H28.1
				z"/>
		</g>
	</g>
	<linearGradient id="SVGID_1_" gradientUnits="userSpaceOnUse" x1="72.5069" y1="3.7197" x2="76.2513" y2="7.8638">
		<stop  offset="0.2206" style="stop-color:#FFCB43"/>
		<stop  offset="1" style="stop-color:#FF539B"/>
	</linearGradient>
	<path class="st1" d="M74.5,8.1c0.4,0,0.8-0.1,1.2-0.4c0.7-0.4,1-1,1-1.8c0-0.2,0-0.4-0.1-0.5C76.5,4.7,76,4.2,75.3,4
		c-0.5-0.2-1.1-0.2-1.6,0c-0.1,0.1-0.3,0.1-0.4,0.2c-0.7,0.4-1,1-1,1.8c0,0.4,0.1,0.8,0.4,1.2C73.1,7.8,73.7,8.1,74.5,8.1z"/>
	<g>
		<path class="st2" d="M39.4,8.3c0.5-0.3,0.9-0.3,1.4,0c0.2,0.2,0.5,0.5,0.9,1c0.2,0.3,0.5,0.5,0.7,0.5v-3c0,0,0-0.1-0.1-0.2
			c0,0,0,0-0.1,0h-0.9c-0.2,0-0.4,0-0.6,0.1c-0.6,0.2-1.2,0.7-1.8,1.5c-0.2,0.3-0.4,0.6-0.5,1l0,0.1l-0.1,0c-1.4-0.3-2.7-0.1-4,0.5
			c-1.7,0.7-2.5,1.9-2.5,3.6c0,1.4,0.7,2.5,2,3.3l0.2,0.1L33.6,17c-0.9,0.5-1.3,1.3-1.1,2.2c0,0.1,0,0.1,0,0.2
			c0.3,1.4,1.8,2.4,4.4,3c0.9,0.2,1.6,0.5,2.1,0.7c0.7,0.3,1,0.7,1.1,1c0.1,0.2,0,0.4-0.1,0.6c-0.3,0.6-1.2,0.8-2.6,0.8
			c-0.6,0-1.1-0.1-1.6-0.4c-0.5-0.3-1-0.9-1.6-1.8c-0.2-0.3-0.3-0.5-0.4-0.6c-0.5-0.7-1-1-1.5-1.1v2.9c0,0,0,0.1,0.2,0.3
			c0.1,0.1,0.2,0.1,0.3,0.2c1.3,0.6,2.8,0.9,4.5,0.9c0.7,0,1.4-0.1,2-0.2c1.9-0.4,2.8-1.3,2.8-2.8c0-0.5-0.1-1-0.3-1.4
			c-0.5-1.2-1.9-2.1-4.2-2.7c-1.4-0.4-2.3-0.6-2.8-0.8c-0.7-0.3-1.1-0.5-1.1-0.8c0-0.2,0.1-0.3,0.3-0.4l0.1,0l0.1,0
			c0.8,0.4,1.8,0.5,2.7,0.5c1,0,1.9-0.2,2.8-0.6c1.7-0.8,2.5-1.9,2.5-3.6c0-0.5-0.1-1-0.3-1.5c-0.5-1.2-1.6-2.1-3.3-2.5l-0.1,0
			l0.1-0.1c0-0.1,0.1-0.2,0.2-0.4C39,8.7,39.2,8.5,39.4,8.3z M39,13.4c0,0.8,0,1.3-0.1,1.7c-0.2,1.4-0.8,2.1-1.9,2.1
			c-0.6,0-1.1-0.3-1.4-0.7c-0.3-0.5-0.5-1.5-0.5-3.1c0-0.8,0-1.3,0.1-1.7c0.2-1.4,0.8-2.1,1.9-2.1h0c0.6,0,1.1,0.3,1.5,0.7
			C38.9,10.8,39,11.8,39,13.4z"/>
		<path class="st2" d="M51.9,9.6c-0.6-0.2-1.3-0.3-2-0.4c-0.9,0-1.7,0.1-2.4,0.4c-1.2,0.5-2.1,1.5-2.7,2.8c-0.5,1.2-0.7,2.4-0.5,3.7
			c0.3,1.7,1.1,2.9,2.5,3.7c0.9,0.5,1.9,0.8,2.9,0.8c1.8,0,3.2-0.8,4.2-2.3c0.1-0.1,0.1-0.2,0.1-0.3c0-0.1-0.1-0.1-0.2-0.2
			c0,0,0,0,0,0c0,0-0.1,0.1-0.1,0.1c-0.6,0.7-1.4,1-2.4,0.9c-0.9-0.1-1.7-0.4-2.3-1.1c-0.6-0.6-1-1.5-1.2-2.5l0-0.2h6.7
			c0.1,0,0.2-0.1,0.2-0.2c0-1.8-0.4-3.2-1.3-4.2C53.1,10.3,52.5,9.9,51.9,9.6z M50.4,14.8H48h-0.1l0-0.1c0-0.3-0.1-0.7-0.1-1
			c0-0.3,0-0.7,0-1c0.1-2,0.8-3,1.9-3h0.2c1.1,0.2,1.6,1.5,1.6,3.9C51.5,14.3,51.1,14.8,50.4,14.8z"/>
		<path class="st2" d="M70.3,20.2C70.3,20.2,70.3,20.2,70.3,20.2c-0.8,0-1.3-0.2-1.6-0.5c-0.1-0.2-0.3-0.6-0.3-2.2v-4.6
			c0-1-0.3-1.8-0.8-2.4C67,9.8,66,9.4,64.9,9.4c-1.3,0-2.5,0.6-3.5,1.7l-0.2,0.3V9.7c0-0.1,0-0.2,0-0.2c0,0-0.1-0.1-0.2-0.1
			c0,0,0,0-0.1,0.1l-5.3,3c-0.1,0-0.1,0.1-0.1,0.2c0.1,0.1,0.1,0.1,0.2,0c0.3-0.2,0.6-0.1,1,0.1c0.5,0.3,0.8,0.9,0.8,1.6v3.1
			c0,1.1-0.1,1.8-0.3,2.1c-0.2,0.4-0.7,0.5-1.6,0.5c-0.1,0-0.1,0-0.2,0.2c0,0.1,0,0.1,0.2,0.2l6.7,0c0.1,0,0.2-0.1,0.2-0.2
			c0-0.1,0-0.1-0.2-0.2c-0.1,0-0.2,0-0.3,0c-0.6-0.2-0.9-1-0.9-2.6v-5.7l0,0c0.2-0.2,0.3-0.4,0.5-0.6c0.6-0.6,1.3-0.7,2-0.4
			c0.7,0.3,1,1,1,2.1v4.6c0,0.9-0.1,1.5-0.2,1.9c-0.1,0.5-0.4,0.7-0.9,0.7c-0.1,0-0.1,0-0.2,0.2c0,0.1,0.1,0.2,0.2,0.2l6.6,0
			c0.1,0,0.1,0,0.2-0.2C70.5,20.2,70.4,20.2,70.3,20.2z"/>
		<path class="st2" d="M78.6,20.2C78.6,20.2,78.5,20.2,78.6,20.2c-0.8,0-1.3-0.2-1.5-0.5c-0.2-0.3-0.3-1-0.3-2.2V9.7
			c0-0.1,0-0.2,0-0.2c0,0-0.1-0.1-0.1-0.1c0,0-0.1,0-0.1,0l-5.4,3c-0.1,0-0.1,0.1-0.1,0.2c0.1,0.1,0.1,0.1,0.2,0
			c0.1-0.1,0.3-0.1,0.4-0.1c0.2,0,0.4,0.1,0.6,0.2c0.5,0.3,0.8,0.9,0.8,1.6v3.1c0,1.1-0.1,1.8-0.3,2.1c-0.2,0.4-0.7,0.5-1.6,0.5
			c-0.1,0-0.2,0-0.2,0.2c0,0.1,0,0.1,0.2,0.2l7.4,0c0.1,0,0.2,0,0.2-0.2C78.7,20.3,78.7,20.2,78.6,20.2z"/>
		<path class="st2" d="M86.7,9.6c-0.6-0.2-1.3-0.3-2-0.4c-0.9,0-1.7,0.1-2.4,0.4c-1.2,0.5-2.1,1.5-2.7,2.8c-0.5,1.2-0.7,2.4-0.5,3.7
			c0.3,1.7,1.1,2.9,2.5,3.7c0.9,0.5,1.9,0.8,2.9,0.8c1.8,0,3.2-0.8,4.2-2.3c0.1-0.1,0.1-0.2,0.1-0.3c0-0.1-0.1-0.1-0.2-0.2
			c0,0,0,0,0,0c0,0-0.1,0.1-0.1,0.1c-0.6,0.7-1.4,1-2.4,0.9c-0.9-0.1-1.7-0.4-2.3-1.1c-0.6-0.6-1-1.5-1.2-2.5l0-0.2h6.7
			c0.1,0,0.2-0.1,0.2-0.2c0-1.8-0.4-3.2-1.3-4.2C87.9,10.3,87.3,9.9,86.7,9.6z M85.2,14.8h-2.4h-0.1l0-0.1c0-0.3-0.1-0.7-0.1-1
			c0-0.3,0-0.7,0-1c0.1-2,0.8-3,1.9-3h0.2c1.1,0.2,1.6,1.5,1.6,3.9C86.3,14.3,85.9,14.8,85.2,14.8z"/>
	</g>
	<g>
		<path class="st3" d="M5.1,5.9c0,0,0.3-0.4,1.6-0.9s10.3-1.6,12,1.5s1.7,10.3,1.7,10.3l-0.1,1.1l-1.4,6.3l-2.4,3l-0.2,0.2l-1.5,1.3
			l-1.8,0.7L11.6,30l-0.2-0.1l-3-1.2l-1.3-1.1l-0.4-0.4l-2.4-3.5l-0.5-4.5l-1-1.4v-2.2l0.2-2.3l0.7-5.8L5.1,5.9z"/>
		<g>
			<path class="st4" d="M12.4,1.9c0.1-0.4,0.4-0.7,0.7-0.8c0.2-0.1,0.4,0,0.7,0c0.6,0.1,1.1,0.5,1.5,1c0.4,0.5,0.7,1,0.9,1.6
				c0.5,1.3,0.8,2.7,0.9,4l0.8,0.7c-0.1-1.7-0.5-3.4-1.1-5c-0.3-0.7-0.6-1.3-1-1.9c-0.4-0.6-1-1.1-1.7-1.3s-1.4-0.3-2.1,0
				s-1.1,1-1.2,1.7L12.4,1.9z"/>
			<path class="st5" d="M11.2,1.8c0.2-0.8,1.1-1.4,2-1.4s1.7,0.4,2.3,1.1c0.3,0.3,0.5,0.6,0.7,0.9c0.9,1.5,1.4,3.3,1.7,5.1"/>
			<path class="st5" d="M11.7,1.8c0.2-0.6,0.7-0.9,1.3-1c0.6-0.1,1.2,0.1,1.7,0.4c0.5,0.3,0.8,0.8,1.1,1.3c0.8,1.5,1.1,3.2,1.3,4.9"
				/>
			<path class="st6" d="M11.5,1.8c0.2-0.6,0.7-1.1,1.4-1.2c0.8-0.1,1.4,0.1,1.9,0.5c0.5,0.3,0.8,0.8,1.1,1.3
				c0.9,1.4,1.2,3.2,1.5,4.9"/>
			<path class="st7" d="M1.6,21.6L1.6,21.6c-0.1,0-0.2,0-0.2-0.2l-1-5c0-0.1,0-0.2,0.2-0.2c0.1,0,0.2,0,0.2,0.2l1,5
				C1.8,21.5,1.7,21.6,1.6,21.6z"/>
			<path class="st8" d="M1.1,21.4L1.1,21.4c-0.1,0-0.2,0-0.2-0.2L0,16.9c0-0.1,0-0.2,0.2-0.2c0.1,0,0.2,0,0.2,0.2l0.9,4.4
				C1.3,21.3,1.2,21.4,1.1,21.4z"/>
			<linearGradient id="SVGID_2_" gradientUnits="userSpaceOnUse" x1="1.4135" y1="14.9075" x2="3.1116" y2="22.6367">
				<stop  offset="0" style="stop-color:#7799A5"/>
				<stop  offset="0.5053" style="stop-color:#EEF3F6"/>
				<stop  offset="1" style="stop-color:#3A6177"/>
			</linearGradient>
			<path class="st9" d="M3,22.6L3,22.6c-0.6,0.1-1.1-0.2-1.2-0.8l-1.2-5.9c-0.1-0.6,0.2-1.1,0.8-1.2C2,14.6,2.5,15,2.7,15.5l1.2,5.9
				C4,22,3.6,22.5,3,22.6z"/>
			<line class="st10" x1="0.7" y1="18.1" x2="1.1" y2="18"/>
			<line class="st10" x1="0.7" y1="18.4" x2="1.1" y2="18.4"/>
			<line class="st10" x1="0.8" y1="18.8" x2="1.2" y2="18.7"/>
			<line class="st10" x1="0.9" y1="19.1" x2="1.3" y2="19"/>
			<linearGradient id="SVGID_3_" gradientUnits="userSpaceOnUse" x1="2.4093" y1="19.2979" x2="2.6913" y2="20.9493">
				<stop  offset="0" style="stop-color:#E5EEF2"/>
				<stop  offset="1" style="stop-color:#7294A2"/>
			</linearGradient>
			<polygon class="st11" points="1.6,20 3.4,19.6 3.6,20.5 1.7,20.9 1.6,20 			"/>
			<linearGradient id="SVGID_4_" gradientUnits="userSpaceOnUse" x1="5.6082" y1="10.9252" x2="2.2901" y2="11.784">
				<stop  offset="0" style="stop-color:#E5EEF2"/>
				<stop  offset="1" style="stop-color:#7294A2"/>
			</linearGradient>
			<path class="st12" d="M6.3,15.1c-0.3,1.1-1.6,1.6-2.7,1.4c-0.3-0.1-0.6-0.2-0.8-0.3c0-1.3,0.1-2.3,0.1-2.3l0.4-5
				c0.1-0.9,0.4-1.7,1-2.3C4.7,6.2,4.9,6,5.2,5.7c0.1,0,0.1,0,0.2-0.1C5.1,6.4,4.9,7.2,4.9,7.9c0,1.6,0.5,3.2,1.1,4.8
				C6.2,13.5,6.5,14.3,6.3,15.1z"/>
			<path class="st7" d="M21.7,21.6L21.7,21.6c0.1,0,0.2,0,0.2-0.2l1-5c0-0.1,0-0.2-0.2-0.2c-0.1,0-0.2,0-0.2,0.2l-1,5
				C21.5,21.5,21.6,21.6,21.7,21.6z"/>
			<path class="st8" d="M22.1,21.4L22.1,21.4c0.1,0,0.2,0,0.2-0.2l0.9-4.4c0-0.1,0-0.2-0.2-0.2c-0.1,0-0.2,0-0.2,0.2L22,21.2
				C22,21.3,22,21.4,22.1,21.4z"/>
			
				<linearGradient id="SVGID_5_" gradientUnits="userSpaceOnUse" x1="474.5287" y1="14.9075" x2="476.2267" y2="22.6367" gradientTransform="matrix(-1 0 0 1 496.3813 0)">
				<stop  offset="0" style="stop-color:#7799A5"/>
				<stop  offset="0.5053" style="stop-color:#EEF3F6"/>
				<stop  offset="1" style="stop-color:#3A6177"/>
			</linearGradient>
			<path class="st13" d="M20.2,22.6L20.2,22.6c0.6,0.1,1.1-0.2,1.2-0.8l1.2-5.9c0.1-0.6-0.2-1.1-0.8-1.2c-0.6-0.1-1.1,0.2-1.2,0.8
				l-1.2,5.9C19.3,22,19.7,22.5,20.2,22.6z"/>
			<line class="st10" x1="22.6" y1="18.1" x2="22.2" y2="18"/>
			<line class="st10" x1="22.5" y1="18.4" x2="22.1" y2="18.4"/>
			<line class="st10" x1="22.5" y1="18.8" x2="22.1" y2="18.7"/>
			<line class="st10" x1="22.4" y1="19.1" x2="22" y2="19"/>
			
				<linearGradient id="SVGID_6_" gradientUnits="userSpaceOnUse" x1="475.5244" y1="19.2979" x2="475.8064" y2="20.9493" gradientTransform="matrix(-1 0 0 1 496.3813 0)">
				<stop  offset="0" style="stop-color:#E5EEF2"/>
				<stop  offset="1" style="stop-color:#7294A2"/>
			</linearGradient>
			<polygon class="st14" points="21.7,20 19.9,19.6 19.7,20.5 21.5,20.9 21.7,20 			"/>
			<radialGradient id="SVGID_7_" cx="11.6654" cy="4.4697" r="4.4485" gradientUnits="userSpaceOnUse">
				<stop  offset="0" style="stop-color:#00B8F0"/>
				<stop  offset="1" style="stop-color:#005886"/>
			</radialGradient>
			<path class="st15" d="M5.6,5.5C5.5,5.5,5.3,5.6,5.2,5.7c0.1,0,0.1,0,0.2-0.1c0.7-0.1,1.8-0.1,2.9,0.9c2.1,1.8,2,2.2,3.2,2.2v-5
				C11.6,3.7,8.4,3.4,5.6,5.5z M17.7,5.5c-2.8-2.1-6.1-1.8-6.1-1.8v5c1.2,0,1.2-0.4,3.2-2.2c1.1-1,2.2-1,2.9-0.9
				c0.1,0,0.1,0,0.2,0.1C17.9,5.6,17.8,5.5,17.7,5.5z"/>
			
				<linearGradient id="SVGID_8_" gradientUnits="userSpaceOnUse" x1="478.7233" y1="10.9252" x2="475.4052" y2="11.784" gradientTransform="matrix(-1 0 0 1 496.3813 0)">
				<stop  offset="0" style="stop-color:#E5EEF2"/>
				<stop  offset="1" style="stop-color:#7294A2"/>
			</linearGradient>
			<path class="st16" d="M17,15.1c0.3,1.1,1.6,1.6,2.7,1.4c0.3-0.1,0.6-0.2,0.8-0.3c0-1.3-0.1-2.3-0.1-2.3l-0.4-5
				c-0.1-0.9-0.4-1.7-1-2.3C18.6,6.2,18.3,6,18,5.7c-0.1,0-0.1,0-0.2-0.1c0.3,0.7,0.5,1.5,0.5,2.3c0,1.6-0.5,3.2-1.1,4.8
				C17,13.5,16.7,14.3,17,15.1z"/>
			<linearGradient id="SVGID_9_" gradientUnits="userSpaceOnUse" x1="6.8758" y1="22.8616" x2="4.1432" y2="23.8765">
				<stop  offset="0" style="stop-color:#E5EEF2"/>
				<stop  offset="1" style="stop-color:#7294A2"/>
			</linearGradient>
			<path class="st17" d="M10,29.1c-0.6-0.1-1-0.2-1.2-0.3c-0.2-0.1-0.3-0.2-0.5-0.3l-1.4-1.2v0L5.3,26c-0.5-0.4-0.8-0.9-1-1.5
				c-0.8-2.4-1.1-4.8-1.4-6.6c-0.1-0.3-0.1-0.7-0.1-1C3,17,3.1,17,3.3,17.1c0.7,0.3,1.2,0.7,1.8,1.2c0.3,0.2,1.4,0.9,1.4,1.3
				c0,0.4-0.8,0.8-0.9,1.2c-0.2,0.5-0.1,1.1,0,1.6c0.1,0.8,0.3,1.6,0.6,2.3c0.2,0.7,0.5,1.3,1,1.8c0.5,0.6,1.2,0.9,1.8,1.4
				C9.4,28.2,9.8,28.6,10,29.1z"/>
			<linearGradient id="SVGID_10_" gradientUnits="userSpaceOnUse" x1="11.8453" y1="16.3176" x2="-3.5351" y2="21.6266">
				<stop  offset="0" style="stop-color:#FFFFFF"/>
				<stop  offset="1" style="stop-color:#A4C4D1"/>
			</linearGradient>
			<path class="st18" d="M11.6,8.7v20.5h-0.1c-0.6,0-1.2,0-1.6-0.1c-0.2-0.5-0.6-1-1-1.3c-0.6-0.5-1.3-0.8-1.8-1.4
				c-0.5-0.5-0.7-1.2-1-1.8c-0.3-0.8-0.5-1.5-0.6-2.3c-0.1-0.5-0.2-1.1,0-1.6c0.1-0.4,0.9-0.8,0.9-1.2c0-0.4-1.1-1-1.4-1.3
				c-0.6-0.4-1.1-0.9-1.8-1.2C3.1,17,3,17,2.8,16.9c0-0.3,0-0.5,0-0.7c0.3,0.1,0.5,0.2,0.8,0.3c1.1,0.2,2.4-0.3,2.7-1.4
				c0.3-0.8,0-1.6-0.3-2.4c-0.6-1.5-1.1-3.1-1.1-4.8c0-0.8,0.2-1.6,0.5-2.3c0.7-0.1,1.8-0.1,2.9,0.9C10.4,8.3,10.4,8.7,11.6,8.7z"/>
			
				<linearGradient id="SVGID_11_" gradientUnits="userSpaceOnUse" x1="479.9909" y1="22.8616" x2="477.2583" y2="23.8765" gradientTransform="matrix(-1 0 0 1 496.3813 0)">
				<stop  offset="0" style="stop-color:#E5EEF2"/>
				<stop  offset="1" style="stop-color:#7294A2"/>
			</linearGradient>
			<path class="st19" d="M13.3,29.1c0.6-0.1,1-0.2,1.2-0.3c0.2-0.1,0.3-0.2,0.5-0.3l1.4-1.2v0L18,26c0.5-0.4,0.8-0.9,1-1.5
				c0.8-2.4,1.1-4.8,1.4-6.6c0.1-0.3,0.1-0.7,0.1-1c-0.2,0-0.3,0.1-0.5,0.1c-0.7,0.3-1.2,0.7-1.8,1.2c-0.3,0.2-1.4,0.9-1.4,1.3
				c0,0.4,0.8,0.8,0.9,1.2c0.2,0.5,0.1,1.1,0,1.6c-0.1,0.8-0.3,1.6-0.6,2.3c-0.2,0.7-0.5,1.3-1,1.8c-0.5,0.6-1.2,0.9-1.8,1.4
				C13.9,28.2,13.5,28.6,13.3,29.1z"/>
			
				<linearGradient id="SVGID_12_" gradientUnits="userSpaceOnUse" x1="484.9604" y1="16.3176" x2="469.58" y2="21.6266" gradientTransform="matrix(-1 0 0 1 496.3813 0)">
				<stop  offset="0" style="stop-color:#FFFFFF"/>
				<stop  offset="1" style="stop-color:#A4C4D1"/>
			</linearGradient>
			<path class="st20" d="M11.6,8.7v20.5h0.1c0.6,0,1.2,0,1.6-0.1c0.2-0.5,0.6-1,1-1.3c0.6-0.5,1.3-0.8,1.8-1.4
				c0.5-0.5,0.7-1.2,1-1.8c0.3-0.8,0.5-1.5,0.6-2.3c0.1-0.5,0.2-1.1,0-1.6c-0.1-0.4-0.9-0.8-0.9-1.2c0-0.4,1.1-1,1.4-1.3
				c0.6-0.4,1.1-0.9,1.8-1.2c0.1-0.1,0.3-0.1,0.5-0.1c0-0.3,0-0.5,0-0.7c-0.3,0.1-0.5,0.2-0.8,0.3c-1.1,0.2-2.4-0.3-2.7-1.4
				c-0.3-0.8,0-1.6,0.3-2.4c0.6-1.5,1.1-3.1,1.1-4.8c0-0.8-0.2-1.6-0.5-2.3c-0.7-0.1-1.8-0.1-2.9,0.9C12.8,8.3,12.8,8.7,11.6,8.7z"
				/>
			<g>
				<path class="st8" d="M2.9,14C2.9,14,2.9,14,2.9,14c-0.3,1.8,0,4,0,4l3.3,2.2c0.5,0.3,1,0.4,1.5,0.3l3.9-0.8l3.9,0.8
					c0.5,0.1,1.1,0,1.5-0.3l3.3-2.2c0,0,0.3-2.2,0-4c0,0,0,0,0,0C14.6,15.2,8.7,15.3,2.9,14z"/>
				<linearGradient id="SVGID_13_" gradientUnits="userSpaceOnUse" x1="2.7883" y1="17.0556" x2="20.4761" y2="17.0556">
					<stop  offset="0" style="stop-color:#1F5F88"/>
					<stop  offset="0.5212" style="stop-color:#1ABDCC"/>
					<stop  offset="1" style="stop-color:#1C5B85"/>
				</linearGradient>
				<path class="st21" d="M2.9,13.8C2.9,13.8,2.9,13.8,2.9,13.8c-0.3,1.8,0,4.1,0,4.1l3.8,2.3c0.1,0.1,0.2,0.1,0.4,0.1l4.5-0.7
					l4.5,0.7c0.1,0,0.3,0,0.4-0.1l3.8-2.3c0,0,0.3-2.4,0-4.2c0,0,0,0,0,0C14.6,15.1,8.7,15.1,2.9,13.8z"/>
				<path class="st22" d="M2.9,13.8l0.4,0.1c5.5,1.1,11.1,1.1,16.6,0l0.4-0.1"/>
				<linearGradient id="SVGID_14_" gradientUnits="userSpaceOnUse" x1="2.9261" y1="14.273" x2="20.3284" y2="14.273">
					<stop  offset="0" style="stop-color:#4CC7ED"/>
					<stop  offset="1" style="stop-color:#1ABDCC"/>
				</linearGradient>
				<path class="st23" d="M2.9,13.8l0.4,0.1c5.5,1.1,11.1,1.1,16.6,0l0.4-0.1"/>
			</g>
			<radialGradient id="SVGID_15_" cx="11.3023" cy="17.4294" r="4.3227" gradientUnits="userSpaceOnUse">
				<stop  offset="0" style="stop-color:#FFFFFF"/>
				<stop  offset="1" style="stop-color:#FFFFFF;stop-opacity:0"/>
			</radialGradient>
			<circle class="st24" cx="11.3" cy="17.4" r="4.3"/>
			<polygon class="st25" points="12.4,19.7 11.6,19.6 10.5,19.8 10.5,14.8 12.4,14.8 			"/>
			<polygon class="st26" points="5.5,19.4 3.7,18.4 3.7,14.2 5.5,14.4 			"/>
			<polygon class="st25" points="13.4,19.9 12.8,19.8 12.8,14.8 13.4,14.8 			"/>
			<polygon class="st25" points="15.6,20.2 15,20.1 15,14.7 15.6,14.6 			"/>
			<path class="st8" d="M16.5,27.3C14.3,30,11.7,30,11.6,30v-0.8h0.1c1.5,0,2.4-0.2,2.9-0.4c0.2-0.1,0.3-0.2,0.5-0.3L16.5,27.3z"/>
			<path class="st8" d="M6.8,27.3C8.9,30,11.6,30,11.6,30v-0.8h-0.1c-1.5,0-2.4-0.2-2.9-0.4c-0.2-0.1-0.3-0.2-0.5-0.3L6.8,27.3z"/>
			<line class="st27" x1="20.7" y1="17.4" x2="22" y2="17.6"/>
			<line class="st27" x1="2.6" y1="17.4" x2="1.3" y2="17.6"/>
			<g>
				<g>
					<radialGradient id="SVGID_16_" cx="11.6333" cy="25.4304" r="3.5791" gradientUnits="userSpaceOnUse">
						<stop  offset="0" style="stop-color:#25BDCC"/>
						<stop  offset="1" style="stop-color:#005786"/>
					</radialGradient>
					<path class="st28" d="M7.2,27.6l1-4.4c0-0.1,0.1-0.1,0.1-0.1H15c0.1,0,0.1,0,0.1,0.1l1,4.4l-0.2,0.2l-1-4.5H8.4l-1,4.5
						L7.2,27.6z"/>
				</g>
				<g>
					<radialGradient id="SVGID_17_" cx="11.6334" cy="24.4664" r="2.1356" gradientUnits="userSpaceOnUse">
						<stop  offset="0" style="stop-color:#25BDCC"/>
						<stop  offset="1" style="stop-color:#005786"/>
					</radialGradient>
					<path class="st29" d="M14.5,24.6H8.7c-0.1,0-0.1-0.1-0.1-0.1s0.1-0.1,0.1-0.1h5.8c0.1,0,0.1,0.1,0.1,0.1S14.6,24.6,14.5,24.6z"
						/>
				</g>
			</g>
			<linearGradient id="SVGID_18_" gradientUnits="userSpaceOnUse" x1="11.6794" y1="27.5614" x2="11.7188" y2="25.792">
				<stop  offset="0" style="stop-color:#E5EEF2"/>
				<stop  offset="1" style="stop-color:#7294A2"/>
			</linearGradient>
			<path class="st30" d="M12.5,26.7h-1.6c-0.3,0-0.6-0.3-0.6-0.6v0c0-0.3,0.3-0.6,0.6-0.6h1.6c0.3,0,0.6,0.3,0.6,0.6v0
				C13.1,26.4,12.8,26.7,12.5,26.7z"/>
			<g>
				<path class="st31" d="M5.6,5.5C5.5,5.5,5.3,5.6,5.2,5.7c0.1,0,0.1,0,0.2-0.1c0.7-0.1,1.8-0.1,2.9,0.9c2.1,1.8,2,2.2,3.2,2.2v-5
					C11.6,3.7,8.4,3.4,5.6,5.5z"/>
				<path class="st31" d="M17.7,5.5c-2.8-2.1-6.1-1.8-6.1-1.8v5c1.2,0,1.2-0.4,3.2-2.2c1.1-1,2.2-1,2.9-0.9c0.1,0,0.1,0,0.2,0.1
					C17.9,5.6,17.8,5.5,17.7,5.5z"/>
			</g>
			<g>
				<rect x="11.6" y="4.4" class="st31" width="0" height="0.5"/>
				<polygon class="st31" points="11.6,6.1 11.6,6.7 11.6,6.7 11.6,6.1 				"/>
				<polygon class="st31" points="11.6,7.6 11.6,7.6 11.6,6.9 11.6,6.9 				"/>
				<polygon class="st32" points="11.6,6.9 11.6,6.9 11.6,6.7 11.6,6.7 				"/>
				<polygon class="st32" points="11.6,4.4 11.6,4.4 11.6,4.4 11.6,4.4 				"/>
				<rect x="11.6" y="4.9" class="st32" width="0" height="1.1"/>
				<polygon class="st32" points="11.6,7.6 11.6,7.8 11.6,7.8 11.6,7.6 				"/>
				<polygon class="st31" points="11.2,6.4 11.2,6.4 11.2,7.1 11.6,6.7 11.6,6.1 				"/>
				<path class="st31" d="M9.3,3.9C9.1,3.9,8.9,3.9,8.7,4l0.6,0.6V3.9z"/>
				<path class="st31" d="M7,4.6C6.9,4.6,6.8,4.7,6.7,4.8l0.8,0.5v0.6C7.7,6,7.9,6.2,8.1,6.3v-1L7,4.6z"/>
				<path class="st31" d="M8.6,4C8.3,4.1,8.1,4.2,7.9,4.2L9,5v2.1c0.1,0.1,0.2,0.2,0.3,0.3V4.8L8.6,4z"/>
				<path class="st31" d="M7.7,4.3C7.6,4.4,7.4,4.4,7.2,4.5l1.1,0.7v1.2c0,0,0.1,0,0.1,0.1c0.2,0.1,0.3,0.3,0.4,0.4V5.1L7.7,4.3z"/>
				<path class="st31" d="M10,5.7v-1h0.2v0.9L10.5,6V4.6L9.7,3.8l0.1-0.1c-0.1,0-0.2,0-0.3,0v3.7c0.1,0.1,0.3,0.3,0.4,0.4V6.5H10V8
					c0.2,0.1,0.3,0.3,0.4,0.4V6.2L10,5.7z"/>
				<path class="st31" d="M11.3,8l0.4-0.4V6.9l-0.4,0.4v1.4c0.1,0,0.3,0,0.4,0V7.8l-0.3,0.3L11.3,8z"/>
				<path class="st31" d="M11.2,4.8v1.5l0.4-0.4V4.9h0V4.4l0,0l0,0V3.7c0,0-0.7-0.1-1.8,0.1l0.7,0.7l0.7-0.7l0.1,0.1l-0.7,0.8v3.9
					c0.1,0.1,0.3,0.1,0.4,0.2V4.8H11.2z"/>
				<path class="st31" d="M6.5,4.9C6.2,5,5.9,5.2,5.6,5.5C5.5,5.5,5.3,5.6,5.2,5.7c0.1,0,0.1,0,0.2-0.1c0.5-0.1,1.1-0.1,1.8,0.2V5.4
					L6.5,4.9z"/>
				<path class="st32" d="M7.9,4.2c-0.1,0-0.1,0-0.2,0.1l1.1,0.8v1.9C8.9,7,8.9,7,9,7.1V5L7.9,4.2z"/>
				<path class="st32" d="M7.2,4.5C7.2,4.5,7.1,4.6,7,4.6l1.1,0.7v1c0.1,0,0.1,0.1,0.2,0.1V5.2L7.2,4.5z"/>
				<path class="st32" d="M6.7,4.8c-0.1,0-0.1,0.1-0.2,0.1l0.8,0.5v0.5c0.1,0,0.1,0,0.2,0.1V5.3L6.7,4.8z"/>
				<path class="st32" d="M9.3,3.9v0.7L8.7,4C8.7,4,8.6,4,8.6,4l0.8,0.8v2.6c0.1,0.1,0.1,0.1,0.2,0.2V3.8C9.4,3.8,9.4,3.8,9.3,3.9z"
					/>
				<path class="st32" d="M11.4,3.8l-0.1-0.1l-0.7,0.7L9.9,3.8c0,0-0.1,0-0.1,0L9.7,3.8l0.8,0.8V6l-0.3-0.3V4.8H10v1l0.5,0.5v2.2
					c0.1,0,0.1,0.1,0.2,0.1V4.6L11.4,3.8z"/>
				<polygon class="st32" points="11.3,8 11.4,8.1 11.6,7.8 11.6,7.6 				"/>
				<path class="st32" d="M11.6,6.9V6.7l-0.4,0.4V6.4l0,0l0.4-0.4V4.9h0v0.9l-0.4,0.4V4.8H11v3.9c0.1,0,0.1,0,0.2,0V7.4L11.6,6.9z"
					/>
				<polygon class="st32" points="11.6,4.4 11.6,4.4 11.6,4.4 				"/>
				<path class="st32" d="M9.9,6.5v1.4C9.9,7.9,10,8,10,8V6.5H9.9z"/>
				<path class="st31" d="M11.6,7.8v0.9c0.2,0,0.3,0,0.5,0V7.3L11.6,7.8z"/>
				<path class="st31" d="M12.8,8.4C13,8.2,13.3,8,13.7,7.6l-0.9-0.9V8.4z"/>
				<path class="st31" d="M14,3.9c-0.2,0-0.4-0.1-0.6-0.1v1.7l1.3,1.3c0.1-0.1,0.2-0.1,0.2-0.2c0,0,0.1,0,0.1-0.1l-1-1V3.9z"/>
				<polygon class="st31" points="12.1,7.1 12.1,6.5 11.6,6.9 11.6,7.6 				"/>
				<path class="st31" d="M17.7,5.5c-0.3-0.2-0.7-0.5-1-0.6l-0.4,0.4c0,0,0,0,0,0.1c0,0.1-0.1,0.2-0.2,0.2c-0.1,0-0.2-0.1-0.2-0.2
					c0-0.1,0.1-0.2,0.2-0.2c0,0,0.1,0,0.1,0l0.4-0.4c-0.1-0.1-0.3-0.1-0.4-0.2l-0.6,0.6v1c0.9-0.5,1.7-0.5,2.3-0.4
					c0.1,0,0.1,0,0.2,0.1C17.9,5.6,17.8,5.5,17.7,5.5z"/>
				<path class="st31" d="M13.2,3.7c-0.2,0-0.3,0-0.5,0v2.1l0.6,0.6c0,0,0.1-0.1,0.1-0.1c0.1,0,0.2,0.1,0.2,0.2s-0.1,0.2-0.2,0.2
					s-0.2-0.1-0.2-0.2c0,0,0,0,0,0l0,0l-0.7-0.7V3.7c-0.6,0-0.9,0-0.9,0v0.7l0.1-0.1l0.4,0.4V3.8h0.2v2.3l0,0v1.1l0,0v1.5
					c0.1,0,0.2-0.1,0.4-0.1V6.3l1.2,1.2c0.2-0.2,0.4-0.4,0.7-0.6l-1.3-1.3V3.7z"/>
				<path class="st31" d="M16,4.5c-0.3-0.1-0.6-0.2-0.8-0.3v1.5L15,5.9l-0.1-0.1L15,5.6V4.1c-0.1,0-0.3-0.1-0.4-0.1v1.2h-0.2V4
					c-0.1,0-0.2,0-0.3-0.1v1.5l1,1c0.1-0.1,0.2-0.1,0.3-0.2V5L16,4.5z"/>
				<polygon class="st31" points="11.8,4.9 11.8,5.9 11.6,6.1 11.6,6.7 12.1,6.2 12.1,4.9 12.1,4.9 11.6,4.4 11.6,4.9 				"/>
				<path class="st32" d="M12.3,7.2V6l0,0V3.8h-0.2v0.9l-0.4-0.4l-0.1,0.1v0l0.4,0.4l0,0v1.4l-0.5,0.5v0.2l0.5-0.5v0.6l-0.5,0.5v0.2
					l0.5-0.5v1.4c0.1,0,0.1,0,0.2,0L12.3,7.2L12.3,7.2z"/>
				<polygon class="st32" points="11.8,5.9 11.8,4.9 11.6,4.9 11.6,6.1 				"/>
				<path class="st32" d="M13.2,6.5L13.2,6.5C13.2,6.5,13.2,6.5,13.2,6.5c0,0.1,0.1,0.2,0.2,0.2s0.2-0.1,0.2-0.2s-0.1-0.2-0.2-0.2
					c-0.1,0-0.1,0-0.1,0.1l-0.6-0.6V3.7c-0.1,0-0.1,0-0.2,0v2.2L13.2,6.5z"/>
				<path class="st32" d="M12.6,8.5c0.1,0,0.1-0.1,0.2-0.1V6.7l0.9,0.9c0,0,0.1-0.1,0.1-0.1l-1.2-1.2V8.5z"/>
				<path class="st32" d="M13.3,3.8c-0.1,0-0.1,0-0.2,0v1.8l1.3,1.3c0,0,0.1-0.1,0.1-0.1l-1.3-1.3V3.8z"/>
				<path class="st32" d="M14.1,3.9c-0.1,0-0.1,0-0.2,0v1.6l1,1c0,0,0.1-0.1,0.1-0.1l-1-1V3.9z"/>
				<path class="st32" d="M14.6,5.2V4c-0.1,0-0.1,0-0.2,0v1.3H14.6z"/>
				<path class="st32" d="M14.8,5.8L15,5.9l0.2-0.2V4.2c-0.1,0-0.1,0-0.2-0.1v1.5L14.8,5.8z"/>
				<path class="st32" d="M16.1,4.5c-0.1,0-0.1,0-0.2-0.1L15.4,5v1.1c0.1,0,0.1-0.1,0.2-0.1v-1L16.1,4.5z"/>
				<path class="st32" d="M16.1,5.1c-0.1,0-0.2,0.1-0.2,0.2c0,0.1,0.1,0.2,0.2,0.2c0.1,0,0.2-0.1,0.2-0.2c0,0,0,0,0-0.1l0.4-0.4
					c-0.1,0-0.1-0.1-0.2-0.1L16.1,5.1C16.1,5.1,16.1,5.1,16.1,5.1z"/>
			</g>
			<g>
				<path class="st31" d="M5.6,11.3c-0.1,0.1-0.2,0.2-0.3,0.3c0.1,0,0.1,0,0.2-0.1c0.7-0.1,1.8-0.1,2.9,0.9c2.1,1.8,2,2.2,3.2,2.2
					v-5C11.6,9.5,8.4,9.2,5.6,11.3z"/>
				<path class="st31" d="M17.7,11.3c-2.8-2.1-6.1-1.8-6.1-1.8v5c1.2,0,1.2-0.4,3.2-2.2c1.1-1,2.2-1,2.9-0.9c0.1,0,0.1,0,0.2,0.1
					C17.9,11.4,17.8,11.4,17.7,11.3z"/>
			</g>
			<g>
				<path class="st33" d="M17.8,5.7c-1.2-0.2-2.4,0.4-3.2,1.2c-0.4,0.4-0.9,0.8-1.3,1.2c-0.4,0.5-1.1,0.8-1.7,0.8
					c-0.3,0-0.6,0-0.9-0.2c-0.2-0.1-0.3-0.2-0.4-0.2C10.1,8.4,10,8.3,9.9,8.1L8.6,6.9C8.4,6.7,8.2,6.5,7.9,6.3
					C7.7,6.1,7.5,6,7.2,5.8C6.7,5.6,6,5.5,5.5,5.7c0.6-0.2,1.2-0.2,1.8,0C7.5,5.8,7.8,6,8,6.2c0.2,0.2,0.5,0.3,0.7,0.5
					c0.5,0.4,0.9,0.8,1.3,1.2c0.1,0.1,0.2,0.2,0.3,0.3c0.1,0.1,0.3,0.2,0.4,0.2c0.2,0.1,0.5,0.1,0.8,0.2c0.6,0,1.1-0.2,1.5-0.6
					l1.4-1.2c0.5-0.4,1-0.8,1.5-1C16.6,5.5,17.2,5.5,17.8,5.7z"/>
			</g>
			<g>
				<path class="st8" d="M5.9,5.2c0.8-0.5,1.8-1,2.7-1.2c1-0.3,2-0.4,3-0.4c2,0,4.1,0.6,5.7,1.7c-1.7-1-3.7-1.5-5.7-1.5
					C9.6,3.7,7.6,4.2,5.9,5.2L5.9,5.2z"/>
			</g>
			<g>
				<path class="st22" d="M13.3,3c0,0.2-0.1,0.3-0.2,0.4c0,0-0.1,0.1-0.2,0.1c-0.1,0-0.1,0.1-0.2,0.1c0,0,0,0,0,0c0,0,0,0-0.1,0
					h-2.2c0,0,0,0-0.1,0c0,0,0,0,0,0c-0.1,0-0.1,0-0.2-0.1C10.1,3.4,9.9,3.2,9.9,3c0-0.2,0.1-0.3,0.2-0.4c0,0,0.1-0.1,0.2-0.1
					c0.1,0,0.1-0.1,0.2-0.1c0,0,0,0,0,0c0,0,0,0,0,0c0,0,0,0,0.1,0h2.2c0,0,0,0,0.1,0c0,0,0,0,0,0c0,0,0,0,0,0c0.1,0,0.1,0,0.2,0.1
					C13.2,2.5,13.3,2.7,13.3,3z"/>
				<path class="st34" d="M12.5,2.4h-1.8c-0.2,0-0.3-0.1-0.3-0.3v0c0-0.2,0.1-0.3,0.3-0.3h1.8c0.2,0,0.3,0.1,0.3,0.3v0
					C12.8,2.2,12.7,2.4,12.5,2.4z"/>
				<path class="st34" d="M13.3,3c0,0.2-0.1,0.3-0.2,0.4c0,0-0.1,0.1-0.2,0.1c0,0,0-0.1,0-0.1V2.5c0,0,0-0.1,0-0.1
					C13.2,2.5,13.3,2.7,13.3,3z"/>
				<path class="st34" d="M10.3,2.5v0.8c0,0,0,0.1,0,0.1C10.1,3.4,9.9,3.2,9.9,3c0-0.2,0.1-0.3,0.2-0.4c0,0,0.1-0.1,0.2-0.1
					C10.3,2.4,10.3,2.5,10.3,2.5z"/>
				<path class="st34" d="M10.6,3.6L10.6,3.6c-0.2,0-0.3-0.1-0.3-0.3V2.7c0-0.2,0.1-0.3,0.3-0.3h0c0.2,0,0.3,0.1,0.3,0.3v0.6
					C10.9,3.4,10.8,3.6,10.6,3.6z"/>
				<path class="st34" d="M12.6,3.6L12.6,3.6c-0.2,0-0.3-0.1-0.3-0.3V2.7c0-0.2,0.1-0.3,0.3-0.3h0c0.2,0,0.3,0.1,0.3,0.3v0.6
					C13,3.4,12.8,3.6,12.6,3.6z"/>
				<path class="st34" d="M12,3.6L12,3.6c-0.2,0-0.3-0.2-0.3-0.3V2.7c0-0.2,0.2-0.3,0.3-0.3h0c0.2,0,0.3,0.2,0.3,0.3v0.5
					C12.3,3.4,12.2,3.6,12,3.6z"/>
				<path class="st34" d="M11.3,3.6L11.3,3.6c-0.2,0-0.3-0.2-0.3-0.3V2.7c0-0.2,0.2-0.3,0.3-0.3h0c0.2,0,0.3,0.2,0.3,0.3l0,0.5
					C11.6,3.4,11.5,3.6,11.3,3.6z"/>
				<line class="st6" x1="12.6" y1="2.7" x2="12.6" y2="3.1"/>
				<line class="st6" x1="12" y1="2.7" x2="12" y2="3.1"/>
				<line class="st6" x1="11.3" y1="2.7" x2="11.3" y2="3.1"/>
				<line class="st6" x1="10.6" y1="2.7" x2="10.6" y2="3.1"/>
			</g>
			<line class="st35" x1="10.7" y1="1.9" x2="12.5" y2="1.9"/>
		</g>
	</g>
</g>
</svg>
