<svg xmlns="http://www.w3.org/2000/svg" xmlns:xlink="http://www.w3.org/1999/xlink" viewBox="0 0 162.56 43.89"><defs><style>.cls-1{fill:#fff;}.cls-2,.cls-29{fill:#107dbb;}.cls-2,.cls-29,.cls-3{stroke:#081626;}.cls-11,.cls-2,.cls-20,.cls-21,.cls-23,.cls-29,.cls-3,.cls-7,.cls-8{stroke-miterlimit:10;}.cls-2,.cls-3,.cls-30{stroke-width:0.11px;}.cls-20,.cls-21,.cls-23,.cls-3,.cls-30,.cls-4,.cls-8{fill:none;}.cls-30,.cls-4{stroke:#4bbeed;stroke-linejoin:round;}.cls-23,.cls-30,.cls-4{stroke-linecap:round;}.cls-11,.cls-20,.cls-21,.cls-23,.cls-29,.cls-4,.cls-7,.cls-8{stroke-width:0.21px;}.cls-5{fill:#00529a;}.cls-6{fill:#061e31;}.cls-11,.cls-7{stroke:#062138;}.cls-7{fill:url(#linear-gradient);}.cls-8{stroke:#3cc5f2;}.cls-9{fill:url(#linear-gradient-2);}.cls-10{fill:url(#linear-gradient-3);}.cls-11{fill:url(#linear-gradient-4);}.cls-12{fill:url(#linear-gradient-5);}.cls-13{fill:url(#radial-gradient);}.cls-14{fill:url(#linear-gradient-6);}.cls-15{fill:url(#linear-gradient-7);}.cls-16{fill:url(#linear-gradient-8);}.cls-17{fill:url(#linear-gradient-9);}.cls-18{fill:url(#linear-gradient-10);}.cls-19{fill:url(#linear-gradient-11);}.cls-20{stroke:#061e31;}.cls-21{stroke:url(#linear-gradient-12);}.cls-22{opacity:0.7;fill:url(#radial-gradient-2);}.cls-23{stroke:#fff;}.cls-24{fill:url(#radial-gradient-3);}.cls-25{fill:url(#radial-gradient-4);}.cls-26{fill:url(#linear-gradient-13);}.cls-27{fill:#4bbeed;}.cls-28{fill:#34b4e8;}.cls-31{fill:#05092b;}.cls-32{fill:url(#linear-gradient-14);}</style><linearGradient id="linear-gradient" x1="2.09" y1="30.1" x2="4.57" y2="18.81" gradientTransform="matrix(1, 0, 0, -1, 0, 52)" gradientUnits="userSpaceOnUse"><stop offset="0" stop-color="#7799a5"/><stop offset="0.51" stop-color="#eef3f6"/><stop offset="1" stop-color="#3a6177"/></linearGradient><linearGradient id="linear-gradient-2" x1="3.51" y1="23.68" x2="3.92" y2="21.27" gradientTransform="matrix(1, 0, 0, -1, 0, 52)" gradientUnits="userSpaceOnUse"><stop offset="0" stop-color="#e5eef2"/><stop offset="1" stop-color="#7294a2"/></linearGradient><linearGradient id="linear-gradient-3" x1="8.19" y1="35.95" x2="3.34" y2="34.7" xlink:href="#linear-gradient-2"/><linearGradient id="linear-gradient-4" x1="31.95" y1="30.1" x2="29.47" y2="18.8" xlink:href="#linear-gradient"/><linearGradient id="linear-gradient-5" x1="30.49" y1="23.68" x2="30.08" y2="21.27" xlink:href="#linear-gradient-2"/><radialGradient id="radial-gradient" cx="-192.55" cy="394.21" r="0.87" gradientTransform="matrix(7.45, 0, 0, -7.45, 1452.08, 2944.62)" gradientUnits="userSpaceOnUse"><stop offset="0" stop-color="#00b8f0"/><stop offset="1" stop-color="#005886"/></radialGradient><linearGradient id="linear-gradient-6" x1="25.81" y1="35.95" x2="30.66" y2="34.7" xlink:href="#linear-gradient-2"/><linearGradient id="linear-gradient-7" x1="10.05" y1="18.48" x2="6.05" y2="17" xlink:href="#linear-gradient-2"/><linearGradient id="linear-gradient-8" x1="17.3" y1="28.06" x2="-5.17" y2="20.3" gradientTransform="matrix(1, 0, 0, -1, 0, 52)" gradientUnits="userSpaceOnUse"><stop offset="0" stop-color="#fff"/><stop offset="1" stop-color="#a4c4d1"/></linearGradient><linearGradient id="linear-gradient-9" x1="23.94" y1="18.44" x2="27.93" y2="16.95" xlink:href="#linear-gradient-2"/><linearGradient id="linear-gradient-10" x1="16.69" y1="28.03" x2="39.16" y2="20.27" xlink:href="#linear-gradient-8"/><linearGradient id="linear-gradient-11" x1="4.07" y1="27" x2="29.92" y2="27" gradientTransform="matrix(1, 0, 0, -1, 0, 52)" gradientUnits="userSpaceOnUse"><stop offset="0" stop-color="#1f5f88"/><stop offset="0.52" stop-color="#1abdcc"/><stop offset="1" stop-color="#1c5b85"/></linearGradient><linearGradient id="linear-gradient-12" x1="4.27" y1="31.05" x2="29.7" y2="31.05" gradientTransform="matrix(1, 0, 0, -1, 0, 52)" gradientUnits="userSpaceOnUse"><stop offset="0" stop-color="#4cc7ed"/><stop offset="1" stop-color="#1abdcc"/></linearGradient><radialGradient id="radial-gradient-2" cx="-191.68" cy="393.06" r="0.87" gradientTransform="matrix(7.24, 0, 0, -7.24, 1404.68, 2872.14)" gradientUnits="userSpaceOnUse"><stop offset="0" stop-color="#fff"/><stop offset="1" stop-color="#fff" stop-opacity="0"/></radialGradient><radialGradient id="radial-gradient-3" cx="-185.39" cy="382.14" r="0.87" gradientTransform="matrix(6, 0, 0, -6, 1128.65, 2328.69)" gradientUnits="userSpaceOnUse"><stop offset="0" stop-color="#25bdcc"/><stop offset="1" stop-color="#005786"/></radialGradient><radialGradient id="radial-gradient-4" cx="-160.65" cy="338.29" r="0.87" gradientTransform="matrix(3.58, 0, 0, -3.58, 591.78, 1246.23)" xlink:href="#radial-gradient-3"/><linearGradient id="linear-gradient-13" x1="17.01" y1="11.61" x2="17.07" y2="14.19" xlink:href="#linear-gradient-2"/><linearGradient id="linear-gradient-14" x1="142.47" y1="12.07" x2="145.63" y2="15.83" gradientUnits="userSpaceOnUse"><stop offset="0.22" stop-color="#ffcb43"/><stop offset="1" stop-color="#ff539b"/></linearGradient></defs><g id="Layer_2" data-name="Layer 2"><g id="GetGenie"><g id="logo_black"><g id="path"><path class="cls-1" d="M7.4,8.82A6,6,0,0,1,9.74,7.56c1.95-.69,15-2.44,17.54,2.14s2.53,15.1,2.53,15.1l-.19,1.65-2.05,9.16L24.06,40l-.29.29-2.24,2-2.63,1L17,43.89h-.19l-4.29-1.75-1.85-1.56L9.94,40,6.43,34.83l-.78-6.52L4.29,26.36V23.05l.29-3.41,1-8.48Z"/><path class="cls-2" d="M18.12,2.88a1.35,1.35,0,0,1,1.07-1.17,1.64,1.64,0,0,1,1,0,4.34,4.34,0,0,1,2.24,1.46,7.83,7.83,0,0,1,1.26,2.34A20.49,20.49,0,0,1,25,11.45l1.17,1a23.58,23.58,0,0,0-1.56-7.31,16.13,16.13,0,0,0-1.46-2.83A5.41,5.41,0,0,0,20.75.35a4,4,0,0,0-3,0A3.17,3.17,0,0,0,16,2.78Z"/><path class="cls-3" d="M16.37,2.68A3,3,0,0,1,19.19.54,4.31,4.31,0,0,1,22.5,2.1a7,7,0,0,1,1,1.36,19.63,19.63,0,0,1,2.43,7.41"/><path class="cls-3" d="M17.15,2.78a2.37,2.37,0,0,1,1.94-1.46A3.55,3.55,0,0,1,21.53,2a5.42,5.42,0,0,1,1.66,2c1.26,2.14,1.55,4.68,1.85,7.21"/><path class="cls-4" d="M16.76,2.78a3,3,0,0,1,2-1.85,3.55,3.55,0,0,1,2.73.68,7.73,7.73,0,0,1,1.66,1.85c1.36,2.15,1.75,4.68,2.14,7.12"/><path class="cls-5" d="M2.34,31.72a.5.5,0,0,1-.39-.2L.49,24.31a.51.51,0,0,1,.19-.39.5.5,0,0,1,.39.2l1.46,7.21A.51.51,0,0,1,2.34,31.72Z"/><path class="cls-6" d="M1.66,31.42a.48.48,0,0,1-.39-.19L0,24.7c0-.1.1-.29.19-.29a.51.51,0,0,1,.39.19L1.85,31C2,31.23,1.85,31.33,1.66,31.42Z"/><path class="cls-7" d="M4.48,33.18A1.47,1.47,0,0,1,2.73,32L.88,23.43a1.47,1.47,0,0,1,1.17-1.75A1.5,1.5,0,0,1,3.9,22.85l1.75,8.57A1.47,1.47,0,0,1,4.48,33.18Z"/><path class="cls-8" d="M1,26.55l.59-.1"/><path class="cls-8" d="M1.07,27l.59-.1"/><path class="cls-8" d="M1.17,27.53l.58-.1"/><path class="cls-8" d="M1.27,28l.58-.09"/><path class="cls-9" d="M2.24,29.28,5,28.7l.29,1.46-2.73.48Z"/><path class="cls-10" d="M9.16,22.17a3.41,3.41,0,0,1-3.9,2,4.88,4.88,0,0,1-1.17-.39,27.15,27.15,0,0,1,.2-3.31l.58-7.4A6.31,6.31,0,0,1,6.33,9.7,15.86,15.86,0,0,1,7.7,8.43c.09,0,.19-.1.29-.1a7.54,7.54,0,0,0-.78,3.32,17.41,17.41,0,0,0,1.56,7A5.58,5.58,0,0,1,9.16,22.17Z"/><path class="cls-5" d="M31.66,31.72a.5.5,0,0,0,.39-.2l1.46-7.21a.51.51,0,0,0-.19-.39.5.5,0,0,0-.39.2l-1.46,7.21A.51.51,0,0,0,31.66,31.72Z"/><path class="cls-6" d="M32.34,31.42a.48.48,0,0,0,.39-.19L34,24.8a.52.52,0,0,0-.19-.39.51.51,0,0,0-.39.19L32.15,31C32.05,31.23,32.15,31.33,32.34,31.42Z"/><path class="cls-11" d="M29.52,33.18A1.47,1.47,0,0,0,31.27,32l1.85-8.58a1.49,1.49,0,0,0-2.92-.58l-1.75,8.57A1.35,1.35,0,0,0,29.52,33.18Z"/><path class="cls-8" d="M33,26.55l-.59-.1"/><path class="cls-8" d="M32.93,27l-.59-.1"/><path class="cls-8" d="M32.83,27.53l-.58-.1"/><path class="cls-8" d="M32.73,28l-.58-.09"/><path class="cls-12" d="M31.76,29.28,29,28.7l-.29,1.46,2.73.48Z"/><path class="cls-13" d="M8.18,8.14a2,2,0,0,0-.48.29c.09,0,.19-.1.29-.1A5.18,5.18,0,0,1,12.28,9.6c3,2.53,3,3.22,4.77,3.22V5.51A13.6,13.6,0,0,0,8.18,8.14Zm17.64,0A14.49,14.49,0,0,0,17,5.5V13c1.75,0,1.75-.58,4.77-3.21A4.8,4.8,0,0,1,26,8.53a.34.34,0,0,1,.29.1A.78.78,0,0,0,25.82,8.14Z"/><path class="cls-14" d="M24.84,22.17a3.41,3.41,0,0,0,3.9,2,4.88,4.88,0,0,0,1.17-.39,27.15,27.15,0,0,0-.2-3.31L29,13.11A6.31,6.31,0,0,0,27.57,9.7,7.63,7.63,0,0,0,26.3,8.43c-.09,0-.19-.1-.29-.1a7.54,7.54,0,0,1,.78,3.32,17.41,17.41,0,0,1-1.56,7A5.58,5.58,0,0,0,24.84,22.17Z"/><path class="cls-15" d="M14.52,42.72a5.48,5.48,0,0,1-1.86-.48,5.64,5.64,0,0,1-.68-.39L9.94,40,7.7,38.15A5.35,5.35,0,0,1,6.23,36a65.3,65.3,0,0,1-2-9.64c-.1-.49-.1-1-.2-1.46a1.79,1.79,0,0,1,.69.19,12,12,0,0,1,2.63,1.66c.39.29,2,1.26,2.14,1.85s-1.17,1.17-1.36,1.75a3.74,3.74,0,0,0,0,2.34A18.93,18.93,0,0,0,9,36.1a7.6,7.6,0,0,0,1.46,2.73,27.55,27.55,0,0,0,2.63,2A3.09,3.09,0,0,1,14.52,42.72Z"/><path class="cls-16" d="M17,12.91v30h-.1a16,16,0,0,1-2.33-.1A4.64,4.64,0,0,0,13.05,41a17.43,17.43,0,0,1-2.63-2A8.35,8.35,0,0,1,9.06,36.1a19.82,19.82,0,0,1-.88-3.41,6.57,6.57,0,0,1,0-2.34c.2-.58,1.37-1.26,1.37-1.75S7.89,27,7.4,26.75a7.47,7.47,0,0,0-2.63-1.66,1.7,1.7,0,0,0-.68-.19V23.82a4.88,4.88,0,0,0,1.17.39,3.41,3.41,0,0,0,3.9-2c.39-1.17-.1-2.34-.49-3.51-.78-2.24-1.66-4.58-1.56-7a7.88,7.88,0,0,1,.78-3.32A5.18,5.18,0,0,1,12.18,9.6C15.3,12.23,15.3,12.91,17,12.91Z"/><path class="cls-17" d="M19.48,42.72a5.48,5.48,0,0,0,1.86-.48,5.64,5.64,0,0,0,.68-.39l2-1.76,2.24-1.85a5.25,5.25,0,0,0,1.47-2.14,65.14,65.14,0,0,0,2-9.65c.1-.48.1-1,.2-1.46a1.81,1.81,0,0,0-.69.2,12.31,12.31,0,0,0-2.63,1.65c-.39.3-2,1.27-2.14,1.86s1.17,1.16,1.36,1.75a3.74,3.74,0,0,1,0,2.34A18.93,18.93,0,0,1,25,36.2a7.48,7.48,0,0,1-1.46,2.72A27.64,27.64,0,0,1,21,41,2.65,2.65,0,0,0,19.48,42.72Z"/><path class="cls-18" d="M17.05,12.91v30h.1a16,16,0,0,0,2.33-.1A4.64,4.64,0,0,1,21,41a17.43,17.43,0,0,0,2.63-2A9.14,9.14,0,0,0,25,36.2a18.93,18.93,0,0,0,.87-3.41,6.14,6.14,0,0,0,0-2.34c-.19-.59-1.36-1.27-1.36-1.75s1.66-1.56,2.14-1.86a7.53,7.53,0,0,1,2.63-1.65A1.81,1.81,0,0,1,30,25V23.92a5.36,5.36,0,0,1-1.17.39,3.43,3.43,0,0,1-3.9-2c-.39-1.17.1-2.34.49-3.51a19.48,19.48,0,0,0,1.56-7,8,8,0,0,0-.78-3.31A5.14,5.14,0,0,0,21.92,9.7C18.7,12.23,18.7,12.91,17.05,12.91Z"/><path class="cls-6" d="M4.29,20.61a20,20,0,0,0,0,5.75l4.87,3.31a3.09,3.09,0,0,0,2.24.49L17.05,29l5.65,1.17a2.68,2.68,0,0,0,2.24-.49l4.87-3.31a20.75,20.75,0,0,0,0-5.85A59.37,59.37,0,0,1,4.29,20.61Z"/><path class="cls-19" d="M4.29,20.32a22.28,22.28,0,0,0,0,6l5.65,3.31a1.19,1.19,0,0,0,.58.1l6.53-1.07,6.53,1.07a1.19,1.19,0,0,0,.58-.1l5.65-3.31a23.11,23.11,0,0,0,0-6.14A57.85,57.85,0,0,1,4.29,20.32Z"/><path class="cls-20" d="M4.29,20.22l.58.1a63.46,63.46,0,0,0,24.26,0l.58-.1"/><path class="cls-21" d="M4.29,20.32l.58.09a63.46,63.46,0,0,0,24.26,0l.58-.09"/><path class="cls-22" d="M16.56,31.91a6.33,6.33,0,1,0-6.33-6.33A6.32,6.32,0,0,0,16.56,31.91Z"/><path class="cls-6" d="M24.06,40a9.31,9.31,0,0,1-7,3.89V42.82h.1a9.29,9.29,0,0,0,4.19-.68,4.56,4.56,0,0,0,.68-.39Z"/><path class="cls-6" d="M9.94,40a9.31,9.31,0,0,0,7,3.89V42.82h-.1a9.29,9.29,0,0,1-4.19-.68,4.56,4.56,0,0,1-.68-.39Z"/><path class="cls-23" d="M30.2,25.58l1.95.29"/><path class="cls-23" d="M3.7,25.48l-1.85.29"/><path class="cls-24" d="M10.42,40.48,11.89,34c0-.1.09-.1.19-.1h9.74a.35.35,0,0,1,.2.1l1.46,6.52-.29.3-1.47-6.63H12.28l-1.56,6.53Z"/><path class="cls-25" d="M21.24,36H12.76a.2.2,0,0,1,0-.39h8.48a.21.21,0,0,1,.19.2C21.43,36,21.34,36,21.24,36Z"/><path class="cls-26" d="M18.22,39.12H15.88a.88.88,0,1,1,0-1.75h2.34a.87.87,0,0,1,.87.87C19.19,38.73,18.8,39.12,18.22,39.12Z"/><path class="cls-27" d="M11.59,6.29c-.09,0-.19.1-.29.1L13,7.56v2.72c.09.1.19.1.19.2V7.36Z"/><path class="cls-27" d="M10.52,6.68c-.1,0-.19.1-.29.1l1.56,1.07V9.31c.1.1.19.1.19.19V7.75Z"/><path class="cls-27" d="M9.74,7.07a.31.31,0,0,0-.19.1l1.07.77v.69a.32.32,0,0,1,.19.09V7.85Z"/><path class="cls-27" d="M13.64,5.7V6.78l-.88-.88c-.1,0-.19.1-.29.1l1.17,1.17V11l.19.19V5.7Z"/><path class="cls-27" d="M16.56,5.7l-.19-.19-1,1.07-1-1.07h-.1l-.1.1L15.3,6.87V8.92l-.49-.49V7.07h-.2V8.43l.78.78v3.22c.1.09.2.09.2.19V6.87Z"/><path class="cls-27" d="M16.46,11.74l.2.2.29-.39v-.39Z"/><path class="cls-27" d="M17,10.28V10l-.58.59V9.5L17,8.92V7.36h-.1V8.72l-.58.59V7.07h-.2v5.65h.2v-2Z"/><path class="cls-27" d="M14.42,9.6v2.05l.19.19V9.6Z"/><path class="cls-27" d="M17.93,10.58v-5h-.2V6.87l-.58-.58-.1.1v.09l.68.69v2l-.68.68v.3l.68-.69v1l-.68.68v.29l.68-.68v2c.1,0,.2,0,.2-.1Z"/><path class="cls-27" d="M17.15,8.82V7.36h-.1V8.92Z"/><path class="cls-27" d="M19.29,9.7c0,.19.1.39.29.39a.31.31,0,0,0,.29-.29.44.44,0,0,0-.29-.3c-.1,0-.19,0-.19.1l-.88-.88V5.51h-.19V8.72Z"/><path class="cls-27" d="M18.41,12.52a.21.21,0,0,0,.2-.19V9.8L20,11.16l.2-.2L18.41,9.21v3.31Z"/><path class="cls-27" d="M19.48,5.61h-.19V8.24l1.95,1.95.19-.2L19.48,8.14Z"/><path class="cls-27" d="M20.65,5.8h-.19V8.14L21.92,9.6l.19-.19L20.75,8V5.8Z"/><path class="cls-27" d="M21.34,7.75V6c-.1,0-.2,0-.2-.1V7.75Z"/><path class="cls-27" d="M21.72,8.53l.2.19.29-.29V6.19a.31.31,0,0,1-.19-.1V8.33Z"/><path class="cls-27" d="M23.58,6.78a.35.35,0,0,1-.2-.1l-.88.88V9.21a.31.31,0,0,1,.2-.1V7.56Z"/><path class="cls-27" d="M23.48,7.56a.3.3,0,0,0-.29.29.31.31,0,0,0,.29.29.32.32,0,0,0,.29-.29v-.1l.68-.68a.35.35,0,0,1-.19-.1l-.59.59A.14.14,0,0,1,23.48,7.56Z"/><path class="cls-28" d="M26,8.43a4.52,4.52,0,0,0-2.53.29,10.19,10.19,0,0,0-2.14,1.47c-.59.58-1.27,1.16-1.95,1.85a5,5,0,0,1-1.07.87,3.06,3.06,0,0,1-1.37.3,3.31,3.31,0,0,1-1.36-.3,1.83,1.83,0,0,1-.59-.39c-.19-.19-.39-.29-.48-.48l-1.95-1.85c-.29-.3-.68-.59-1-.88a6.36,6.36,0,0,0-1.07-.68A3.77,3.77,0,0,0,8,8.43a4.08,4.08,0,0,1,2.63,0,7.85,7.85,0,0,1,1.17.68,4.46,4.46,0,0,1,1.07.78c.68.59,1.27,1.17,2,1.76.19.09.29.29.49.39s.38.29.58.29a2.33,2.33,0,0,0,1.17.19,2.53,2.53,0,0,0,1.17-.19,2.49,2.49,0,0,0,1-.78L21.14,9.8a9.94,9.94,0,0,1,2.24-1.27A4.11,4.11,0,0,1,26,8.43Z"/><path class="cls-6" d="M8.57,7.75a12.62,12.62,0,0,1,1.95-1.07,13.88,13.88,0,0,1,2.14-.78,22.36,22.36,0,0,1,4.39-.68,13.61,13.61,0,0,1,4.38.68,11.53,11.53,0,0,1,4,1.85,19.15,19.15,0,0,0-4.09-1.66A16.83,16.83,0,0,0,8.57,7.75Z"/><path class="cls-20" d="M19.48,4.44a.68.68,0,0,1-.29.58l-.19.2c-.1,0-.2.09-.3.09H15.3a.39.39,0,0,1-.3-.09.87.87,0,0,1-.48-.78.69.69,0,0,1,.29-.59L15,3.66c.1,0,.2-.1.3-.1h3.4a.37.37,0,0,1,.3.1A.77.77,0,0,1,19.48,4.44Z"/><path class="cls-29" d="M18.32,3.56H15.68a.52.52,0,0,1-.48-.49.51.51,0,0,1,.48-.48h2.64a.51.51,0,0,1,.48.48A.45.45,0,0,1,18.32,3.56Z"/><path class="cls-29" d="M19.48,4.44a.68.68,0,0,1-.29.58l-.19.2a.35.35,0,0,1-.1-.2V3.85c0-.09,0-.09.1-.19A.77.77,0,0,1,19.48,4.44Z"/><path class="cls-29" d="M15.1,3.85V5c0,.1,0,.1-.1.2a.87.87,0,0,1-.48-.78.69.69,0,0,1,.29-.59L15,3.66A.35.35,0,0,1,15.1,3.85Z"/><path class="cls-29" d="M15.49,5.31A.46.46,0,0,1,15,4.83V4.05a.49.49,0,1,1,1,0v.87A.45.45,0,0,1,15.49,5.31Z"/><path class="cls-29" d="M18.51,5.31A.46.46,0,0,1,18,4.83V4.05a.49.49,0,0,1,1,0v.87A.65.65,0,0,1,18.51,5.31Z"/><path class="cls-29" d="M17.54,5.31a.45.45,0,0,1-.49-.48V4.05a.49.49,0,1,1,1,0v.78A.45.45,0,0,1,17.54,5.31Z"/><path class="cls-29" d="M16.46,5.31A.45.45,0,0,1,16,4.83V4.05a.49.49,0,1,1,1,0v.78C17.05,5.12,16.76,5.31,16.46,5.31Z"/><path class="cls-4" d="M18.51,4.05v.49"/><path class="cls-4" d="M17.54,4.05v.49"/><path class="cls-4" d="M16.46,4.05v.49"/><path class="cls-4" d="M15.49,4.05v.49"/><path class="cls-30" d="M15.68,3h2.54"/></g><g id="text"><path class="cls-31" d="M50.45,15.71a5.71,5.71,0,0,1,5.76,4.08l4-1.41a9.27,9.27,0,0,0-3.34-4.65,10.23,10.23,0,0,0-6.38-1.89,10.7,10.7,0,0,0-10.89,11.1,10.74,10.74,0,0,0,3.09,8,10.31,10.31,0,0,0,7.53,3A8.29,8.29,0,0,0,54,33.19a6.15,6.15,0,0,0,2.42-2.06l.27,2.43h3.36V22.49H49.46v3.6h6.72a5,5,0,0,1-1.65,2.81,5.67,5.67,0,0,1-4.05,1.33,6.48,6.48,0,0,1-4.78-1.92,7.23,7.23,0,0,1-1.94-5.37,7,7,0,0,1,2-5.37A6.65,6.65,0,0,1,50.45,15.71Z"/><path class="cls-31" d="M68.9,18.35a7,7,0,0,0-5.1,2.18,7.59,7.59,0,0,0-2.16,5.59,7.63,7.63,0,0,0,2.22,5.75A7.48,7.48,0,0,0,69.26,34a7.07,7.07,0,0,0,4.37-1.32A6.35,6.35,0,0,0,76,29.33l-3.33-1a3.23,3.23,0,0,1-3.36,2.25,3.75,3.75,0,0,1-2.58-1,3.27,3.27,0,0,1-1.14-2.4H76.13l0-.21c0-.12,0-.28,0-.48s0-.38,0-.54a7.84,7.84,0,0,0-1.93-5.61A7,7,0,0,0,68.9,18.35ZM65.66,24.5a3,3,0,0,1,1-2,3.17,3.17,0,0,1,2.34-.9,3.29,3.29,0,0,1,2.42.84,3.06,3.06,0,0,1,.88,2.07Z"/><path class="cls-31" d="M83.06,14.39h-3.6v2.07a2.44,2.44,0,0,1-.58,1.7,2.2,2.2,0,0,1-1.7.65h-.75v3.53H79.1v6.87a4.43,4.43,0,0,0,1.26,3.35,4.72,4.72,0,0,0,3.42,1.21A6,6,0,0,0,86,33.41v-3.3a4.76,4.76,0,0,1-1.23.12,1.89,1.89,0,0,1-1.32-.39,1.73,1.73,0,0,1-.42-1.32V22.34h3V18.81h-3Z"/><path class="cls-31" d="M98.06,15.71a5.71,5.71,0,0,1,5.76,4.08l4-1.41a9.29,9.29,0,0,0-3.35-4.65,10.2,10.2,0,0,0-6.37-1.89,10.69,10.69,0,0,0-10.89,11.1,10.74,10.74,0,0,0,3.09,8,10.31,10.31,0,0,0,7.53,3,8.32,8.32,0,0,0,3.85-.82,6.22,6.22,0,0,0,2.42-2.06l.27,2.43h3.36V22.49H97.07v3.6h6.72a5,5,0,0,1-1.65,2.81,5.67,5.67,0,0,1-4,1.33,6.5,6.5,0,0,1-4.79-1.92,7.22,7.22,0,0,1-1.93-5.37,7,7,0,0,1,2-5.37A6.67,6.67,0,0,1,98.06,15.71Z"/><path class="cls-31" d="M116.51,18.35a7,7,0,0,0-5.1,2.18,7.59,7.59,0,0,0-2.16,5.59,7.63,7.63,0,0,0,2.22,5.75,7.48,7.48,0,0,0,5.4,2.14,7,7,0,0,0,4.36-1.32,6.37,6.37,0,0,0,2.36-3.36l-3.33-1a3.23,3.23,0,0,1-3.36,2.25,3.75,3.75,0,0,1-2.58-1,3.27,3.27,0,0,1-1.14-2.4h10.56l0-.21c0-.12,0-.28,0-.48s0-.38,0-.54a7.84,7.84,0,0,0-1.94-5.61A7,7,0,0,0,116.51,18.35Zm-3.24,6.15a3,3,0,0,1,1-2,3.17,3.17,0,0,1,2.34-.9,3.27,3.27,0,0,1,2.41.84,3.07,3.07,0,0,1,.89,2.07Z"/><path class="cls-31" d="M133.88,18.41a5.55,5.55,0,0,0-2.46.57,4.12,4.12,0,0,0-1.8,1.65V18.81h-3.87V33.56h4V25.07a3.25,3.25,0,0,1,.75-2.19,2.55,2.55,0,0,1,2-.87,2.5,2.5,0,0,1,2.05.81,3.22,3.22,0,0,1,.68,2.13v8.61h4v-9.3a6.39,6.39,0,0,0-1.36-4.21A4.91,4.91,0,0,0,133.88,18.41Z"/><path class="cls-32" d="M144.05,11.48a2.35,2.35,0,0,0-1.74.74,2.43,2.43,0,0,0-.72,1.75,2.34,2.34,0,0,0,.72,1.71,2.46,2.46,0,0,0,3.48,0,2.34,2.34,0,0,0,.72-1.71,2.41,2.41,0,0,0-.72-1.77A2.37,2.37,0,0,0,144.05,11.48Z"/><rect class="cls-31" x="142.07" y="18.81" width="3.99" height="14.76"/><path class="cls-31" d="M160.62,20.39a7.52,7.52,0,0,0-10.45.14A7.59,7.59,0,0,0,148,26.12a7.63,7.63,0,0,0,2.22,5.75,7.48,7.48,0,0,0,5.4,2.14A7,7,0,0,0,160,32.69a6.37,6.37,0,0,0,2.36-3.36l-3.33-1a3.23,3.23,0,0,1-3.36,2.25,3.75,3.75,0,0,1-2.58-1,3.27,3.27,0,0,1-1.14-2.4H162.5l0-.21c0-.12,0-.28,0-.48s0-.38,0-.54A7.84,7.84,0,0,0,160.62,20.39ZM152,24.5a3,3,0,0,1,1-2,3.17,3.17,0,0,1,2.34-.9,3.27,3.27,0,0,1,2.41.84,3.07,3.07,0,0,1,.89,2.07Z"/></g></g></g></g></svg>