<svg width="22" height="22" viewBox="0 0 22 22" fill="none" xmlns="http://www.w3.org/2000/svg">
<g id="Refetch_button">
<circle id="ellipse" cx="11" cy="11" r="11" fill="#031233" fill-opacity="0.1"/>
<path id="icon" d="M16.3793 10.3795H16.3787C16.2972 10.3796 16.2165 10.3957 16.1412 10.4269C16.066 10.4582 15.9976 10.504 15.94 10.5617C15.8824 10.6194 15.8367 10.6878 15.8056 10.7632C15.7745 10.8385 15.7585 10.9192 15.7586 11.0007C15.7578 11.871 15.5185 12.7243 15.0667 13.4681C14.6149 14.2118 13.9678 14.8175 13.1959 15.2192C12.424 15.621 11.5567 15.8034 10.6883 15.7468C9.81997 15.6902 8.98373 15.3966 8.27053 14.898C6.12132 13.3931 5.5971 10.4202 7.10202 8.27094C8.60693 6.1217 11.5798 5.59743 13.7291 7.1024C14.0542 7.32948 14.3497 7.59629 14.6087 7.89665H12.8619C12.6973 7.89665 12.5394 7.96205 12.423 8.07845C12.3066 8.19486 12.2412 8.35274 12.2412 8.51736C12.2412 8.68198 12.3066 8.83986 12.423 8.95627C12.5394 9.07268 12.6973 9.13807 12.8619 9.13807H15.7586C15.9232 9.13807 16.0811 9.07268 16.1975 8.95627C16.3139 8.83986 16.3793 8.68198 16.3793 8.51736V5.62071C16.3793 5.45609 16.3139 5.29821 16.1975 5.1818C16.0811 5.0654 15.9232 5 15.7586 5C15.594 5 15.4361 5.0654 15.3197 5.1818C15.2033 5.29821 15.1379 5.45609 15.1379 5.62071V6.65438C14.92 6.4477 14.6872 6.25752 14.4411 6.08539C13.7957 5.63347 13.0676 5.3131 12.2984 5.14257C11.5291 4.97204 10.7339 4.95469 9.95793 5.09151C9.182 5.22833 8.44061 5.51665 7.7761 5.93999C7.1116 6.36333 6.53698 6.91341 6.08506 7.55883C5.17237 8.8623 4.81486 10.475 5.09118 12.042C5.3675 13.6091 6.25502 15.0022 7.5585 15.9149C8.56207 16.6218 9.75954 17.0013 10.9871 17.0015C11.3406 17.0014 11.6935 16.9703 12.0417 16.9088C13.4309 16.6637 14.6893 15.9371 15.5961 14.8565C16.5028 13.7758 16.9999 12.4103 17 10.9997C16.9999 10.8351 16.9344 10.6774 16.818 10.5611C16.7016 10.4448 16.5438 10.3795 16.3793 10.3795Z" fill="#57595F"/>
</g>
</svg>
