<svg xmlns="http://www.w3.org/2000/svg" xmlns:xlink="http://www.w3.org/1999/xlink" viewBox="0 0 85.09 62.07"><defs><style>.cls-1{fill:url(#linear-gradient);}.cls-2{fill:url(#linear-gradient-2);}.cls-3{fill:#fff;}</style><linearGradient id="linear-gradient" x1="4.76" y1="14.68" x2="47.99" y2="42.39" gradientUnits="userSpaceOnUse"><stop offset="0" stop-color="#f8003c"/><stop offset="1" stop-color="#ff8438"/></linearGradient><linearGradient id="linear-gradient-2" x1="18.07" y1="8.77" x2="85.09" y2="8.77" gradientUnits="userSpaceOnUse"><stop offset="0" stop-color="#00d5c9"/><stop offset="0.84" stop-color="#0099ac"/></linearGradient></defs><g id="Layer_2" data-name="Layer 2"><g id="Layer_1-2" data-name="Layer 1"><path class="cls-1" d="M7,24.54a2.19,2.19,0,0,1,2.2,1.75,2.09,2.09,0,0,1-2.06,2.45H4.29a2.17,2.17,0,0,0-2.17,1.74,2.09,2.09,0,0,0,2.06,2.44h.36V45.29A5.21,5.21,0,0,0,9.75,50.5h7a2.24,2.24,0,0,1,1.63.7l10,10.59a.88.88,0,0,0,1.53-.61V52.11a1.61,1.61,0,0,1,1.62-1.61H60.77A5.21,5.21,0,0,0,66,45.29v-25H20.86a5.58,5.58,0,0,1-5.58-5.58V11.4H9.75a5.21,5.21,0,0,0-5.21,5.21v2.48a1.25,1.25,0,0,1-1.25,1.25H2.2A2.17,2.17,0,0,0,0,22.07a2.11,2.11,0,0,0,2.06,2.47Z"/><rect class="cls-2" x="18.07" width="67.02" height="17.54" rx="2.79"/><polygon class="cls-3" points="28.01 4.07 29.45 6.98 32.66 7.45 30.33 9.71 30.88 12.91 28.01 11.4 25.13 12.91 25.68 9.71 23.36 7.45 26.57 6.98 28.01 4.07"/><polygon class="cls-3" points="39.8 4.07 41.23 6.98 44.45 7.45 42.12 9.71 42.67 12.91 39.8 11.4 36.92 12.91 37.47 9.71 35.14 7.45 38.36 6.98 39.8 4.07"/><polygon class="cls-3" points="51.58 4.07 53.02 6.98 56.23 7.45 53.91 9.71 54.46 12.91 51.58 11.4 48.71 12.91 49.26 9.71 46.93 7.45 50.15 6.98 51.58 4.07"/><polygon class="cls-3" points="63.37 4.07 64.81 6.98 68.02 7.45 65.69 9.71 66.24 12.91 63.37 11.4 60.49 12.91 61.04 9.71 58.72 7.45 61.93 6.98 63.37 4.07"/><polygon class="cls-3" points="75.16 4.07 76.59 6.98 79.81 7.45 77.48 9.71 78.03 12.91 75.16 11.4 72.28 12.91 72.83 9.71 70.5 7.45 73.72 6.98 75.16 4.07"/><rect class="cls-3" x="18.04" y="28.03" width="35.53" height="4.28" rx="2.14"/><rect class="cls-3" x="18.04" y="38.65" width="22.99" height="4.28" rx="2.14"/></g></g></svg>