<svg width="49" height="45" fill="none" xmlns="http://www.w3.org/2000/svg"><path d="M21.726 27.543 1 15.628c-1.496-.887-1.33-2.383.444-3.381L21.172.831C22.89-.167 25.55-.278 27.046.609l20.727 11.97c1.496.887 1.33 2.383-.444 3.381L27.6 27.32c-1.718.998-4.378 1.11-5.874.223z" fill="#7B68EE"/><path d="M28.601 12.026 23.891 9.7c-1.109-.554-2.383.277-2.383 1.496v4.71c0 1.22 1.274 2.051 2.383 1.497l4.71-2.328c1.22-.665 1.22-2.438 0-3.048z" fill="#F7F7F7"/><path d="M.776 27.985A.758.758 0 0 1 0 27.21V14.463c0-.443.333-.775.776-.775s.776.332.776.775V27.21c.055.443-.333.775-.776.775z" fill="#7B68EE"/><path opacity=".5" d="m41.456 36.963-13.633 7.87c-.776.443-1.386 0-1.386-1.054v-9.476c0-1.053.61-2.272 1.386-2.716l13.578-7.87c.775-.443 1.385 0 1.385 1.054v9.476c.055 1.109-.554 2.273-1.33 2.716z" fill="#7B68EE"/><path d="m34.69 31.81-3.99 2.272c-.221.111-.387 0-.387-.332 0-.277.166-.665.387-.776l3.99-2.272c.222-.111.389 0 .389.332.055.277-.167.61-.388.776zM36.139 33.971l-5.376 3.16c-.222.11-.388 0-.388-.333 0-.277.166-.665.388-.776l5.431-3.103c.222-.111.388 0 .388.332 0 .277-.222.61-.444.72zM32.315 39.236l-1.552.887c-.222.11-.388 0-.388-.333 0-.277.166-.665.388-.776l1.552-.887c.221-.11.388 0 .388.333 0 .277-.167.665-.388.776z" fill="#F7F7F7"/><path opacity=".5" d="m20.948 44.834-13.633-7.87c-.776-.443-1.385-1.663-1.385-2.715v-9.422c0-1.053.61-1.496 1.385-1.053l13.578 7.87c.776.443 1.385 1.662 1.385 2.715v9.422c.056 1.053-.554 1.496-1.33 1.053z" fill="#7B68EE"/><path d="m14.19 31.864-3.99-2.272c-.221-.11-.387-.498-.387-.776 0-.277.166-.443.387-.332l3.99 2.272c.222.11.389.499.389.776.055.332-.167.443-.388.332zM15.632 35.745 10.2 32.64c-.221-.11-.387-.499-.387-.776s.166-.443.387-.332l5.432 3.103c.221.111.387.499.387.776.056.333-.166.443-.387.333zM11.807 36.52l-1.552-.887c-.222-.11-.388-.498-.388-.776 0-.277.166-.443.388-.332l1.552.887c.221.11.388.498.388.776 0 .332-.167.498-.388.332z" fill="#F7F7F7"/></svg>