<svg width="162" height="45" viewBox="0 0 162 45" fill="none" xmlns="http://www.w3.org/2000/svg">
<g clip-path="url(#clip0_104:2)">
<path d="M21.7241 27.5431L0.997536 15.6281C-0.49877 14.7414 -0.332514 13.2451 1.44089 12.2476L21.17 0.83131C22.8879 -0.166227 25.548 -0.277064 27.0443 0.609635L47.7709 12.5801C49.2672 13.4668 49.101 14.9631 47.3276 15.9606L27.5985 27.3215C25.8805 28.319 23.2204 28.4298 21.7241 27.5431Z" fill="#7B68EE"/>
<path d="M28.596 12.0259L23.8854 9.69832C22.7771 9.14413 21.5024 9.97541 21.5024 11.1946V15.9052C21.5024 17.1244 22.7771 17.9557 23.8854 17.4015L28.596 15.0739C29.8152 14.4089 29.8152 12.6355 28.596 12.0259Z" fill="white"/>
<path d="M0.775862 27.9865C0.332512 27.9865 0 27.654 0 27.2106V14.4643C0 14.021 0.332512 13.6885 0.775862 13.6885C1.21921 13.6885 1.55172 14.021 1.55172 14.4643V27.2106C1.60714 27.654 1.21921 27.9865 0.775862 27.9865Z" fill="#7B68EE"/>
<g opacity="0.5">
<path opacity="0.5" d="M41.4532 36.9643L27.8202 44.8338C27.0443 45.2772 26.4347 44.8338 26.4347 43.7808V34.3042C26.4347 33.2513 27.0443 32.0321 27.8202 31.5887L41.3978 23.7193C42.1736 23.2759 42.7832 23.7193 42.7832 24.7722V34.2488C42.8387 35.3572 42.2291 36.521 41.4532 36.9643Z" fill="#7B68EE"/>
</g>
<path d="M34.6921 31.8104L30.702 34.0825C30.4803 34.1934 30.314 34.0825 30.314 33.75C30.314 33.4729 30.4803 33.085 30.702 32.9742L34.6921 30.702C34.9138 30.5912 35.08 30.702 35.08 31.0345C35.1355 31.3116 34.9138 31.6441 34.6921 31.8104Z" fill="white"/>
<path d="M36.133 33.9717L30.7574 37.1306C30.5357 37.2414 30.3695 37.1306 30.3695 36.7981C30.3695 36.521 30.5357 36.133 30.7574 36.0222L36.1884 32.9188C36.4101 32.8079 36.5764 32.9188 36.5764 33.2513C36.5764 33.5284 36.3547 33.8609 36.133 33.9717Z" fill="white"/>
<path d="M32.3091 39.2365L30.7574 40.1232C30.5357 40.234 30.3695 40.1232 30.3695 39.7907C30.3695 39.5136 30.5357 39.1256 30.7574 39.0148L32.3091 38.1281C32.5308 38.0173 32.6971 38.1281 32.6971 38.4606C32.6971 38.7377 32.5308 39.1256 32.3091 39.2365Z" fill="white"/>
<g opacity="0.5">
<path opacity="0.5" d="M20.9483 44.8338L7.31526 36.9643C6.5394 36.521 5.92979 35.3018 5.92979 34.2488V24.8276C5.92979 23.7747 6.5394 23.3313 7.31526 23.7747L20.8928 31.6441C21.6687 32.0875 22.2783 33.3067 22.2783 34.3597V43.7808C22.3337 44.8338 21.7241 45.2772 20.9483 44.8338Z" fill="#7B68EE"/>
</g>
<path d="M14.1872 31.8658L10.197 29.5936C9.97537 29.4828 9.80911 29.0949 9.80911 28.8178C9.80911 28.5407 9.97537 28.3744 10.197 28.4852L14.1872 30.7574C14.4089 30.8682 14.5751 31.2562 14.5751 31.5333C14.6305 31.8658 14.4089 31.9766 14.1872 31.8658Z" fill="white"/>
<path d="M15.6281 35.7451L10.197 32.6417C9.97537 32.5308 9.80911 32.1429 9.80911 31.8658C9.80911 31.5887 9.97537 31.4224 10.197 31.5333L15.6281 34.6367C15.8498 34.7476 16.016 35.1355 16.016 35.4126C16.0714 35.7451 15.8498 35.856 15.6281 35.7451Z" fill="white"/>
<path d="M11.8042 36.521L10.2525 35.6343C10.0308 35.5234 9.86453 35.1355 9.86453 34.8584C9.86453 34.5813 10.0308 34.4151 10.2525 34.5259L11.8042 35.4126C12.0259 35.5234 12.1921 35.9114 12.1921 36.1885C12.1921 36.521 12.0259 36.6872 11.8042 36.521Z" fill="white"/>
<path d="M70.3263 17.9557H62.9557L61.5148 21.3916H58.6884L65.3387 6.65027H68.0542L74.7044 21.3916H71.8226L70.3263 17.9557ZM69.4396 15.7944L66.6687 9.36579L63.8978 15.7944H69.4396Z" fill="#111111"/>
<path d="M78.1958 20.7821C77.2537 20.2833 76.5332 19.6183 76.0345 18.7316C75.5357 17.8449 75.2586 16.8473 75.2586 15.7389C75.2586 14.6306 75.5357 13.633 76.0345 12.7463C76.5332 11.8596 77.2537 11.1946 78.1958 10.6958C79.1379 10.1971 80.1909 9.9754 81.3547 9.9754C82.463 9.9754 83.4606 10.1971 84.2919 10.6404C85.1231 11.0838 85.7327 11.7488 86.1761 12.5801L84.181 13.7439C83.8485 13.2451 83.4606 12.8572 82.9618 12.5801C82.463 12.303 81.9643 12.1922 81.3547 12.1922C80.3571 12.1922 79.5813 12.5247 78.9162 13.1343C78.2512 13.7993 77.9741 14.6306 77.9741 15.6835C77.9741 16.7365 78.3066 17.6232 78.9162 18.2328C79.5813 18.8978 80.3571 19.1749 81.3547 19.1749C81.9088 19.1749 82.463 19.0641 82.9618 18.787C83.4606 18.5099 83.8485 18.122 84.181 17.6232L86.1761 18.787C85.7327 19.6183 85.1231 20.2833 84.2919 20.7266C83.4606 21.17 82.5184 21.3917 81.4101 21.3917C80.1909 21.5025 79.1379 21.2808 78.1958 20.7821Z" fill="#111111"/>
<path d="M96.5394 11.1946C97.4261 11.9705 97.8694 13.1897 97.8694 14.7968V21.3917H95.3756V20.0062C95.0431 20.505 94.5997 20.8929 93.9901 21.1146C93.3805 21.3362 92.6601 21.5025 91.8288 21.5025C90.9975 21.5025 90.2216 21.3362 89.612 21.0591C89.0024 20.7821 88.5037 20.3941 88.1712 19.8399C87.8386 19.3412 87.6724 18.7316 87.6724 18.122C87.6724 17.1244 88.0603 16.2931 88.7808 15.6835C89.5566 15.0739 90.7204 14.7414 92.3276 14.7414H95.2093V14.5752C95.2093 13.7993 94.9877 13.1897 94.4889 12.7463C94.0455 12.303 93.3251 12.1367 92.383 12.1367C91.7734 12.1367 91.1083 12.2476 90.4987 12.4138C89.8891 12.6355 89.3904 12.8572 88.947 13.2451L87.8941 11.3055C88.5037 10.8621 89.1687 10.5296 90 10.2525C90.8312 10.0308 91.718 9.91998 92.6601 9.91998C94.3781 9.9754 95.6527 10.4188 96.5394 11.1946ZM94.101 19.1749C94.5997 18.8978 94.9877 18.4545 95.2093 17.9003V16.5702H92.4938C90.9975 16.5702 90.2216 17.069 90.2216 18.0665C90.2216 18.5653 90.3879 18.8978 90.7758 19.2303C91.1638 19.5074 91.6625 19.6737 92.383 19.6737C93.048 19.6183 93.6022 19.452 94.101 19.1749Z" fill="#111111"/>
<path d="M112.334 5.76358V21.3917H109.784V19.9508C109.341 20.505 108.787 20.8929 108.177 21.17C107.512 21.4471 106.847 21.5579 106.071 21.5579C104.963 21.5579 104.021 21.3362 103.134 20.8375C102.248 20.3387 101.582 19.6737 101.084 18.787C100.585 17.9003 100.363 16.9027 100.363 15.7389C100.363 14.5752 100.585 13.5776 101.084 12.7463C101.582 11.8596 102.248 11.1946 103.134 10.7513C104.021 10.2525 104.963 10.0308 106.071 10.0308C106.792 10.0308 107.512 10.1417 108.122 10.4188C108.732 10.6958 109.286 11.0284 109.729 11.5825V5.76358H112.334ZM108.066 18.8424C108.565 18.5653 108.953 18.122 109.286 17.6232C109.563 17.069 109.729 16.4594 109.729 15.7944C109.729 15.0739 109.563 14.4643 109.286 13.9655C109.009 13.4114 108.565 13.0234 108.066 12.7463C107.568 12.4692 107.014 12.303 106.348 12.303C105.683 12.303 105.129 12.4692 104.631 12.7463C104.132 13.0234 103.744 13.4668 103.411 13.9655C103.134 14.5197 102.968 15.1293 102.968 15.7944C102.968 16.5148 103.134 17.1244 103.411 17.6232C103.688 18.1774 104.132 18.5653 104.631 18.8424C105.129 19.1195 105.683 19.2857 106.348 19.2857C107.014 19.2857 107.568 19.1195 108.066 18.8424Z" fill="#111111"/>
<path d="M126.299 16.5702H117.488C117.654 17.4015 118.042 18.0665 118.707 18.5653C119.372 19.0641 120.148 19.2858 121.145 19.2858C122.365 19.2858 123.417 18.8978 124.193 18.0665L125.579 19.6737C125.08 20.2833 124.415 20.7266 123.639 21.0592C122.863 21.3917 121.977 21.5025 121.034 21.5025C119.815 21.5025 118.707 21.2808 117.765 20.7821C116.823 20.2833 116.102 19.6183 115.603 18.7316C115.105 17.8449 114.828 16.8473 114.828 15.739C114.828 14.6306 115.049 13.633 115.548 12.8018C116.047 11.9151 116.712 11.25 117.599 10.7513C118.485 10.2525 119.483 10.0308 120.591 10.0308C121.699 10.0308 122.642 10.2525 123.528 10.7513C124.415 11.25 125.08 11.9151 125.523 12.8018C126.022 13.6885 126.244 14.686 126.244 15.8498C126.355 16.016 126.355 16.2377 126.299 16.5702ZM118.541 12.8572C117.931 13.3559 117.599 14.021 117.488 14.8523H123.861C123.75 14.021 123.417 13.3559 122.808 12.8572C122.198 12.3584 121.533 12.0813 120.647 12.0813C119.815 12.0813 119.095 12.3584 118.541 12.8572Z" fill="#111111"/>
<path d="M146.416 11.25C147.248 12.0813 147.635 13.3005 147.635 14.9631V21.3917H144.975V15.2956C144.975 14.2981 144.754 13.5776 144.31 13.0789C143.867 12.5801 143.257 12.3584 142.426 12.3584C141.539 12.3584 140.819 12.6355 140.32 13.2451C139.766 13.8547 139.544 14.686 139.544 15.7389V21.4471H136.884V15.351C136.884 14.3535 136.663 13.633 136.219 13.1343C135.776 12.6355 135.166 12.4138 134.335 12.4138C133.448 12.4138 132.728 12.6909 132.174 13.3005C131.619 13.8547 131.398 14.686 131.398 15.7944V21.5025H128.738V10.1417H131.232V11.5825C131.675 11.0838 132.174 10.6958 132.839 10.4188C133.448 10.1417 134.169 10.0308 134.945 10.0308C135.776 10.0308 136.552 10.1971 137.161 10.5296C137.771 10.8621 138.325 11.3055 138.713 11.9151C139.156 11.3055 139.766 10.8621 140.486 10.5296C141.207 10.1971 142.038 10.0308 142.925 10.0308C144.477 9.9754 145.64 10.4188 146.416 11.25Z" fill="#111111"/>
<path d="M161.379 10.1417L156.115 22.2784C155.616 23.4976 155.006 24.3843 154.341 24.883C153.621 25.3818 152.789 25.6035 151.792 25.6035C151.238 25.6035 150.683 25.4927 150.129 25.3264C149.575 25.1601 149.132 24.883 148.799 24.5505L149.852 22.6109C150.129 22.8326 150.406 23.0542 150.739 23.1651C151.071 23.3313 151.404 23.3867 151.792 23.3867C152.235 23.3867 152.623 23.2759 152.956 23.0542C153.233 22.8326 153.51 22.3892 153.787 21.835L153.953 21.3917L149.021 10.0862H151.736L155.283 18.3991L158.83 10.0862H161.379V10.1417Z" fill="#111111"/>
<path d="M59.9076 29.8153H62.069V37.3523H66.7241V39.1256H59.9076V29.8153Z" fill="#111111"/>
<path d="M76.4224 39.1256V33.5284L73.7069 38.1281H72.7093L69.9938 33.6392V39.1256H67.9988V29.8153H69.7722L73.2635 35.5788L76.6995 29.8153H78.4729V39.1256H76.4224Z" fill="#111111"/>
<path d="M81.5763 38.9594C80.9113 38.7377 80.3571 38.516 79.9138 38.1835L80.6342 36.5764C81.0221 36.8535 81.5209 37.1306 82.0751 37.2968C82.6293 37.4631 83.1835 37.5739 83.7377 37.5739C84.3473 37.5739 84.7906 37.4631 85.0677 37.2968C85.3448 37.1306 85.5111 36.8535 85.5111 36.5764C85.5111 36.3547 85.4002 36.1885 85.234 36.0222C85.0677 35.8559 84.846 35.7451 84.5689 35.6897C84.2919 35.5788 83.9593 35.5234 83.4606 35.4126C82.7401 35.2463 82.1859 35.0801 81.7426 34.9138C81.2992 34.7476 80.9113 34.4705 80.5788 34.0825C80.2463 33.6946 80.08 33.1958 80.08 32.5862C80.08 32.0321 80.2463 31.5333 80.5234 31.0899C80.8005 30.6466 81.2438 30.3141 81.8534 30.037C82.463 29.7599 83.1835 29.649 84.0148 29.649C84.6244 29.649 85.1785 29.7045 85.7327 29.8707C86.2869 30.037 86.7857 30.2032 87.229 30.4803L86.564 32.1429C85.6773 31.6441 84.846 31.4224 83.9593 31.4224C83.3497 31.4224 82.9064 31.5333 82.6293 31.6995C82.3522 31.8658 82.1859 32.1429 82.1859 32.4754C82.1859 32.8079 82.3522 33.0296 82.6847 33.1958C83.0172 33.3621 83.516 33.5284 84.181 33.6392C84.9014 33.8055 85.4556 33.9717 85.899 34.138C86.3423 34.3042 86.7303 34.5813 87.0628 34.9138C87.3953 35.3018 87.5615 35.7451 87.5615 36.4101C87.5615 36.9643 87.3953 37.4077 87.1182 37.851C86.8411 38.2944 86.3978 38.6269 85.7882 38.904C85.1785 39.1811 84.4581 39.2919 83.6268 39.2919C82.9618 39.2919 82.2414 39.1811 81.5763 38.9594Z" fill="#111111"/>
</g>
<defs>
<clipPath id="clip0_104:2">
<rect width="161.379" height="45" fill="white"/>
</clipPath>
</defs>
</svg>
