<svg width="332" height="278" viewBox="0 0 332 278" fill="none" xmlns="http://www.w3.org/2000/svg">
<path d="M272.795 134.173C272.701 133.57 272.371 133.029 271.877 132.67C271.384 132.31 270.768 132.161 270.165 132.256C269.562 132.35 269.021 132.681 268.662 133.174C268.302 133.667 268.153 134.283 268.248 134.886C268.576 137.032 269.002 143.751 266.679 146.455C266.203 147.031 265.532 147.413 264.794 147.529L265.005 134.731C265.018 134.285 264.941 133.84 264.779 133.424C264.617 133.008 264.373 132.629 264.061 132.309C263.749 131.989 263.376 131.736 262.964 131.563C262.553 131.39 262.11 131.302 261.664 131.304C261.217 131.306 260.775 131.397 260.365 131.573C259.954 131.749 259.583 132.006 259.274 132.328C258.965 132.65 258.724 133.032 258.565 133.449C258.406 133.866 258.333 134.311 258.35 134.758L258.949 159.049C258.189 158.94 257.495 158.553 257.003 157.963C254.684 155.259 255.118 148.536 255.435 146.394C255.489 146.092 255.482 145.783 255.415 145.483C255.348 145.184 255.221 144.901 255.043 144.651C254.865 144.401 254.639 144.19 254.378 144.028C254.117 143.867 253.826 143.759 253.523 143.712C253.22 143.665 252.911 143.678 252.613 143.752C252.315 143.826 252.035 143.958 251.789 144.142C251.543 144.325 251.336 144.556 251.181 144.82C251.025 145.085 250.924 145.378 250.883 145.682C250.718 146.737 249.375 156.149 253.5 160.953C254.191 161.766 255.042 162.429 255.999 162.899C256.957 163.37 258 163.64 259.066 163.691L259.326 174.249H264.353L264.73 152.164C265.774 152.098 266.795 151.823 267.731 151.355C268.668 150.886 269.5 150.234 270.178 149.437C274.292 144.641 272.961 135.233 272.795 134.173Z" fill="#DBDBDB"/>
<path d="M58.2206 154.765C58.1909 154.575 58.1239 154.392 58.0236 154.228C57.9233 154.063 57.7916 153.92 57.6359 153.806C57.4803 153.693 57.3038 153.611 57.1165 153.566C56.9292 153.52 56.7348 153.512 56.5444 153.542C56.354 153.572 56.1714 153.638 56.0069 153.739C55.8423 153.839 55.6991 153.971 55.5855 154.126C55.4719 154.282 55.39 154.459 55.3446 154.646C55.2992 154.833 55.2911 155.028 55.3208 155.218C55.532 156.587 55.7998 160.874 54.3216 162.594C54.019 162.957 53.5964 163.2 53.13 163.28L53.2658 155.12C53.2765 154.834 53.2292 154.548 53.1269 154.281C53.0245 154.014 52.8691 153.77 52.6701 153.564C52.471 153.358 52.2324 153.195 51.9686 153.084C51.7048 152.973 51.4212 152.916 51.1349 152.917C50.8486 152.919 50.5656 152.978 50.3028 153.091C50.0399 153.205 49.8028 153.37 49.6055 153.578C49.4083 153.785 49.2551 154.031 49.1551 154.299C49.0551 154.567 49.0104 154.853 49.0237 155.139L49.4008 170.621C48.9159 170.551 48.4742 170.304 48.1602 169.928C46.682 168.204 46.9498 163.921 47.1609 162.552C47.1907 162.362 47.1826 162.167 47.1372 161.98C47.0917 161.793 47.0099 161.616 46.8962 161.461C46.7826 161.305 46.6395 161.173 46.4749 161.073C46.3104 160.973 46.1277 160.906 45.9373 160.876C45.7469 160.846 45.5525 160.854 45.3652 160.9C45.178 160.945 45.0015 161.027 44.8458 161.141C44.6902 161.254 44.5585 161.397 44.4582 161.562C44.3579 161.726 44.2909 161.909 44.2612 162.1C44.1556 162.775 43.3072 168.77 45.9279 171.836C46.3686 172.353 46.9109 172.775 47.5212 173.075C48.1316 173.375 48.797 173.546 49.4762 173.578L49.6421 180.32H52.8435L53.0772 166.24C53.7432 166.198 54.394 166.023 54.9907 165.724C55.5873 165.426 56.1177 165.01 56.5501 164.502C59.1745 161.436 58.3261 155.437 58.2206 154.765Z" fill="#DBDBDB"/>
<path d="M165.725 277.805C257.252 277.805 331.45 251.538 331.45 219.136C331.45 186.734 257.252 160.467 165.725 160.467C74.1975 160.467 0 186.734 0 219.136C0 251.538 74.1975 277.805 165.725 277.805Z" fill="url(#paint0_linear_4_2243)"/>
<path d="M192.181 148.02C192.181 148.02 192.083 153.676 192.181 154.234C192.279 154.792 189.971 158.106 189.028 157.959C188.086 157.812 186.2 157.499 185.929 157.186C185.657 156.873 185.778 156.13 185.872 155.452C185.966 154.773 186.675 148.627 186.675 148.314C186.675 148.001 191.132 147.164 192.181 148.02Z" fill="#FFD3BC"/>
<path d="M188.523 153.909C187.346 154.543 186.683 156.485 186.517 156.507C186.351 156.53 186.038 156.485 186.038 156.293C186.038 156.1 186.087 155.452 185.868 155.452C185.649 155.452 185.416 156.507 185.367 158.038C185.318 159.569 184.775 163.227 185.367 163.695C185.744 163.989 189.137 165.78 189.247 166.021C189.356 166.262 189.175 167.937 189.462 168.201C189.748 168.465 190.419 169.109 190.947 169.132C191.475 169.155 194.515 169.468 195.951 169.132C197.388 168.796 199.209 168.103 199.258 167.91C199.307 167.718 198.881 163.649 198.444 163.144C198.006 162.639 194.707 158.14 194.443 157.733C194.155 157.114 194.007 156.44 194.009 155.757C194.009 155.184 193.489 153.928 192.501 153.627C191.513 153.325 189.409 153.427 188.523 153.909Z" fill="url(#paint1_linear_4_2243)"/>
<path d="M157.765 151.285C157.765 151.285 157.765 154.573 157.671 155.139C157.576 155.704 159.88 159.015 160.823 158.868C161.766 158.721 163.651 158.408 163.922 158.091C164.194 157.774 164.077 157.039 163.979 156.36C163.881 155.682 163.274 151.892 163.274 151.579C163.274 151.266 158.813 150.425 157.765 151.285Z" fill="#FFD3BC"/>
<path d="M160.8 78.7318C159.469 83.581 156.943 100.199 156.943 108.276C156.943 116.353 156.136 136.933 156.136 140.071C156.136 143.208 155.8 150.964 156.607 151.383C157.414 151.802 159.303 153.001 161.864 152.597C164.424 152.194 165.099 150.576 165.167 149.094C165.235 147.612 165.842 136.964 166.449 132.85C167.056 128.736 169.209 120.813 170.627 115.712C172.045 110.61 175.344 100.357 176.219 100.399C177.094 100.44 182.554 122.902 183.006 124.177C183.459 125.452 184.33 143.54 184.386 145.056C184.443 146.572 184.386 148.038 185.34 148.657C186.294 149.275 189.22 150.791 190.74 150.919C192.26 151.047 193.266 148.615 193.549 147.884C193.832 147.152 194.33 122.955 194.149 116.319C193.968 109.682 194.496 97.3028 194.187 93.2643C193.877 89.2259 192.893 80.5795 192.267 78.762C191.641 76.9445 160.8 78.7318 160.8 78.7318Z" fill="#192B59"/>
<path d="M151.4 22.3477C152.674 20.9336 158.613 14.2368 159.793 14.003C160.974 13.7692 163.843 13.2488 164.481 12.5852C165.118 11.9215 167.829 3.42977 166.743 1.88376C165.657 0.337753 161.536 0.775161 160.284 3.39207C159.032 6.00897 159.092 7.40039 157.026 9.21789C154.959 11.0354 145.951 18.3959 145.114 19.1425C144.277 19.8891 145.94 23.4977 147.256 24.1275C148.572 24.7572 151.4 22.3477 151.4 22.3477Z" fill="url(#paint2_linear_4_2243)"/>
<path d="M167.803 24.3877C164.763 25.0249 159.722 25.5641 158.055 26.1034C156.389 26.6426 149.831 28.9428 149.88 27.9624C149.929 26.982 152.897 22.6833 152.376 22.2346C151.856 21.7859 148.606 21.2542 148.066 20.5679C147.527 19.8816 146.796 18.2677 146.06 18.4638C145.325 18.6599 136.811 26.5898 137.388 29.629C138.764 36.7935 158.881 42.0046 159.349 45.1268C159.816 48.249 157.787 78.1851 158.889 79.2899C159.99 80.3947 171.653 84.6142 177.531 84.9837C183.41 85.3533 193.719 83.302 194.281 81.756C194.843 80.21 191.415 50.4587 191.811 50.4587C192.207 50.4587 192.324 59.8215 196.8 62.2423C199.756 63.8411 203.821 62.1933 204.598 61.3109C205.374 60.4286 201.822 47.9813 200.212 43.7844C198.602 39.5876 197.064 30.9111 193.425 27.8304C189.786 24.7497 184.65 25.2776 182.867 24.5536C181.083 23.8296 175.167 24.3462 173.67 24.1765C172.173 24.0068 167.803 24.3877 167.803 24.3877Z" fill="url(#paint3_linear_4_2243)"/>
<path d="M205.721 55.6887C205.721 55.6887 200.487 57.2724 200.065 57.8154C199.643 58.3584 198.934 60.5379 200.065 61.4429C201.196 62.3479 202.444 63.0304 203.791 61.9821C205.137 60.9338 206.362 59.5273 207.139 59.3426C207.916 59.1578 210.242 59.4972 211.219 59.1163C212.196 58.7355 214.051 51.3297 213.301 50.881C212.55 50.4323 205.721 55.6887 205.721 55.6887Z" fill="url(#paint4_linear_4_2243)"/>
<path d="M167.825 23.4035C166.136 23.0528 162.874 19.8627 162.576 16.6161C162.282 13.4562 159.963 4.58363 168.044 1.25783C175.627 -1.86436 183.429 1.3483 184.552 5.19825C185.601 8.79555 176.698 8.96903 173.436 11.2994C170.174 13.6297 169.948 15.1945 169.134 14.825C168.319 14.4555 167.825 23.4035 167.825 23.4035Z" fill="#192B59"/>
<path d="M167.686 17.0648C167.58 18.5128 167.218 25.5076 167.821 26.537C168.379 27.4834 169.367 30.2323 173.244 30.1079C177.12 29.9835 179.631 26.1109 179.843 25.6584C180.054 25.2059 179.601 19.6025 179.601 18.6636C179.601 17.7247 174.394 15.515 172.305 15.5754C170.216 15.6357 167.787 15.7074 167.686 17.0648Z" fill="url(#paint5_linear_4_2243)"/>
<path d="M168.044 17.0875C168.481 17.0875 167.965 19.727 168.756 20.6094C169.548 21.4917 172.995 26.0242 176.641 25.583C179.797 25.2059 179.345 22.4796 179.797 20.2436C180.212 18.2111 181.52 18.0339 181.98 12.7322C182.161 10.6772 183.131 7.45316 181.347 6.87246C179.563 6.29177 172.874 4.69296 171.211 6.87246C169.548 9.05196 169.39 14.2745 168.519 13.6033C167.648 12.9321 165.827 9.64397 164.748 11.4238C163.67 13.2036 165.706 17.1553 168.044 17.0875Z" fill="#F2DAD4"/>
<path d="M196.196 44.2143L185.582 57.6344C185.458 57.7912 185.382 57.9796 185.362 58.1778C185.341 58.3761 185.377 58.5762 185.465 58.7549C185.554 58.9335 185.691 59.0836 185.861 59.1876C186.031 59.2916 186.227 59.3453 186.426 59.3426L206.034 59.007C206.195 59.0049 206.353 58.9658 206.497 58.8925C206.64 58.8192 206.764 58.7139 206.86 58.5847L216.89 45.1872C216.997 45.0441 217.062 44.8741 217.077 44.6963C217.093 44.5184 217.058 44.3398 216.977 44.1806C216.896 44.0214 216.773 43.8879 216.62 43.7953C216.467 43.7026 216.292 43.6545 216.113 43.6562L197.003 43.8146C196.847 43.8168 196.694 43.8539 196.555 43.923C196.415 43.9922 196.293 44.0917 196.196 44.2143Z" fill="url(#paint6_linear_4_2243)"/>
<path d="M212.98 49.6178C211.947 49.7234 210.446 50.3041 210.446 50.8433C210.446 51.3825 211.653 51.5296 211.984 51.5974C212.316 51.6653 212.739 51.752 212.625 51.9179C212.512 52.0839 212.248 52.9134 211.588 52.7701C210.929 52.6269 208.018 52.5816 207.441 52.5816C206.864 52.5816 206.215 52.9587 206.174 53.3923C206.132 53.826 206.008 53.8901 205.676 53.9089C205.344 53.9278 204.741 54.2445 204.741 54.7837C204.741 55.3229 206.076 55.8094 206.076 55.9979C206.076 56.1864 208.693 57.789 209.205 58.0869C209.718 58.3848 210.676 59.139 211.215 59.139C211.754 59.139 212.659 58.6261 212.723 57.8833C212.788 57.1404 213.855 56.6012 213.855 56.2355C213.855 55.8697 213.519 55.602 213.561 55.372C213.602 55.142 214.53 54.8214 214.53 54.2407C214.46 53.6895 214.319 53.1495 214.111 52.6344C214.058 52.3893 213.843 51.8802 214.058 51.7973C214.273 51.7143 215.031 51.0431 214.895 50.3795C214.76 49.7158 213.455 49.5688 212.98 49.6178Z" fill="#FFD3BC"/>
<path d="M161.324 154.814C162.505 155.452 163.165 157.39 163.334 157.412C163.504 157.435 163.813 157.39 163.813 157.198C163.813 157.005 163.764 156.36 163.979 156.36C164.194 156.36 164.435 157.412 164.481 158.947C164.526 160.482 165.076 164.136 164.481 164.603C164.103 164.894 160.71 166.689 160.6 166.926C160.491 167.164 160.676 168.842 160.385 169.106C160.095 169.37 159.428 170.018 158.9 170.041C158.372 170.063 155.333 170.376 153.896 170.041C152.459 169.705 150.638 169.011 150.589 168.819C150.54 168.627 150.966 164.554 151.404 164.053C151.841 163.551 155.14 159.045 155.404 158.638C155.698 158.026 155.854 157.356 155.861 156.677C155.861 156.1 156.381 154.848 157.346 154.543C158.312 154.238 160.45 154.336 161.324 154.814Z" fill="url(#paint7_linear_4_2243)"/>
<defs>
<linearGradient id="paint0_linear_4_2243" x1="165.725" y1="133.875" x2="165.725" y2="226.003" gradientUnits="userSpaceOnUse">
<stop stop-color="#E5E5E5"/>
<stop offset="0.48" stop-color="#F4F4F4"/>
<stop offset="1" stop-color="white"/>
</linearGradient>
<linearGradient id="paint1_linear_4_2243" x1="194.82" y1="159.973" x2="186.241" y2="166.474" gradientUnits="userSpaceOnUse">
<stop stop-color="#8B80FE"/>
<stop offset="0.98" stop-color="#7367EA"/>
</linearGradient>
<linearGradient id="paint2_linear_4_2243" x1="170.389" y1="14.1991" x2="154.167" y2="12.3891" gradientUnits="userSpaceOnUse">
<stop stop-color="#F2BFAD"/>
<stop offset="1" stop-color="#F2DAD4"/>
</linearGradient>
<linearGradient id="paint3_linear_4_2243" x1="150.985" y1="34.4745" x2="206.272" y2="76.3827" gradientUnits="userSpaceOnUse">
<stop stop-color="#8C81FF"/>
<stop offset="0.98" stop-color="#6E62E5"/>
</linearGradient>
<linearGradient id="paint4_linear_4_2243" x1="206.615" y1="58.102" x2="207.441" y2="72.0953" gradientUnits="userSpaceOnUse">
<stop stop-color="#F2BFAD"/>
<stop offset="0.7" stop-color="#F2DAD4"/>
</linearGradient>
<linearGradient id="paint5_linear_4_2243" x1="172.493" y1="20.0249" x2="177.855" y2="31.224" gradientUnits="userSpaceOnUse">
<stop stop-color="#F2BFAD"/>
<stop offset="1" stop-color="#F2DAD4"/>
</linearGradient>
<linearGradient id="paint6_linear_4_2243" x1="197.618" y1="44.8327" x2="206.958" y2="62.0085" gradientUnits="userSpaceOnUse">
<stop stop-color="#F6DBDB"/>
<stop offset="1" stop-color="#EB9A99"/>
</linearGradient>
<linearGradient id="paint7_linear_4_2243" x1="155.031" y1="160.882" x2="163.609" y2="167.382" gradientUnits="userSpaceOnUse">
<stop stop-color="#8A7FFE"/>
<stop offset="0.98" stop-color="#7367EA"/>
</linearGradient>
</defs>
</svg>
